<svg width="56.000000" height="60.000000" viewBox="0 0 56 60" fill="none" xmlns="http://www.w3.org/2000/svg" xmlns:xlink="http://www.w3.org/1999/xlink">
	<desc>
			Created with Pixso.
	</desc>
	<defs/>
	<path id="Vector" d="M18.73 47.5L21.22 47.5L21.22 50L18.73 50L18.73 47.5Z" fill="#D10505" fill-opacity="1.000000" fill-rule="evenodd"/>
	<path id="Vector" d="M22.41 47.5L24.91 47.5L24.91 50L22.41 50L22.41 47.5Z" fill="#D10505" fill-opacity="1.000000" fill-rule="evenodd"/>
	<path id="Vector" d="M26.2 47.5L28.69 47.5L28.69 50L26.2 50L26.2 47.5Z" fill="#D10505" fill-opacity="1.000000" fill-rule="evenodd"/>
	<path id="Vector" d="M32.47 53.69C32.38 54.39 31.78 54.99 31.18 54.99L27.39 54.99C26.7 54.99 26.1 54.39 26.1 53.69C26.1 52.99 26.7 52.39 27.39 52.39L31.18 52.39C31.88 52.39 32.47 52.99 32.47 53.69Z" fill="#D10505" fill-opacity="1.000000" fill-rule="nonzero"/>
	<path id="Vector" d="M29.89 47.5L32.37 47.5L32.37 50L29.89 50L29.89 47.5Z" fill="#D10505" fill-opacity="1.000000" fill-rule="evenodd"/>
	<path id="Vector" d="M35.36 14.6C35.96 15 36.16 15.7 35.77 16.29C35.57 16.7 35.16 16.9 34.67 16.9C34.47 16.9 34.17 16.79 33.97 16.7C32.47 15.8 30.88 15.3 29.19 15.3C27.6 15.3 25.9 15.8 24.4 16.7C23.81 17.1 23.01 16.9 22.72 16.29C22.31 15.7 22.51 14.9 23.11 14.6C25 13.4 27.09 12.8 29.19 12.8C31.28 12.8 33.47 13.4 35.36 14.6Z" fill="#D10505" fill-opacity="1.000000" fill-rule="nonzero"/>
	<path id="Vector" d="M33.67 47.5L36.16 47.5L36.16 50L33.67 50L33.67 47.5Z" fill="#D10505" fill-opacity="1.000000" fill-rule="evenodd"/>
	<path id="Vector" d="M20.63 13C20.22 12.4 20.42 11.6 21.02 11.3C23.52 9.7 26.4 8.8 29.29 8.8C32.18 8.8 35.17 9.7 37.66 11.3C38.25 11.7 38.35 12.5 38.06 13C37.66 13.6 36.86 13.7 36.36 13.4C34.27 12 31.88 11.3 29.39 11.3C26.89 11.3 24.5 12 22.51 13.4C22.11 13.5 21.92 13.6 21.62 13.6C21.22 13.6 20.82 13.4 20.63 13Z" fill="#D10505" fill-opacity="1.000000" fill-rule="nonzero"/>
	<path id="Vector" d="M37.36 47.5L39.85 47.5L39.85 50L37.36 50L37.36 47.5Z" fill="#D10505" fill-opacity="1.000000" fill-rule="evenodd"/>
	<path id="Vector" d="M40.44 40.09L39.75 40.09L39.05 34.19C38.86 32.39 38.06 30.69 36.67 29.39C35.93 28.65 35.03 28.1 34.04 27.78C34.99 26.68 35.57 25.26 35.57 23.69C35.57 20.19 32.78 17.39 29.29 17.39C25.79 17.39 23.01 20.19 23.01 23.69C23.01 25.27 23.59 26.7 24.56 27.8C23.6 28.12 22.7 28.66 21.92 29.39C20.53 30.59 19.73 32.29 19.53 34.19L18.84 40.09L18.03 40.09C17.23 40.09 16.43 40.39 15.84 40.99C15.24 41.59 14.94 42.39 14.94 43.19C14.94 44.89 16.33 46.29 18.03 46.29L40.44 46.29C41.34 46.29 42.04 45.89 42.65 45.39C43.24 44.79 43.53 43.99 43.53 43.19C43.53 41.49 42.14 40.09 40.44 40.09ZM18.03 43.69C17.73 43.69 17.43 43.39 17.43 43.09C17.43 42.89 17.54 42.79 17.64 42.69C17.73 42.59 17.83 42.49 18.03 42.49L40.44 42.49C40.75 42.49 41.05 42.79 41.05 43.09C41.05 43.19 40.95 43.39 40.85 43.49C40.75 43.59 40.65 43.69 40.44 43.69L18.03 43.69ZM22.02 34.49C22.21 31.99 24.31 29.99 26.9 29.99L31.68 29.99C32.93 29.99 34.1 30.49 34.98 31.31C35.87 32.14 36.47 33.29 36.57 34.59L37.21 40.09L34.97 40.09L34.97 36.19C34.97 35.49 34.37 34.89 33.68 34.89C32.99 34.89 32.37 35.49 32.37 36.19L32.37 40.09L26.2 40.09L26.2 36.19C26.2 35.49 25.61 34.89 24.91 34.89C24.21 34.89 23.61 35.49 23.61 36.19L23.61 40.09L21.35 40.09L22.02 34.49ZM29.29 19.99C31.28 19.99 33.08 21.69 33.08 23.79C33.08 25.47 31.99 26.89 30.49 27.39L28.08 27.39C26.58 26.89 25.5 25.47 25.5 23.79C25.5 21.69 27.2 19.99 29.29 19.99Z" fill="#D10505" fill-opacity="1.000000" fill-rule="nonzero"/>
	<path id="Vector" d="M41.84 1.3L35.87 1.3L35.87 2.9C35.87 4.1 34.87 5.1 33.68 5.1L25.8 5.1C24.61 5.1 23.61 4.1 23.61 2.9L23.61 1.3L16.64 1.3C14.34 1.3 12.35 3.2 12.35 5.6L12.35 54.71C12.36 57.01 14.24 59 16.64 59L41.84 59C44.13 59 46.13 57.1 46.13 54.7L46.13 5.5C46.13 3.2 44.13 1.3 41.84 1.3ZM44.83 54.5C44.83 56.2 43.53 57.5 41.84 57.5L16.74 57.5C15.04 57.5 13.75 56.2 13.75 54.5L13.75 5.5C13.75 3.8 15.04 2.5 16.74 2.5L22.41 2.5L22.41 2.9C22.41 4.8 23.91 6.3 25.8 6.3L33.68 6.3C35.57 6.3 37.16 4.7 37.26 2.9L37.26 2.5L41.84 2.5C43.53 2.5 44.83 3.8 44.83 5.5L44.83 54.5Z" fill="#D10505" fill-opacity="1.000000" fill-rule="nonzero"/>
	<path id="Vector" d="M40.44 41.3L17.93 41.3C17.43 41.3 16.93 41.5 16.64 41.8C16.33 42.1 16.13 42.6 16.13 43.1C16.13 44.2 17.03 45 18.03 45L40.54 45C41.04 45 41.54 44.8 41.84 44.5C42.14 44.2 42.34 43.7 42.34 43.2C42.34 42.1 41.44 41.3 40.44 41.3ZM40.85 43.5C40.75 43.6 40.65 43.7 40.44 43.7L18.03 43.7C17.73 43.7 17.43 43.4 17.43 43.1C17.43 42.9 17.53 42.8 17.63 42.7C17.73 42.6 17.83 42.5 18.03 42.5L40.44 42.5C40.75 42.5 41.04 42.8 41.04 43.1C41.04 43.2 40.95 43.4 40.85 43.5Z" fill="#D10505" fill-opacity="1.000000" fill-rule="nonzero"/>
	<path id="Vector" d="M29.29 18.79C26.53 18.79 24.3 21.04 24.3 23.8C24.3 25.25 24.92 26.56 25.91 27.48L25.92 27.48C26.81 28.3 27.98 28.8 29.29 28.8C30.59 28.8 31.78 28.3 32.66 27.47C33.65 26.56 34.27 25.25 34.27 23.8C34.27 21.04 32.04 18.79 29.29 18.79ZM30.49 27.4L28.08 27.4C26.58 26.9 25.5 25.48 25.5 23.8C25.5 21.7 27.19 20 29.29 20C31.38 20 33.08 21.7 33.08 23.8C33.08 25.48 31.99 26.9 30.49 27.4Z" fill="#D10505" fill-opacity="1.000000" fill-rule="nonzero"/>
	<path id="Vector" d="M38.52 40.09L37.86 34.5C37.59 31.69 35.48 29.41 32.81 28.9L32.8 28.9C32.43 28.84 32.07 28.8 31.68 28.8L26.9 28.8C26.51 28.8 26.14 28.84 25.77 28.9C23.1 29.41 20.98 31.68 20.72 34.5L20.06 40.09L19.92 41.3L38.66 41.3L38.52 40.09ZM34.97 40.09L34.97 36.2C34.97 35.5 34.37 34.9 33.68 34.9C32.99 34.9 32.38 35.5 32.38 36.2L32.38 40.09L26.2 40.09L26.2 36.2C26.2 35.5 25.61 34.9 24.91 34.9C24.21 34.9 23.61 35.5 23.61 36.2L23.61 40.09L21.35 40.09L22.02 34.5C22.21 32 24.31 30 26.9 30L31.68 30C32.93 30 34.1 30.5 34.98 31.32C35.87 32.15 36.47 33.3 36.57 34.59L37.21 40.09L34.97 40.09Z" fill="#D10505" fill-opacity="1.000000" fill-rule="nonzero"/>
	<path id="Vector" d="M23.61 1.3L23.61 2.9C23.61 4.1 24.61 5.1 25.8 5.1L33.68 5.1C34.87 5.1 35.87 4.1 35.87 2.9L35.87 1.3L23.61 1.3ZM34.67 2.9C34.67 3.4 34.27 3.8 33.78 3.8L25.9 3.8C25.4 3.8 25 3.4 25 2.9L25 2.5L34.67 2.5L34.67 2.9Z" fill="#D10505" fill-opacity="1.000000" fill-rule="nonzero"/>
	<path id="Vector" d="M3.78 28.8C2.38 28.8 1.29 29.9 1.29 31.3C1.29 32.7 2.38 33.8 3.78 33.8C5.18 33.8 6.27 32.7 6.27 31.3C6.27 29.9 5.17 28.8 3.78 28.8ZM3.78 32.59C3.08 32.59 2.49 32 2.49 31.3C2.49 30.6 3.08 30 3.78 30C4.38 30 5.08 30.6 5.08 31.3C5.08 32 4.49 32.59 3.78 32.59Z" fill="#D10505" fill-opacity="1.000000" fill-rule="nonzero"/>
	<path id="Vector" d="M12.35 50.06C12.13 49.42 11.75 48.86 11.25 48.42C10.58 47.85 9.71 47.5 8.77 47.5C6.67 47.5 4.98 49.2 4.98 51.3C4.98 53.4 6.67 55.1 8.77 55.1C9.71 55.1 10.58 54.75 11.25 54.18C11.75 53.74 12.13 53.18 12.35 52.54C12.49 52.15 12.55 51.74 12.55 51.3C12.55 50.86 12.49 50.45 12.35 50.06ZM8.77 53.8C7.36 53.8 6.27 52.7 6.27 51.3C6.27 49.9 7.36 48.8 8.77 48.8C10.06 48.8 11.25 49.9 11.25 51.3C11.25 52.7 10.16 53.8 8.77 53.8Z" fill="#D10505" fill-opacity="1.000000" fill-rule="nonzero"/>
	<path id="Vector" d="M50.41 16.2C49.19 16.2 48.12 16.68 47.32 17.48C46.73 18.06 46.3 18.83 46.13 19.66C46.06 19.96 46.03 20.28 46.03 20.6C46.03 20.91 46.06 21.23 46.13 21.53C46.3 22.36 46.73 23.12 47.32 23.72C48.12 24.5 49.19 24.99 50.41 24.99C52.83 24.99 54.8 23.03 54.8 20.6C54.8 18.16 52.83 16.2 50.41 16.2ZM50.41 23.7C48.72 23.7 47.32 22.29 47.32 20.6C47.32 18.9 48.72 17.49 50.41 17.49C52.09 17.49 53.5 18.9 53.5 20.6C53.5 22.29 52.11 23.7 50.41 23.7Z" fill="#D10505" fill-opacity="1.000000" fill-rule="nonzero"/>
	<path id="Vector" d="M54.8 37.5L54.8 43.8L52.3 43.8L52.3 41.3L52.3 38.8L52.3 37.5L54.8 37.5Z" fill="#D10505" fill-opacity="1.000000" fill-rule="evenodd"/>
	<path id="Vector" d="M50.41 38.8L52.9 38.8L52.9 41.3L50.41 41.3L50.41 38.8Z" fill="#D10505" fill-opacity="1.000000" fill-rule="evenodd"/>
	<path id="Vector" d="M37.36 47.5L39.85 47.5L39.85 50L37.36 50L37.36 47.5Z" fill="#D10505" fill-opacity="1.000000" fill-rule="evenodd"/>
	<path id="Vector" d="M33.67 47.5L36.16 47.5L36.16 50L33.67 50L33.67 47.5Z" fill="#D10505" fill-opacity="1.000000" fill-rule="evenodd"/>
	<path id="Vector" d="M29.89 47.5L32.37 47.5L32.37 50L29.89 50L29.89 47.5Z" fill="#D10505" fill-opacity="1.000000" fill-rule="evenodd"/>
	<path id="Vector" d="M26.2 47.5L28.69 47.5L28.69 50L26.2 50L26.2 47.5Z" fill="#D10505" fill-opacity="1.000000" fill-rule="evenodd"/>
	<path id="Vector" d="M22.41 47.5L24.91 47.5L24.91 50L22.41 50L22.41 47.5Z" fill="#D10505" fill-opacity="1.000000" fill-rule="evenodd"/>
	<path id="Vector" d="M18.73 47.5L21.22 47.5L21.22 50L18.73 50L18.73 47.5Z" fill="#D10505" fill-opacity="1.000000" fill-rule="evenodd"/>
	<path id="Vector" d="M4.98 13.8L7.46 13.8L7.46 16.29L4.98 16.29L4.98 13.8Z" fill="#D10505" fill-opacity="1.000000" fill-rule="evenodd"/>
	<path id="Vector" d="M2.49 11.3L4.98 11.3L4.98 13.8L2.49 13.8L2.49 11.3Z" fill="#D10505" fill-opacity="1.000000" fill-rule="evenodd"/>
	<path id="Vector" d="M38.06 13C37.66 13.6 36.86 13.7 36.36 13.4C34.27 12 31.88 11.3 29.39 11.3C26.89 11.3 24.5 12 22.51 13.4C22.11 13.5 21.92 13.6 21.62 13.6C21.22 13.6 20.82 13.4 20.63 13C20.22 12.4 20.42 11.6 21.02 11.3C23.52 9.7 26.4 8.8 29.29 8.8C32.18 8.8 35.17 9.7 37.66 11.3C38.25 11.7 38.35 12.5 38.06 13Z" fill="#D10505" fill-opacity="1.000000" fill-rule="evenodd"/>
	<path id="Vector" d="M35.77 16.29C35.57 16.7 35.16 16.9 34.67 16.9C34.47 16.9 34.17 16.79 33.97 16.7C32.47 15.8 30.88 15.3 29.19 15.3C27.6 15.3 25.9 15.8 24.4 16.7C23.81 17.1 23.01 16.9 22.72 16.29C22.31 15.7 22.51 14.9 23.11 14.6C25 13.4 27.09 12.8 29.19 12.8C31.28 12.8 33.47 13.4 35.36 14.6C35.96 15 36.16 15.7 35.77 16.29Z" fill="#D10505" fill-opacity="1.000000" fill-rule="evenodd"/>
	<path id="Vector" d="M29.29 17.39C25.8 17.39 23.01 20.19 23.01 23.69C23.01 25.27 23.59 26.7 24.56 27.8C24.92 28.22 25.32 28.58 25.77 28.89C26.79 29.59 28 29.99 29.29 29.99C30.58 29.99 31.78 29.59 32.8 28.89L32.81 28.89C33.26 28.58 33.69 28.2 34.04 27.78C34.99 26.68 35.57 25.26 35.57 23.69C35.57 20.19 32.78 17.39 29.29 17.39ZM30.49 27.39C30.12 27.52 29.71 27.59 29.29 27.59C28.86 27.59 28.46 27.52 28.08 27.39C26.58 26.89 25.5 25.47 25.5 23.79C25.5 21.69 27.2 19.99 29.29 19.99C31.38 19.99 33.08 21.69 33.08 23.79C33.08 25.47 31.99 26.89 30.49 27.39Z" fill="#D10505" fill-opacity="1.000000" fill-rule="evenodd"/>
	<path id="Vector" d="M37.26 1.29L37.26 2.9C37.16 4.7 35.57 6.29 33.68 6.29L25.81 6.29C23.91 6.29 22.41 4.79 22.41 2.9L22.41 1.29C22.41 0.59 23.01 0 23.71 0C24.41 0 25 0.59 25 1.29L25 2.9C25 3.4 25.4 3.79 25.9 3.79L33.78 3.79C34.27 3.79 34.67 3.4 34.67 2.9L34.67 1.29C34.67 0.59 35.27 0 35.97 0C36.67 0 37.26 0.59 37.26 1.29Z" fill="#D10505" fill-opacity="1.000000" fill-rule="evenodd"/>
	<path id="Vector" d="M41.84 0L16.74 0C13.75 0 11.25 2.5 11.25 5.5L11.25 54.5C11.25 54.85 11.28 55.19 11.35 55.53C11.84 58.05 14.09 60 16.74 60L41.84 60C44.83 60 47.32 57.5 47.32 54.5L47.32 5.5C47.32 2.5 44.83 0 41.84 0ZM44.83 54.5C44.83 56.2 43.53 57.5 41.84 57.5L16.74 57.5C15.04 57.5 13.75 56.2 13.75 54.5L13.75 5.5C13.75 3.79 15.04 2.5 16.74 2.5L41.84 2.5C43.53 2.5 44.83 3.79 44.83 5.5L44.83 54.5Z" fill="#D10505" fill-opacity="1.000000" fill-rule="evenodd"/>
	<path id="Vector" d="M12.34 47.79C12.02 47.46 11.66 47.18 11.25 46.95C10.52 46.53 9.68 46.3 8.76 46.3C5.97 46.3 3.78 48.5 3.78 51.3C3.78 54.1 5.97 56.3 8.76 56.3C9.7 56.3 10.59 56.02 11.35 55.53C11.72 55.31 12.06 55.03 12.34 54.71C13.21 53.81 13.75 52.6 13.75 51.3C13.75 49.92 13.22 48.69 12.34 47.79ZM6.27 51.3C6.27 49.9 7.36 48.8 8.76 48.8C10.06 48.8 11.25 49.9 11.25 51.3C11.25 52.7 10.16 53.8 8.76 53.8C7.37 53.8 6.27 52.7 6.27 51.3Z" fill="#D10505" fill-opacity="1.000000" fill-rule="evenodd"/>
	<path id="Vector" d="M3.78 27.39C1.69 27.39 0 29.09 0 31.19C0 33.29 1.69 34.99 3.78 34.99C5.88 34.99 7.57 33.29 7.57 31.19C7.57 29.09 5.88 27.39 3.78 27.39ZM3.78 32.59C3.08 32.59 2.49 31.99 2.49 31.29C2.49 30.59 3.08 29.99 3.78 29.99C4.38 29.99 5.08 30.59 5.08 31.29C5.08 31.99 4.48 32.59 3.78 32.59Z" fill="#D10505" fill-opacity="1.000000" fill-rule="evenodd"/>
	<path id="Vector" d="M50.41 15.1C49.26 15.1 48.21 15.44 47.32 16.03C46.88 16.33 46.47 16.7 46.13 17.12C45.32 18.08 44.83 19.33 44.83 20.7C44.83 22.07 45.32 23.32 46.13 24.28C46.47 24.7 46.88 25.07 47.32 25.37C48.21 25.96 49.26 26.3 50.41 26.3C53.5 26.3 56.09 23.7 55.99 20.7C55.99 17.6 53.5 15.1 50.41 15.1ZM50.41 23.7C48.72 23.7 47.32 22.3 47.32 20.6C47.32 18.9 48.72 17.5 50.41 17.5C52.1 17.5 53.5 18.9 53.5 20.6C53.5 22.3 52.11 23.7 50.41 23.7Z" fill="#D10505" fill-opacity="1.000000" fill-rule="evenodd"/>
	<path id="Vector" d="M32.47 53.69C32.38 54.39 31.78 54.99 31.18 54.99L27.39 54.99C26.7 54.99 26.1 54.39 26.1 53.69C26.1 52.99 26.7 52.39 27.39 52.39L31.18 52.39C31.88 52.39 32.47 52.99 32.47 53.69Z" fill="#D10505" fill-opacity="1.000000" fill-rule="evenodd"/>
	<path id="Vector" d="M39.85 40.99C39.86 41.09 39.87 41.2 39.85 41.29C39.79 41.86 39.34 42.31 38.76 42.39C38.69 42.46 38.63 42.49 38.56 42.49C37.96 42.49 37.36 41.99 37.36 41.39L37.36 41.29L37.21 40.09L36.57 34.59C36.47 33.29 35.87 32.14 34.98 31.31C34.1 30.49 32.93 29.99 31.68 29.99L26.9 29.99C24.31 29.99 22.21 31.99 22.02 34.49L21.35 40.09L21.22 41.29C21.12 41.99 20.53 42.49 19.83 42.39C19.22 42.31 18.78 41.85 18.73 41.29C18.71 41.19 18.72 41.09 18.73 40.99L18.84 40.09L19.53 34.19C19.73 32.29 20.53 30.59 21.92 29.39C22.7 28.66 23.6 28.12 24.56 27.8C25 27.64 25.46 27.53 25.91 27.47L25.92 27.47C26.25 27.41 26.58 27.39 26.9 27.39L31.68 27.39C32.01 27.39 32.33 27.41 32.66 27.46C33.14 27.51 33.6 27.62 34.04 27.78C35.03 28.1 35.93 28.65 36.67 29.39C38.06 30.69 38.86 32.39 39.05 34.19L39.75 40.09L39.85 40.99Z" fill="#D10505" fill-opacity="1.000000" fill-rule="evenodd"/>
	<path id="Vector" d="M34.97 36.19L34.97 41.19C34.97 41.19 34.97 41.26 34.95 41.29C34.95 41.31 34.94 41.32 34.94 41.34C34.92 41.4 34.91 41.45 34.89 41.5C34.87 41.57 34.83 41.64 34.8 41.71C34.76 41.77 34.73 41.83 34.68 41.89C34.63 41.97 34.57 42.04 34.5 42.1C34.46 42.15 34.4 42.2 34.34 42.24C34.26 42.31 34.18 42.36 34.09 42.4C33.96 42.46 33.81 42.49 33.68 42.49C33 42.49 32.43 41.95 32.38 41.29C32.38 41.26 32.38 41.22 32.38 41.19L32.38 36.19C32.38 35.49 32.99 34.89 33.69 34.89C34.39 34.89 34.98 35.49 34.98 36.19L34.97 36.19Z" fill="#D10505" fill-opacity="1.000000" fill-rule="evenodd"/>
	<path id="Vector" d="M26.2 36.19L26.2 41.19C26.2 41.19 26.2 41.26 26.19 41.29C26.14 41.95 25.58 42.49 24.91 42.49C24.23 42.49 23.67 41.95 23.62 41.29C23.62 41.26 23.62 41.22 23.62 41.19L23.62 36.19C23.62 35.49 24.21 34.89 24.91 34.89C25.61 34.89 26.21 35.49 26.21 36.19L26.2 36.19Z" fill="#D10505" fill-opacity="1.000000" fill-rule="evenodd"/>
	<path id="Vector" d="M37.36 41.39L37.36 41.29L34.95 41.29C34.95 41.29 34.94 41.32 34.94 41.34C34.92 41.4 34.91 41.45 34.89 41.5C34.87 41.57 34.83 41.64 34.8 41.71C34.76 41.77 34.73 41.83 34.68 41.89C34.63 41.97 34.58 42.04 34.51 42.1C34.46 42.15 34.4 42.2 34.34 42.24C34.26 42.31 34.18 42.36 34.09 42.4C33.96 42.46 33.82 42.49 33.68 42.49L38.56 42.49C37.96 42.49 37.36 41.99 37.36 41.39ZM40.44 40.09L18.03 40.09C17.23 40.09 16.43 40.39 15.84 40.99C15.24 41.59 14.94 42.39 14.94 43.19C14.94 44.89 16.33 46.29 18.03 46.29L40.44 46.29C41.34 46.29 42.04 45.89 42.65 45.39C43.24 44.79 43.53 43.99 43.53 43.19C43.53 41.49 42.14 40.09 40.44 40.09ZM18.03 43.69C17.73 43.69 17.43 43.39 17.43 43.09C17.43 42.89 17.54 42.79 17.64 42.69C17.73 42.59 17.83 42.49 18.03 42.49L40.44 42.49C40.75 42.49 41.05 42.79 41.05 43.09C41.05 43.19 40.95 43.39 40.85 43.49C40.75 43.59 40.65 43.69 40.44 43.69L18.03 43.69Z" fill="#D10505" fill-opacity="1.000000" fill-rule="evenodd"/>
</svg>
