<svg width="56.000000" height="56.000000" viewBox="0 0 56 56" fill="none" xmlns="http://www.w3.org/2000/svg" xmlns:xlink="http://www.w3.org/1999/xlink">
	<desc>
			Created with Pixso.
	</desc>
	<defs>
		<clipPath id="clip492_2070">
			<rect id="Website _1" rx="-0.500000" width="55.000000" height="55.000000" transform="translate(0.500000 0.500000)" fill="white" fill-opacity="0"/>
		</clipPath>
	</defs>
	<rect id="Website _1" rx="-0.500000" width="55.000000" height="55.000000" transform="translate(0.500000 0.500000)" fill="#FFFFFF" fill-opacity="0"/>
	<g clip-path="url(#clip492_2070)">
		<path id="Vector" d="M14.83 23.85C14.83 24.51 14.27 25.09 13.59 25.09C12.92 25.09 12.35 24.51 12.35 23.85C12.45 23.18 12.92 22.6 13.59 22.6C14.27 22.6 14.83 23.18 14.83 23.85Z" fill="#D10505" fill-opacity="1.000000" fill-rule="nonzero"/>
		<path id="Vector" d="M18.47 23.85C18.47 24.53 17.91 25.09 17.23 25.09C16.54 25.09 15.99 24.53 15.99 23.85C15.99 23.16 16.54 22.6 17.23 22.6C17.91 22.6 18.47 23.16 18.47 23.85Z" fill="#D10505" fill-opacity="1.000000" fill-rule="evenodd"/>
		<path id="Vector" d="M11.21 9.54L18.38 9.54L18.38 11.92L11.21 11.92L11.21 9.54Z" fill="#D10505" fill-opacity="1.000000" fill-rule="evenodd"/>
		<path id="Vector" d="M22.01 23.85C22.01 24.51 21.44 25.09 20.77 25.09C20.11 25.09 19.52 24.51 19.52 23.85C19.62 23.18 20.1 22.6 20.77 22.6C21.44 22.6 22.01 23.18 22.01 23.85Z" fill="#D10505" fill-opacity="1.000000" fill-rule="nonzero"/>
		<path id="Vector" d="M25.65 23.85C25.65 24.51 25.07 25.09 24.4 25.09C23.73 25.09 23.16 24.42 23.16 23.85C23.16 23.18 23.74 22.6 24.4 22.6C25.06 22.6 25.65 23.18 25.65 23.85Z" fill="#D10505" fill-opacity="1.000000" fill-rule="nonzero"/>
		<path id="Vector" d="M18.38 11.92L25.56 11.92L25.56 14.31L18.38 14.31L18.38 11.92Z" fill="#D10505" fill-opacity="1.000000" fill-rule="evenodd"/>
		<path id="Vector" d="M43.53 9.44C42.97 8.87 42.2 8.58 41.43 8.58C40.66 8.58 39.9 8.87 39.33 9.44L31.3 17.45C31.19 17.55 31.19 17.64 31.1 17.74L28.13 23.18C27.85 23.65 27.94 24.23 28.32 24.61C28.62 24.89 28.9 24.99 29.18 24.99C29.38 24.99 29.57 24.99 29.76 24.8L35.22 21.84C35.31 21.84 35.41 21.75 35.5 21.65L43.53 13.64C44.11 13.06 44.4 12.3 44.4 11.54C44.4 10.78 44.11 10.01 43.53 9.44ZM41.91 12.02L33.97 19.93L32.15 20.89L33.1 19.08L41.15 11.25C41.24 11.06 41.43 11.06 41.53 11.06C41.62 11.06 41.72 11.06 41.91 11.25C42.01 11.35 42.1 11.54 42.1 11.63C42.1 11.73 42.01 11.92 41.91 12.02Z" fill="#D10505" fill-opacity="1.000000" fill-rule="nonzero"/>
		<path id="Vector" d="M49.46 4.67L6.42 4.67C5.75 4.67 5.17 5.24 5.17 5.91L5.17 28.52C5.17 29.19 5.75 29.76 6.42 29.76L49.46 29.76C50.14 29.76 50.71 29.19 50.71 28.62L50.71 5.91C50.71 5.24 50.14 4.67 49.46 4.67ZM48.32 27.37L7.66 27.37L7.66 7.15L48.32 7.15L48.32 27.37Z" fill="#D10505" fill-opacity="1.000000" fill-rule="nonzero"/>
		<path id="Vector" d="M49.85 1.14L6.04 1.14C3.65 1.14 1.64 3.05 1.64 5.53L1.64 29C1.64 31.38 3.56 33.39 6.04 33.39L49.85 33.39C52.24 33.39 54.25 31.48 54.25 29L54.25 5.53C54.25 3.05 52.33 1.14 49.85 1.14ZM53 28.9C53 30.62 51.58 32.05 49.85 32.05L20.77 32.05C20.5 32.05 20.22 32.08 19.95 32.14L6.04 32.14C4.31 32.14 2.88 30.71 2.88 29L2.88 5.53C2.88 3.81 4.31 2.38 6.04 2.38L49.85 2.38C51.58 2.38 53 3.81 53 5.53L53 28.9Z" fill="#D10505" fill-opacity="1.000000" fill-rule="nonzero"/>
		<path id="Vector" d="M14.83 23.85C14.83 24.51 14.27 25.09 13.59 25.09C12.92 25.09 12.35 24.51 12.35 23.85C12.45 23.18 12.92 22.6 13.59 22.6C14.27 22.6 14.83 23.18 14.83 23.85Z" fill="#D10505" fill-opacity="1.000000" fill-rule="nonzero"/>
		<path id="Vector" d="M18.47 23.85C18.47 24.53 17.91 25.09 17.23 25.09C16.54 25.09 15.99 24.53 15.99 23.85C15.99 23.16 16.54 22.6 17.23 22.6C17.91 22.6 18.47 23.16 18.47 23.85Z" fill="#D10505" fill-opacity="1.000000" fill-rule="evenodd"/>
		<path id="Vector" d="M11.21 9.54L18.38 9.54L18.38 11.92L11.21 11.92L11.21 9.54Z" fill="#D10505" fill-opacity="1.000000" fill-rule="evenodd"/>
		<path id="Vector" d="M22.01 23.85C22.01 24.51 21.44 25.09 20.77 25.09C20.11 25.09 19.52 24.51 19.52 23.85C19.62 23.18 20.1 22.6 20.77 22.6C21.44 22.6 22.01 23.18 22.01 23.85Z" fill="#D10505" fill-opacity="1.000000" fill-rule="nonzero"/>
		<path id="Vector" d="M25.65 23.85C25.65 24.51 25.07 25.09 24.4 25.09C23.73 25.09 23.16 24.42 23.16 23.85C23.16 23.18 23.74 22.6 24.4 22.6C25.06 22.6 25.65 23.18 25.65 23.85Z" fill="#D10505" fill-opacity="1.000000" fill-rule="nonzero"/>
		<path id="Vector" d="M18.38 11.92L25.56 11.92L25.56 14.31L18.38 14.31L18.38 11.92Z" fill="#D10505" fill-opacity="1.000000" fill-rule="evenodd"/>
		<path id="Vector" d="M43.53 9.44C42.97 8.87 42.2 8.58 41.43 8.58C40.66 8.58 39.9 8.87 39.33 9.44L31.3 17.45C31.19 17.55 31.19 17.64 31.1 17.74L28.13 23.18C27.85 23.65 27.94 24.23 28.32 24.61C28.62 24.89 28.9 24.99 29.18 24.99C29.38 24.99 29.57 24.99 29.76 24.8L35.22 21.84C35.31 21.84 35.41 21.75 35.5 21.65L43.53 13.64C44.11 13.06 44.4 12.3 44.4 11.54C44.4 10.78 44.11 10.01 43.53 9.44ZM41.91 12.02L33.97 19.93L32.15 20.89L33.1 19.08L41.15 11.25C41.24 11.06 41.43 11.06 41.53 11.06C41.62 11.06 41.72 11.06 41.91 11.25C42.01 11.35 42.1 11.54 42.1 11.63C42.1 11.73 42.01 11.92 41.91 12.02Z" fill="#D10505" fill-opacity="1.000000" fill-rule="nonzero"/>
		<path id="Vector" d="M6.42 5.91L6.42 28.62L49.46 28.62L49.46 5.91L6.42 5.91ZM48.32 27.37L7.66 27.37L7.66 7.15L48.32 7.15L48.32 27.37Z" fill="#D10505" fill-opacity="1.000000" fill-rule="nonzero"/>
		<path id="Vector" d="M42.67 10.3C42.01 9.63 40.85 9.63 40.19 10.39L32.15 18.41L29.18 23.85L34.64 20.89L42.67 12.78C43.06 12.49 43.25 12.02 43.25 11.54C43.25 11.06 43.06 10.68 42.67 10.3ZM41.91 12.02L33.97 19.93L32.15 20.89L33.11 19.08L41.15 11.25C41.24 11.06 41.43 11.06 41.53 11.06C41.62 11.06 41.72 11.06 41.91 11.25C42.01 11.35 42.1 11.54 42.1 11.63C42.1 11.73 42.01 11.92 41.91 12.02Z" fill="#D10505" fill-opacity="1.000000" fill-rule="nonzero"/>
		<path id="Vector" d="M7.66 45.31L10.05 45.31L10.05 47.7L7.66 47.7L7.66 45.31Z" fill="#D10505" fill-opacity="1.000000" fill-rule="evenodd"/>
		<path id="Vector" d="M7.66 48.84L10.05 48.84L10.05 51.23L7.66 51.23L7.66 48.84Z" fill="#D10505" fill-opacity="1.000000" fill-rule="evenodd"/>
		<path id="Vector" d="M12.45 45.31L14.83 45.31L14.83 47.7L12.45 47.7L12.45 45.31Z" fill="#D10505" fill-opacity="1.000000" fill-rule="evenodd"/>
		<path id="Vector" d="M12.45 48.84L14.83 48.84L14.83 51.23L12.45 51.23L12.45 48.84Z" fill="#D10505" fill-opacity="1.000000" fill-rule="evenodd"/>
		<path id="Vector" d="M17.23 45.31L19.62 45.31L19.62 47.7L17.23 47.7L17.23 45.31Z" fill="#D10505" fill-opacity="1.000000" fill-rule="evenodd"/>
		<path id="Vector" d="M22.01 45.31L24.4 45.31L24.4 47.7L22.01 47.7L22.01 45.31Z" fill="#D10505" fill-opacity="1.000000" fill-rule="evenodd"/>
		<path id="Vector" d="M26.8 45.31L29.18 45.31L29.18 47.7L26.8 47.7L26.8 45.31Z" fill="#D10505" fill-opacity="1.000000" fill-rule="evenodd"/>
		<path id="Vector" d="M17.23 48.84L29.18 48.84L29.18 51.23L17.23 51.23L17.23 48.84Z" fill="#D10505" fill-opacity="1.000000" fill-rule="evenodd"/>
		<path id="Vector" d="M31.58 45.31L33.97 45.31L33.97 47.7L31.58 47.7L31.58 45.31Z" fill="#D10505" fill-opacity="1.000000" fill-rule="evenodd"/>
		<path id="Vector" d="M31.58 48.84L33.97 48.84L33.97 51.23L31.58 51.23L31.58 48.84Z" fill="#D10505" fill-opacity="1.000000" fill-rule="evenodd"/>
		<path id="Vector" d="M36.36 45.31L38.75 45.31L38.75 47.7L36.36 47.7L36.36 45.31Z" fill="#D10505" fill-opacity="1.000000" fill-rule="evenodd"/>
		<path id="Vector" d="M36.36 48.84L38.75 48.84L38.75 51.23L36.36 51.23L36.36 48.84Z" fill="#D10505" fill-opacity="1.000000" fill-rule="evenodd"/>
		<path id="Vector" d="M41.15 45.31L43.53 45.31L43.53 47.7L41.15 47.7L41.15 45.31Z" fill="#D10505" fill-opacity="1.000000" fill-rule="evenodd"/>
		<path id="Vector" d="M41.15 48.84L43.53 48.84L43.53 51.23L41.15 51.23L41.15 48.84Z" fill="#D10505" fill-opacity="1.000000" fill-rule="evenodd"/>
		<path id="Vector" d="M45.93 45.31L48.32 45.31L48.32 47.7L45.93 47.7L45.93 45.31Z" fill="#D10505" fill-opacity="1.000000" fill-rule="evenodd"/>
		<path id="Vector" d="M45.93 48.84L48.32 48.84L48.32 51.23L45.93 51.23L45.93 48.84Z" fill="#D10505" fill-opacity="1.000000" fill-rule="evenodd"/>
		<path id="Vector" d="M49.76 41.68L6.23 41.68C4.99 41.68 4.03 42.64 4.03 43.88L4.03 52.75C4.03 53.9 4.99 54.95 6.23 54.95L49.76 54.95C50.9 54.95 51.95 53.99 51.95 52.75L51.95 43.88C51.86 42.64 50.9 41.68 49.76 41.68ZM50.71 52.75C50.71 53.32 50.32 53.71 49.76 53.71L6.23 53.71C5.66 53.71 5.27 53.32 5.27 52.75L5.27 43.88C5.27 43.31 5.66 42.93 6.23 42.93L49.76 42.93C50.32 42.93 50.71 43.31 50.71 43.88L50.71 52.75Z" fill="#D10505" fill-opacity="1.000000" fill-rule="nonzero"/>
		<path id="Vector" d="M37.17 34.53C36.75 33.84 35.99 33.39 35.11 33.39L20.77 33.39C20.1 33.39 19.52 33.58 19.05 34.05C18.91 34.23 18.77 34.43 18.67 34.63C18.49 34.97 18.38 35.35 18.38 35.77C18.38 37.11 19.43 38.16 20.77 38.16L35.11 38.16C35.78 38.16 36.46 37.96 36.83 37.49C37.22 37.01 37.51 36.44 37.51 35.77C37.51 35.31 37.39 34.89 37.17 34.53ZM35.97 36.63C35.69 36.91 35.41 37.01 35.11 37.01L20.77 37.01C20.1 37.01 19.52 36.44 19.52 35.77C19.52 35.39 19.71 35.1 19.91 34.91C20.04 34.78 20.18 34.68 20.32 34.63L20.77 34.63C20.93 34.63 21.09 34.59 21.25 34.53L35.11 34.53C35.78 34.53 36.36 35.1 36.36 35.77C36.36 36.15 36.17 36.44 35.97 36.63Z" fill="#D10505" fill-opacity="1.000000" fill-rule="nonzero"/>
		<path id="Vector" d="M45.93 48.84L48.32 48.84L48.32 51.23L45.93 51.23L45.93 48.84Z" fill="#D10505" fill-opacity="1.000000" fill-rule="evenodd"/>
		<path id="Vector" d="M45.93 45.31L48.32 45.31L48.32 47.7L45.93 47.7L45.93 45.31Z" fill="#D10505" fill-opacity="1.000000" fill-rule="evenodd"/>
		<path id="Vector" d="M41.15 48.84L43.53 48.84L43.53 51.23L41.15 51.23L41.15 48.84Z" fill="#D10505" fill-opacity="1.000000" fill-rule="evenodd"/>
		<path id="Vector" d="M41.15 45.31L43.53 45.31L43.53 47.7L41.15 47.7L41.15 45.31Z" fill="#D10505" fill-opacity="1.000000" fill-rule="evenodd"/>
		<path id="Vector" d="M36.36 48.84L38.75 48.84L38.75 51.23L36.36 51.23L36.36 48.84Z" fill="#D10505" fill-opacity="1.000000" fill-rule="evenodd"/>
		<path id="Vector" d="M36.36 45.31L38.75 45.31L38.75 47.7L36.36 47.7L36.36 45.31Z" fill="#D10505" fill-opacity="1.000000" fill-rule="evenodd"/>
		<path id="Vector" d="M31.58 48.84L33.97 48.84L33.97 51.23L31.58 51.23L31.58 48.84Z" fill="#D10505" fill-opacity="1.000000" fill-rule="evenodd"/>
		<path id="Vector" d="M31.58 45.31L33.97 45.31L33.97 47.7L31.58 47.7L31.58 45.31Z" fill="#D10505" fill-opacity="1.000000" fill-rule="evenodd"/>
		<path id="Vector" d="M17.23 48.84L29.18 48.84L29.18 51.23L17.23 51.23L17.23 48.84Z" fill="#D10505" fill-opacity="1.000000" fill-rule="evenodd"/>
		<path id="Vector" d="M26.8 45.31L29.18 45.31L29.18 47.7L26.8 47.7L26.8 45.31Z" fill="#D10505" fill-opacity="1.000000" fill-rule="evenodd"/>
		<path id="Vector" d="M18.38 11.92L25.56 11.92L25.56 14.31L18.38 14.31L18.38 11.92Z" fill="#D10505" fill-opacity="1.000000" fill-rule="evenodd"/>
		<path id="Vector" d="M25.65 23.85C25.65 24.51 25.07 25.09 24.4 25.09C23.73 25.09 23.16 24.42 23.16 23.85C23.16 23.18 23.74 22.6 24.4 22.6C25.06 22.6 25.65 23.18 25.65 23.85Z" fill="#D10505" fill-opacity="1.000000" fill-rule="evenodd"/>
		<path id="Vector" d="M22.01 45.31L24.4 45.31L24.4 47.7L22.01 47.7L22.01 45.31Z" fill="#D10505" fill-opacity="1.000000" fill-rule="evenodd"/>
		<path id="Vector" d="M22.01 23.85C22.01 24.51 21.44 25.09 20.77 25.09C20.11 25.09 19.52 24.51 19.52 23.85C19.62 23.18 20.1 22.6 20.77 22.6C21.44 22.6 22.01 23.18 22.01 23.85Z" fill="#D10505" fill-opacity="1.000000" fill-rule="evenodd"/>
		<path id="Vector" d="M17.23 45.31L19.62 45.31L19.62 47.7L17.23 47.7L17.23 45.31Z" fill="#D10505" fill-opacity="1.000000" fill-rule="evenodd"/>
		<path id="Vector" d="M11.21 9.54L18.38 9.54L18.38 11.92L11.21 11.92L11.21 9.54Z" fill="#D10505" fill-opacity="1.000000" fill-rule="evenodd"/>
		<path id="Vector" d="M18.47 23.85C18.47 24.53 17.91 25.09 17.23 25.09C16.54 25.09 15.99 24.53 15.99 23.85C15.99 23.16 16.54 22.6 17.23 22.6C17.91 22.6 18.47 23.16 18.47 23.85Z" fill="#D10505" fill-opacity="1.000000" fill-rule="evenodd"/>
		<path id="Vector" d="M12.45 48.84L14.83 48.84L14.83 51.23L12.45 51.23L12.45 48.84Z" fill="#D10505" fill-opacity="1.000000" fill-rule="evenodd"/>
		<path id="Vector" d="M12.45 45.31L14.83 45.31L14.83 47.7L12.45 47.7L12.45 45.31Z" fill="#D10505" fill-opacity="1.000000" fill-rule="evenodd"/>
		<path id="Vector" d="M14.83 23.85C14.83 24.51 14.27 25.09 13.59 25.09C12.92 25.09 12.35 24.51 12.35 23.85C12.45 23.18 12.92 22.6 13.59 22.6C14.27 22.6 14.83 23.18 14.83 23.85Z" fill="#D10505" fill-opacity="1.000000" fill-rule="evenodd"/>
		<path id="Vector" d="M7.66 48.84L10.05 48.84L10.05 51.23L7.66 51.23L7.66 48.84Z" fill="#D10505" fill-opacity="1.000000" fill-rule="evenodd"/>
		<path id="Vector" d="M7.66 45.31L10.05 45.31L10.05 47.7L7.66 47.7L7.66 45.31Z" fill="#D10505" fill-opacity="1.000000" fill-rule="evenodd"/>
		<path id="Vector" d="M55.5 5.53L55.5 29C55.5 32.05 52.91 34.53 49.85 34.53L35.11 34.53C34.48 34.53 33.93 34.01 33.88 33.39C33.87 33.36 33.87 33.32 33.87 33.29C33.87 32.62 34.45 32.05 35.11 32.05L49.85 32.05C51.57 32.05 53 30.62 53 28.9L53 5.53C53 3.81 51.57 2.38 49.85 2.38L6.04 2.38C4.31 2.38 2.88 3.81 2.88 5.53L2.88 29C2.88 30.71 4.31 32.14 6.04 32.14L20.77 32.14C21.44 32.14 22.01 32.72 22.01 33.39C22.01 33.88 21.69 34.33 21.25 34.53C21.09 34.59 20.93 34.63 20.77 34.63L6.04 34.63C2.98 34.63 0.5 32.14 0.5 29.09L0.5 5.53C0.5 2.48 2.98 0 6.04 0L49.94 0C53 0 55.5 2.48 55.5 5.53Z" fill="#D10505" fill-opacity="1.000000" fill-rule="evenodd"/>
		<path id="Vector" d="M49.46 4.67L6.42 4.67C5.75 4.67 5.17 5.24 5.17 5.91L5.17 28.52C5.17 29.19 5.75 29.76 6.42 29.76L49.46 29.76C50.14 29.76 50.71 29.19 50.71 28.62L50.71 5.91C50.71 5.24 50.14 4.67 49.46 4.67ZM48.32 27.37L7.66 27.37L7.66 7.15L48.32 7.15L48.32 27.37Z" fill="#D10505" fill-opacity="1.000000" fill-rule="evenodd"/>
		<path id="Vector" d="M49.75 40.44L6.23 40.44C4.42 40.44 2.88 41.97 2.88 43.78L2.88 52.66C2.88 54.47 4.42 56 6.23 56L49.75 56C51.57 56 53.1 54.47 53.1 52.66L53.1 43.78C53.1 41.97 51.57 40.44 49.75 40.44ZM5.27 52.75L5.27 43.88C5.27 43.31 5.66 42.93 6.23 42.93L49.75 42.93C50.32 42.93 50.71 43.31 50.71 43.88L50.71 52.75C50.71 53.32 50.32 53.71 49.75 53.71L6.23 53.71C5.66 53.71 5.27 53.32 5.27 52.75Z" fill="#D10505" fill-opacity="1.000000" fill-rule="evenodd"/>
		<path id="Vector" d="M38.56 34.53C38.43 34.11 38.21 33.72 37.95 33.39C37.27 32.57 36.26 32.05 35.11 32.05L20.77 32.05C20.5 32.05 20.22 32.08 19.95 32.14C19.29 32.3 18.66 32.62 18.19 33.1C18.1 33.19 18.03 33.29 17.95 33.39C17.66 33.78 17.43 34.19 17.3 34.63C17.19 34.96 17.14 35.31 17.14 35.67C17.14 37.68 18.76 39.3 20.77 39.3L35.11 39.3C36.07 39.3 37.03 39.01 37.7 38.25C38.37 37.49 38.75 36.63 38.75 35.67C38.75 35.27 38.68 34.89 38.56 34.53ZM36.36 35.77C36.36 36.15 36.17 36.44 35.98 36.63C35.69 36.91 35.41 37.01 35.11 37.01L20.77 37.01C20.1 37.01 19.52 36.44 19.52 35.77C19.52 35.39 19.71 35.1 19.91 34.91C20.05 34.78 20.19 34.68 20.32 34.63C20.47 34.56 20.62 34.53 20.77 34.53L35.11 34.53C35.79 34.53 36.36 35.1 36.36 35.77Z" fill="#D10505" fill-opacity="1.000000" fill-rule="evenodd"/>
		<path id="Vector" d="M43.53 9.44C42.97 8.87 42.2 8.58 41.43 8.58C40.66 8.58 39.9 8.87 39.33 9.44L31.3 17.45C31.19 17.55 31.19 17.64 31.1 17.74L28.13 23.18C27.85 23.65 27.94 24.23 28.32 24.61C28.62 24.89 28.9 24.99 29.18 24.99C29.38 24.99 29.57 24.99 29.76 24.8L35.22 21.84C35.31 21.84 35.41 21.75 35.5 21.65L43.53 13.64C44.11 13.06 44.4 12.3 44.4 11.54C44.4 10.78 44.11 10.01 43.53 9.44ZM41.91 12.02L33.97 19.93L32.15 20.89L33.1 19.08L41.15 11.25C41.24 11.06 41.43 11.06 41.53 11.06C41.62 11.06 41.72 11.06 41.91 11.25C42.01 11.35 42.1 11.54 42.1 11.63C42.1 11.73 42.01 11.92 41.91 12.02Z" fill="#D10505" fill-opacity="1.000000" fill-rule="evenodd"/>
	</g>
</svg>
