<svg width="56.000000" height="56.000000" viewBox="0 0 56 56" fill="none" xmlns="http://www.w3.org/2000/svg" xmlns:xlink="http://www.w3.org/1999/xlink">
	<desc>
			Created with Pixso.
	</desc>
	<defs>
		<clipPath id="clip492_2381">
			<rect id="Contracts" rx="-0.500000" width="55.000000" height="55.000000" transform="translate(0.500000 0.500000)" fill="white" fill-opacity="0"/>
		</clipPath>
	</defs>
	<rect id="Contracts" rx="-0.500000" width="55.000000" height="55.000000" transform="translate(0.500000 0.500000)" fill="#FFFFFF" fill-opacity="0"/>
	<g clip-path="url(#clip492_2381)">
		<path id="Vector" d="M18.6 6.81C18.78 6.9 18.87 7.09 18.87 7.37C18.87 7.65 18.87 7.83 18.78 8.02C18.69 8.21 18.6 8.39 18.41 8.49C18.22 8.58 18.04 8.67 17.84 8.77C17.66 8.86 17.47 8.86 17.19 8.86L17.19 9.7L16.72 9.7L16.72 8.86C16.44 8.86 16.06 8.77 15.78 8.67C15.5 8.58 15.22 8.39 14.93 8.3L15.41 7.27C15.41 7.27 15.5 7.37 15.59 7.37C15.69 7.46 15.78 7.46 15.87 7.55C15.96 7.65 16.16 7.65 16.25 7.74C16.44 7.83 16.53 7.83 16.72 7.83L16.72 6.9L16.35 6.81C16.16 6.71 15.96 6.62 15.78 6.62C15.59 6.53 15.5 6.43 15.41 6.34C15.31 6.25 15.22 6.15 15.12 5.97C15.03 5.87 15.03 5.69 15.03 5.5C15.03 5.22 15.03 5.03 15.12 4.85C15.22 4.66 15.31 4.47 15.5 4.38C15.59 4.29 15.78 4.1 15.96 4.1C16.16 4.01 16.35 4.01 16.62 3.91L16.62 3.26L17.1 3.26L17.1 3.91C17.38 3.91 17.66 4.01 17.94 4.1C18.22 4.19 18.41 4.29 18.6 4.38L18.13 5.31L18.04 5.22C17.94 5.22 17.84 5.13 17.75 5.13C17.66 5.13 17.56 5.03 17.38 5.03C17.28 5.03 17.1 4.94 17 4.94L17 5.87L17.19 5.97C17.47 6.06 17.66 6.06 17.84 6.15C18.04 6.25 18.22 6.34 18.32 6.43C18.41 6.53 18.5 6.71 18.6 6.81Z" fill="#D10505" fill-opacity="1.000000" fill-rule="nonzero"/>
		<path id="Vector" d="M16.9 1.21C14 1.21 11.65 3.55 11.65 6.44C11.65 9.32 14 11.66 16.9 11.66C19.8 11.66 22.16 9.32 22.16 6.44C22.16 3.55 19.81 1.21 16.9 1.21ZM16.9 10.54C14.65 10.54 12.77 8.68 12.77 6.44C12.77 4.2 14.65 2.33 16.9 2.33C19.15 2.33 21.04 4.2 21.04 6.44C21.04 8.68 19.16 10.54 16.9 10.54Z" fill="#D10505" fill-opacity="1.000000" fill-rule="nonzero"/>
		<path id="Vector" d="M37.47 10.26C37.56 10.45 37.56 10.64 37.56 10.82C37.56 11.1 37.56 11.29 37.47 11.48C37.38 11.66 37.28 11.85 37.1 11.94C36.9 12.03 36.72 12.13 36.53 12.22C36.34 12.31 36.16 12.31 35.87 12.31L35.87 13.15L35.41 13.15L35.41 12.31C35.13 12.31 34.75 12.22 34.47 12.13C34.19 12.03 33.9 11.85 33.62 11.76L34.19 10.73C34.19 10.73 34.28 10.82 34.37 10.82C34.47 10.91 34.56 10.91 34.65 11.01C34.75 11.1 34.93 11.1 35.03 11.2C35.22 11.29 35.31 11.29 35.5 11.29L35.5 10.36L35.22 10.26C35.03 10.17 34.84 10.08 34.65 10.08C34.47 9.98 34.37 9.89 34.28 9.79C34.19 9.7 34.08 9.61 33.99 9.42C33.9 9.33 33.9 9.14 33.9 8.95C33.9 8.67 33.9 8.49 33.99 8.3C34.08 8.12 34.19 7.93 34.37 7.83C34.47 7.74 34.65 7.55 34.84 7.55C35.03 7.46 35.22 7.46 35.5 7.37L35.5 6.71L35.96 6.71L35.96 7.37C36.25 7.37 36.53 7.46 36.81 7.55C37.1 7.65 37.28 7.74 37.47 7.83L37 8.77L36.9 8.67C36.81 8.67 36.72 8.58 36.62 8.58C36.53 8.49 36.44 8.49 36.25 8.49C36.16 8.49 35.96 8.4 35.87 8.4L35.87 9.33L36.07 9.42C36.34 9.52 36.53 9.52 36.72 9.61C36.9 9.7 37.1 9.79 37.19 9.89C37.28 9.98 37.38 10.17 37.47 10.26Z" fill="#D10505" fill-opacity="1.000000" fill-rule="nonzero"/>
		<path id="Vector" d="M35.68 4.66C32.77 4.66 30.43 7 30.43 9.89C30.43 12.58 32.45 14.78 35.07 15.08C35.27 15.11 35.48 15.12 35.68 15.12C36.82 15.12 37.88 14.76 38.73 14.14C40.07 13.2 40.95 11.65 40.95 9.89C40.95 7 38.59 4.66 35.68 4.66ZM35.68 14.09C33.43 14.09 31.56 12.22 31.56 9.98C31.56 7.74 33.43 5.88 35.68 5.88C37.93 5.88 39.82 7.74 39.82 9.98C39.82 12.22 37.94 14.09 35.68 14.09Z" fill="#D10505" fill-opacity="1.000000" fill-rule="nonzero"/>
		<path id="Vector" d="M47.23 27.25C47.8 27.81 47.8 28.65 47.23 29.3C46.95 29.58 46.58 29.77 46.2 29.77C45.82 29.77 45.46 29.67 45.17 29.39C44.61 28.83 44.61 27.9 45.17 27.34C45.17 27.25 45.26 27.25 45.26 27.25C45.55 26.97 45.83 26.87 46.2 26.87C46.57 26.87 46.95 26.97 47.23 27.25Z" fill="#D10505" fill-opacity="1.000000" fill-rule="nonzero"/>
		<path id="Vector" d="M49.95 25.57L40.85 16.52C40.29 15.96 39.61 15.61 38.88 15.48C37.75 15.25 36.51 15.53 35.54 16.32C35.46 16.38 35.39 16.44 35.31 16.52L32.33 19.47L31.65 20.16L32.11 20.62L35.31 23.8L36.09 24.57L41.76 30.21L42.64 31.08L44.22 32.65L44.25 32.67L45.05 33.48L45.07 33.5L46.13 34.56L46.29 34.72L49.95 31.08C51.46 29.58 51.46 27.16 49.95 25.57ZM49.11 30.24L46.33 33C46.25 32.79 46.13 32.6 46.01 32.48L43.58 30.05C43.4 29.87 43.18 29.76 42.95 29.71L33.34 20.16L36.25 17.45C36.71 16.98 37.37 16.7 38.13 16.7C38.78 16.7 39.53 16.98 40 17.45L49.11 26.5C49.58 26.97 49.86 27.62 49.86 28.37C49.86 29.02 49.58 29.77 49.11 30.24Z" fill="#D10505" fill-opacity="1.000000" fill-rule="nonzero"/>
		<path id="Vector" d="M7.99 28.55C8.27 28.84 8.45 29.21 8.45 29.58C8.45 29.96 8.27 30.33 7.99 30.61C7.71 30.89 7.33 31.08 6.96 31.08C6.58 31.08 6.2 30.89 5.92 30.61C5.64 30.33 5.45 29.96 5.45 29.58C5.45 29.21 5.64 28.84 5.92 28.55C6.2 28.27 6.58 28.09 6.96 28.09C7.34 28.09 7.71 28.27 7.99 28.55Z" fill="#D10505" fill-opacity="1.000000" fill-rule="nonzero"/>
		<path id="Vector" d="M17.84 17.64C16.35 16.14 13.9 16.14 12.3 17.64L3.11 26.78C1.6 28.28 1.6 30.7 3.11 32.2L6.17 35.24L6.77 35.84L7.24 35.37L8.07 34.53L14.57 28L14.61 27.96L15.39 27.17L15.41 27.16C15.32 27.08 15.23 27.01 15.15 26.92C15.07 26.84 15.01 26.74 14.94 26.66C14.91 26.61 14.88 26.56 14.85 26.5C14.81 26.46 14.78 26.4 14.77 26.34C14.74 26.3 14.73 26.25 14.71 26.19C14.71 26.18 14.7 26.18 14.7 26.16C14.68 26.1 14.67 26.04 14.66 25.98C14.66 25.9 14.65 25.83 14.65 25.76C14.64 25.66 14.64 25.57 14.66 25.48C14.71 25.14 14.89 24.79 15.21 24.47C15.41 24.25 15.68 24.04 16 23.84C16.84 23.35 18.08 22.96 19.82 22.77L20.29 22.4L20.57 22.12L21 21.65L21.51 21.09L17.84 17.64ZM13.44 25.38C13.41 25.61 13.44 25.81 13.52 26C13.56 26.38 13.71 26.77 13.9 27.16L6.86 34.25L4.05 31.45C3.01 30.42 3.01 28.65 4.05 27.62L13.24 18.48C13.72 17.92 14.38 17.64 15.12 17.64C15.86 17.64 16.53 17.92 17.1 18.29L19.91 21.09L19.72 21.28L19.44 21.56C19.35 21.56 19.35 21.65 19.35 21.65L19.28 21.78C14.34 22.4 13.53 24.47 13.44 25.38Z" fill="#D10505" fill-opacity="1.000000" fill-rule="nonzero"/>
		<path id="Vector" d="M32.02 47.97L31.3 47.25L29.96 45.91C30.11 46.06 30.23 46.22 30.33 46.38C30.94 47.35 30.77 48.58 29.97 49.45L29.95 49.47C29.57 49.82 29.14 50.04 28.7 50.14C28.56 50.18 28.42 50.21 28.28 50.22C28.14 50.24 28 50.24 27.85 50.22C27.29 50.16 26.75 49.91 26.29 49.46L23.66 46.85C23.75 46.94 23.81 47.04 23.88 47.15L23.89 47.15C24.39 47.9 24.49 48.79 24.18 49.56C24.09 49.82 23.95 50.06 23.77 50.27C23.7 50.35 23.64 50.42 23.57 50.49L23.48 50.58C23.29 50.77 23.11 50.96 22.83 51.05C22.6 51.42 22.49 51.85 22.5 52.28C22.5 52.49 22.54 52.71 22.58 52.91C22.71 53.36 22.95 53.78 23.29 54.13C23.77 54.6 24.42 54.87 25.08 54.87C25.74 54.87 26.39 54.6 26.86 54.13L29.99 50.92L30 50.92L31.42 49.45C31.42 49.45 31.43 49.44 31.43 49.43L31.63 49.23L32.46 48.38L32.5 48.34C32.4 48.34 32.22 48.15 32.02 47.97ZM26.2 53.2C25.92 53.38 25.54 53.57 25.17 53.57C24.8 53.57 24.42 53.48 24.14 53.2C23.77 52.82 23.57 52.26 23.77 51.79C23.86 51.79 23.86 51.7 23.95 51.7C24.14 51.61 24.23 51.51 24.32 51.42C24.43 51.31 24.53 51.19 24.58 51.06C24.58 51.06 24.58 51.05 24.59 51.05C24.83 50.76 25.03 50.47 25.17 50.11L25.45 50.39C26.14 51.08 27.05 51.42 27.97 51.44L26.2 53.2Z" fill="#D10505" fill-opacity="1.000000" fill-rule="nonzero"/>
		<path id="Vector" d="M21.47 51.23C21.2 51.21 20.93 51.13 20.68 51.02C20.63 51 20.58 50.97 20.52 50.95C20.3 50.82 20.09 50.68 19.91 50.49L19.2 49.73L17.38 47.78L11.6 42.04L10.81 41.25L10.71 41.34L9.95 42.08L5.08 46.85C4.05 47.88 4.05 49.46 5.08 50.49C6.11 51.52 7.71 51.52 8.74 50.49L11.18 48.06C10.15 49.09 10.15 50.58 11.18 51.61C11.65 52.08 12.3 52.36 12.96 52.36C13.62 52.36 14.28 52.08 14.75 51.61L16.81 49.56C15.78 50.58 15.87 52.08 16.81 53.1C17.38 53.57 18.04 53.85 18.69 53.85C19.34 53.85 20.01 53.57 20.47 53.1L21.28 52.33L21.35 52.27L22.63 51.05C22.25 51.2 21.86 51.26 21.47 51.23ZM16.16 48.62L14.09 50.68C13.81 50.86 13.53 51.05 13.06 51.05C12.58 51.05 12.3 50.96 12.02 50.68C11.47 50.21 11.47 49.37 12.02 48.81C12.5 48.34 12.5 47.6 12.02 47.13C11.56 46.66 10.81 46.66 10.33 47.13L7.9 49.56C7.33 50.12 6.48 50.12 5.92 49.56C5.36 49 5.36 48.16 5.92 47.6L10.75 42.87L16.37 48.46C16.3 48.5 16.23 48.56 16.16 48.62ZM19.81 52.17C19.53 52.45 19.16 52.54 18.87 52.54C18.5 52.54 18.13 52.45 17.84 52.17C17.6 51.93 17.46 51.58 17.46 51.23C17.46 50.9 17.57 50.57 17.84 50.3C17.9 50.25 17.94 50.19 17.99 50.12L19.07 51.24C19.35 51.55 19.69 51.8 20.08 51.98L19.81 52.17Z" fill="#D10505" fill-opacity="1.000000" fill-rule="nonzero"/>
		<path id="Vector" d="M44.25 32.67L44.22 32.65L42.44 31.08L41.69 30.33L36.01 24.67L35.13 23.8L31.65 20.34L30.75 20.83L30.62 20.9C25.33 18.22 24.4 22.28 21.63 22.72C21.5 22.75 21.37 22.77 21.23 22.77C20.75 22.77 20.29 22.77 19.81 22.86L19.81 22.96C18.08 23.14 16.84 23.52 16 23.98C15.71 24.14 15.48 24.32 15.28 24.5C14.92 24.83 14.72 25.2 14.65 25.57C14.64 25.63 14.64 25.69 14.64 25.76C14.64 25.83 14.65 25.9 14.66 25.98C14.67 26.04 14.68 26.1 14.7 26.16C14.7 26.18 14.71 26.18 14.71 26.19C14.73 26.25 14.74 26.3 14.76 26.34C14.78 26.4 14.81 26.46 14.85 26.5C14.87 26.56 14.9 26.61 14.93 26.66L14.94 26.66C15.01 26.74 15.07 26.84 15.15 26.92C15.21 27.01 15.29 27.09 15.39 27.17C15.49 27.26 15.6 27.34 15.72 27.43C15.72 27.44 15.72 27.44 15.72 27.44C15.83 27.51 15.95 27.58 16.05 27.62C16.13 27.67 16.23 27.72 16.33 27.75C16.34 27.76 16.35 27.76 16.37 27.77C16.52 27.84 16.67 27.89 16.82 27.94C16.93 27.98 17.03 28 17.15 28.03C17.26 28.06 17.39 28.09 17.51 28.11C17.66 28.13 17.8 28.15 17.96 28.16C18.44 28.21 18.93 28.21 19.44 28.16C19.7 28.14 19.97 28.11 20.24 28.07C20.58 28.01 20.91 27.96 21.25 27.88C21.59 27.81 21.93 27.73 22.28 27.65C22.96 27.47 23.66 27.29 24.34 27.1C24.61 27.02 24.89 26.95 25.16 26.88L38.87 40.5L39.62 41.25L40.46 40.43L44.13 36.86L44.7 34.72L45.05 33.48L45.07 33.41L44.24 32.67L44.25 32.67ZM43.1 36.12L39.72 39.48L26.11 25.94C25.83 25.66 25.35 25.57 24.98 25.66C24.6 25.76 24.23 25.85 23.86 25.94C22.04 26.44 20.22 26.94 18.72 26.94C17.96 26.94 17.28 26.81 16.72 26.5C16.56 26.44 16.42 26.36 16.32 26.29L16.31 26.29C16.31 26.29 16.27 26.23 16.25 26.23C16.25 26.23 16.21 26.19 16.2 26.18C16.16 26.16 16.13 26.13 16.1 26.1L16.05 26.04C15.98 25.97 15.94 25.9 15.91 25.83C15.89 25.8 15.88 25.76 15.88 25.74C15.87 25.71 15.87 25.69 15.87 25.66C15.88 25.59 15.91 25.51 15.96 25.44C15.96 25.43 15.97 25.42 15.99 25.41C16.47 24.98 17.57 24.42 19.81 24.17C20.19 24.17 20.66 24.08 21.13 24.08C22.63 24.08 23.66 23.33 24.6 22.58C26.01 21.56 27.14 20.62 30.05 22.12C30.43 22.3 30.8 22.3 31.17 22.12L31.46 21.93L34.28 24.73C34.48 24.93 34.75 25.05 35 25.07L43.73 33.74L43.1 36.12Z" fill="#D10505" fill-opacity="1.000000" fill-rule="nonzero"/>
		<path id="Vector" d="M22.72 49.65C22.63 49.65 22.63 49.74 22.54 49.74C22.54 49.83 22.44 49.83 22.44 49.83C22.33 49.87 22.23 49.93 22.15 49.99C22.25 49.98 22.35 49.97 22.44 49.93C22.53 49.9 22.61 49.88 22.7 49.87C22.75 49.84 22.8 49.8 22.83 49.74C22.92 49.65 23 49.54 23.07 49.42C22.95 49.47 22.83 49.55 22.72 49.65ZM41.7 43.21L40.52 42.1L39.63 41.25L38.88 40.5L25.17 26.87C24.9 26.95 24.62 27.02 24.35 27.1C23.67 27.29 22.97 27.47 22.29 27.65C21.94 27.73 21.6 27.81 21.26 27.88C20.92 27.96 20.58 28.01 20.25 28.07C19.98 28.11 19.71 28.13 19.45 28.16C18.94 28.2 18.45 28.21 17.97 28.16C17.81 28.15 17.66 28.13 17.52 28.11C17.4 28.09 17.27 28.06 17.15 28.03C17.04 28 16.94 27.98 16.83 27.94C16.68 27.89 16.53 27.84 16.38 27.77C16.36 27.76 16.35 27.76 16.34 27.75C16.24 27.71 16.14 27.67 16.06 27.62C15.96 27.57 15.84 27.51 15.73 27.43C15.73 27.43 15.73 27.43 15.73 27.43C15.62 27.36 15.51 27.29 15.41 27.25L14.63 28.04L8.14 34.57L7.24 35.46L7.57 36.63L8.18 38.82L9.83 40.45L10.63 41.25L10.72 41.34L11.52 42.13L17.2 47.78L19.15 49.8L19.82 50.49C20.04 50.67 20.28 50.83 20.53 50.95C20.58 50.97 20.64 51 20.69 51.02C20.95 51.12 21.22 51.19 21.49 51.21C21.55 51.22 21.61 51.22 21.67 51.22C21.96 51.22 22.26 51.16 22.55 51.05C22.61 50.99 22.67 50.95 22.73 50.95C22.83 50.95 23.02 50.86 23.11 50.77C23.21 50.77 23.3 50.67 23.39 50.58L23.49 50.49C23.57 50.4 23.65 50.31 23.72 50.22C23.9 50 24.02 49.77 24.12 49.52C24.44 48.61 24.26 47.59 23.58 46.85L23.89 47.15L23.9 47.15L26.21 49.46C26.68 49.93 27.26 50.18 27.85 50.22C28 50.24 28.14 50.24 28.29 50.22C28.43 50.21 28.57 50.18 28.71 50.14C29.13 50.02 29.53 49.8 29.87 49.46C30.81 48.43 30.91 46.94 29.87 45.91L30.34 46.38L31.27 47.31L31.94 47.97C32.1 48.13 32.28 48.27 32.47 48.38C32.87 48.61 33.31 48.73 33.76 48.73L33.77 48.73C34.43 48.73 35.08 48.48 35.6 47.97C36.63 46.94 36.63 45.45 35.6 44.42L38.05 46.85C39.08 47.87 40.67 47.87 41.71 46.85C42.74 45.82 42.74 44.23 41.71 43.21L41.7 43.21ZM40.95 46.1C40.67 46.38 40.31 46.52 39.96 46.52C39.61 46.52 39.25 46.38 38.98 46.1L36.53 43.67C36.07 43.21 35.31 43.21 34.84 43.67C34.37 44.14 34.37 44.89 34.84 45.35C35.41 45.82 35.41 46.66 34.84 47.22C34.49 47.58 34.02 47.71 33.58 47.61C33.49 47.49 33.37 47.4 33.25 47.31C33.25 47.31 33.16 47.22 33.05 47.13C32.88 46.95 32.66 46.84 32.44 46.79L30.8 45.17C30.34 44.7 29.58 44.7 29.11 45.17C28.83 45.45 28.74 45.73 28.74 46.01C28.74 46.29 28.92 46.66 29.11 46.85C29.68 47.41 29.58 48.25 29.11 48.71C28.55 49.27 27.71 49.27 27.14 48.71L24.51 46.1C24.14 45.73 23.38 45.63 22.92 46.1C22.44 46.47 22.44 47.22 22.83 47.69C23.1 48.01 23.24 48.39 23.24 48.75C23.24 48.99 23.19 49.22 23.07 49.42C22.95 49.47 22.83 49.55 22.72 49.65C22.63 49.65 22.63 49.74 22.54 49.74C22.54 49.83 22.44 49.83 22.44 49.83C22.33 49.87 22.23 49.93 22.15 49.99C21.76 50.03 21.32 49.85 20.95 49.55C20.78 49.41 20.59 49.32 20.41 49.28L18.22 47.03L11.94 40.79C11.88 40.62 11.79 40.45 11.65 40.31C11.51 40.17 11.34 40.08 11.17 40.03L9.39 38.26L8.58 35.6L15.54 28.62C15.54 28.62 15.57 28.64 15.59 28.65C18.13 29.95 21.41 29.11 24.41 28.27C24.6 28.27 24.7 28.18 24.89 28.18L38.65 41.85C38.71 41.98 38.78 42.08 38.88 42.18L40.95 44.14C41.5 44.7 41.5 45.54 40.95 46.1Z" fill="#D10505" fill-opacity="1.000000" fill-rule="nonzero"/>
		<path id="Vector" d="M51.65 15.21C51.56 15.12 51.46 14.93 51.37 14.84C51.28 14.74 51.08 14.65 50.9 14.56C50.71 14.46 50.52 14.46 50.25 14.37L50.05 14.28L50.05 13.34C50.14 13.34 50.34 13.44 50.43 13.44C50.62 13.44 50.71 13.44 50.8 13.53C50.9 13.53 50.99 13.62 51.08 13.62L51.18 13.72L51.65 12.78C51.46 12.69 51.28 12.6 50.99 12.5C50.71 12.41 50.43 12.32 50.14 12.32L50.14 11.66L49.68 11.66L49.68 12.32C49.4 12.41 49.21 12.41 49.02 12.5C48.83 12.5 48.65 12.69 48.55 12.78C48.37 12.88 48.26 13.06 48.17 13.25C48.08 13.44 48.08 13.62 48.08 13.9C48.08 14.09 48.08 14.28 48.17 14.37C48.26 14.56 48.37 14.65 48.46 14.74C48.55 14.84 48.65 14.93 48.83 15.02C49.02 15.02 49.21 15.12 49.4 15.21L49.77 15.3L49.77 16.24C49.58 16.24 49.49 16.24 49.31 16.14C49.21 16.05 49.02 16.05 48.92 15.96C48.83 15.86 48.74 15.86 48.65 15.77C48.55 15.77 48.46 15.68 48.46 15.68L47.99 16.7C48.26 16.79 48.55 16.98 48.83 17.08C49.11 17.17 49.49 17.26 49.77 17.26L49.77 18.1L50.25 18.1L50.25 17.26C50.52 17.26 50.71 17.26 50.9 17.17C51.08 17.17 51.28 17.08 51.28 16.89C51.46 16.79 51.56 16.61 51.65 16.42C51.74 16.24 51.74 16.05 51.74 15.77C51.74 15.58 51.74 15.4 51.65 15.21ZM49.86 14.18C49.68 14.18 49.58 14.09 49.49 14C49.4 13.9 49.4 13.81 49.4 13.72C49.4 13.53 49.58 13.34 49.86 13.34L49.86 14.18ZM50.14 16.33L50.14 15.49C50.34 15.58 50.43 15.58 50.52 15.68C50.62 15.77 50.71 15.86 50.71 15.96C50.71 16.24 50.52 16.33 50.14 16.33Z" fill="#D10505" fill-opacity="1.000000" fill-rule="evenodd"/>
		<path id="Vector" d="M37.47 10.26C37.38 10.17 37.28 9.98 37.19 9.89C37.1 9.79 36.9 9.7 36.72 9.61C36.53 9.52 36.34 9.52 36.07 9.42L35.87 9.33L35.87 8.4C35.96 8.4 36.16 8.49 36.25 8.49C36.44 8.49 36.53 8.49 36.62 8.58C36.72 8.58 36.81 8.67 36.9 8.67L37 8.77L37.47 7.83C37.28 7.74 37.1 7.65 36.81 7.55C36.53 7.46 36.25 7.37 35.96 7.37L35.96 6.71L35.5 6.71L35.5 7.37C35.22 7.46 35.03 7.46 34.84 7.55C34.65 7.55 34.47 7.74 34.37 7.83C34.19 7.93 34.08 8.12 33.99 8.3C33.9 8.49 33.9 8.67 33.9 8.95C33.9 9.14 33.9 9.33 33.99 9.42C34.08 9.61 34.19 9.7 34.28 9.79C34.37 9.89 34.47 9.98 34.65 10.08C34.84 10.08 35.03 10.17 35.22 10.26L35.5 10.36L35.5 11.29C35.31 11.29 35.22 11.29 35.03 11.2C34.93 11.1 34.75 11.1 34.65 11.01C34.56 10.91 34.47 10.91 34.37 10.82C34.28 10.82 34.19 10.73 34.19 10.73L33.62 11.76C33.9 11.85 34.19 12.03 34.47 12.13C34.75 12.22 35.13 12.31 35.41 12.31L35.41 13.15L35.87 13.15L35.87 12.31C36.16 12.31 36.34 12.31 36.53 12.22C36.72 12.13 36.9 12.03 37.1 11.94C37.28 11.85 37.38 11.66 37.47 11.48C37.56 11.29 37.56 11.1 37.56 10.82C37.56 10.64 37.56 10.45 37.47 10.26ZM35.59 9.23C35.41 9.14 35.31 9.14 35.22 9.05C35.13 8.95 35.13 8.86 35.13 8.77C35.13 8.58 35.31 8.4 35.59 8.4L35.59 9.23ZM35.87 11.38L35.87 10.54C36.07 10.54 36.16 10.64 36.25 10.73C36.34 10.82 36.44 10.91 36.44 11.01C36.44 11.29 36.25 11.38 35.87 11.38Z" fill="#D10505" fill-opacity="1.000000" fill-rule="evenodd"/>
		<path id="Vector" d="M18.6 6.81C18.5 6.71 18.41 6.53 18.32 6.43C18.22 6.34 18.04 6.25 17.84 6.15C17.66 6.06 17.47 6.06 17.19 5.97L17 5.87L17 4.94C17.1 4.94 17.28 5.03 17.38 5.03C17.56 5.03 17.66 5.13 17.75 5.13C17.84 5.13 17.94 5.22 18.04 5.22L18.13 5.31L18.6 4.38C18.41 4.29 18.22 4.19 17.94 4.1C17.66 4.01 17.38 3.91 17.1 3.91L17.1 3.26L16.62 3.26L16.62 3.91C16.35 4.01 16.16 4.01 15.96 4.1C15.78 4.1 15.59 4.29 15.5 4.38C15.31 4.47 15.22 4.66 15.12 4.85C15.03 5.03 15.03 5.22 15.03 5.5C15.03 5.69 15.03 5.87 15.12 5.97C15.22 6.15 15.31 6.25 15.41 6.34C15.5 6.43 15.59 6.53 15.78 6.62C15.96 6.62 16.16 6.71 16.35 6.81L16.72 6.9L16.72 7.83C16.53 7.83 16.44 7.83 16.25 7.74C16.16 7.65 15.96 7.65 15.87 7.55C15.78 7.46 15.69 7.46 15.59 7.37C15.5 7.37 15.41 7.27 15.41 7.27L14.93 8.3C15.22 8.39 15.5 8.58 15.78 8.67C16.06 8.77 16.44 8.86 16.72 8.86L16.72 9.7L17.19 9.7L17.19 8.86C17.47 8.86 17.66 8.86 17.84 8.77C18.04 8.67 18.22 8.58 18.41 8.49C18.6 8.39 18.69 8.21 18.78 8.02C18.87 7.83 18.87 7.65 18.87 7.37C18.87 7.09 18.78 6.9 18.6 6.81ZM16.81 5.69C16.62 5.69 16.53 5.59 16.44 5.5C16.35 5.41 16.35 5.31 16.35 5.22C16.35 5.03 16.53 4.85 16.81 4.85L16.81 5.69ZM17.1 7.83L17.1 6.99C17.28 7.09 17.38 7.09 17.47 7.18C17.56 7.27 17.66 7.37 17.66 7.46C17.66 7.65 17.47 7.83 17.1 7.83Z" fill="#D10505" fill-opacity="1.000000" fill-rule="evenodd"/>
		<path id="Vector" d="M6.86 16.98C6.77 16.89 6.68 16.7 6.57 16.61C6.48 16.51 6.29 16.42 6.11 16.33C5.92 16.24 5.73 16.24 5.45 16.14L5.26 16.05L5.26 15.12C5.36 15.12 5.54 15.21 5.63 15.21C5.83 15.21 5.92 15.21 6.02 15.3C6.11 15.3 6.2 15.39 6.29 15.39L6.39 15.49L6.86 14.55C6.68 14.46 6.48 14.37 6.2 14.27C5.92 14.18 5.63 14.09 5.36 14.09L5.36 13.43L4.89 13.43L4.89 14.09C4.6 14.18 4.42 14.18 4.23 14.27C4.04 14.27 3.86 14.46 3.76 14.55C3.57 14.65 3.48 14.84 3.38 15.02C3.29 15.21 3.29 15.39 3.11 15.67C3.11 15.86 3.11 16.05 3.2 16.14C3.29 16.33 3.38 16.42 3.48 16.51C3.57 16.61 3.66 16.7 3.86 16.79C4.04 16.79 4.23 16.89 4.42 16.98L4.8 17.08L4.8 18.01C4.6 18.01 4.51 18.01 4.32 17.91C4.23 17.82 4.04 17.82 3.95 17.73C3.86 17.63 3.76 17.63 3.66 17.54C3.57 17.54 3.48 17.45 3.48 17.45L3.01 18.48C3.29 18.57 3.57 18.75 3.86 18.85C4.14 18.94 4.51 19.03 4.8 19.03L4.8 19.87L5.26 19.87L5.26 19.03C5.54 19.03 5.73 19.03 5.92 18.94C6.11 18.85 6.29 18.75 6.48 18.66C6.68 18.57 6.77 18.38 6.86 18.2C6.95 18.01 6.95 17.82 6.95 17.54C6.95 17.36 6.95 17.17 6.86 16.98ZM4.89 15.96C4.8 15.86 4.6 15.86 4.51 15.77C4.42 15.67 4.42 15.58 4.42 15.49C4.42 15.3 4.6 15.12 4.89 15.12L4.89 15.96ZM5.17 18.01L5.17 17.17C5.36 17.26 5.45 17.26 5.54 17.36C5.63 17.45 5.73 17.54 5.73 17.63C5.73 17.91 5.63 18.01 5.17 18.01Z" fill="#D10505" fill-opacity="1.000000" fill-rule="evenodd"/>
		<path id="Vector" d="M23.73 51.8C23.73 51.8 23.69 51.86 23.66 51.89L22.58 52.92L21.69 53.76L21.5 53.94C20.57 54.6 19.72 54.97 18.69 54.97C17.75 54.97 16.81 54.6 16.06 53.94L15.96 53.85C15.68 53.48 15.41 53.1 15.22 52.73C14.56 53.2 13.81 53.48 12.96 53.48C11.93 53.48 10.99 53.1 10.33 52.36C9.96 51.98 9.68 51.61 9.48 51.14C8.74 51.84 7.77 52.19 6.82 52.19C5.88 52.19 4.93 51.84 4.23 51.14C2.72 49.65 2.72 47.32 4.23 45.92L9.06 41.19L9.82 40.46L9.96 40.32C10.28 39.99 10.76 39.89 11.17 40.03C11.34 40.08 11.51 40.18 11.65 40.32C11.79 40.46 11.88 40.62 11.94 40.79C12.08 41.2 11.98 41.67 11.65 42L11.6 42.04L11.51 42.14L10.75 42.87L5.92 47.6C5.35 48.16 5.35 49 5.92 49.56C6.48 50.12 7.33 50.12 7.89 49.56L10.33 47.13C10.8 46.66 11.56 46.66 12.02 47.13C12.5 47.6 12.5 48.34 12.02 48.81C11.46 49.37 11.46 50.21 12.02 50.68C12.3 50.96 12.59 51.05 13.05 51.05C13.52 51.05 13.81 50.86 14.08 50.68L16.16 48.62C16.22 48.56 16.3 48.5 16.37 48.46C16.83 48.16 17.44 48.22 17.84 48.62C18.26 49.03 18.31 49.66 17.99 50.12C17.94 50.19 17.9 50.25 17.84 50.3C17.57 50.57 17.46 50.9 17.46 51.23C17.46 51.58 17.6 51.93 17.84 52.17C18.13 52.45 18.5 52.54 18.87 52.54C19.16 52.54 19.53 52.45 19.81 52.17L20.07 51.98L20.19 51.89C19.91 51.7 19.53 51.52 19.35 51.33C18.91 50.9 18.8 50.32 19.14 49.8C19.16 49.77 19.17 49.75 19.2 49.73C19.21 49.7 19.24 49.68 19.25 49.65C19.58 49.32 19.99 49.18 20.41 49.28C20.59 49.32 20.78 49.41 20.95 49.56C21.32 49.85 21.75 50.03 22.15 49.99C22.25 49.98 22.35 49.97 22.44 49.93C22.53 49.9 22.61 49.88 22.7 49.87C23.09 49.82 23.47 49.94 23.71 50.22C23.74 50.24 23.75 50.26 23.76 50.27C23.8 50.31 23.83 50.35 23.86 50.4C24.12 50.83 24.05 51.35 23.73 51.8Z" fill="#D10505" fill-opacity="1.000000" fill-rule="evenodd"/>
		<path id="Vector" d="M33.76 48.73L33.75 48.73C33.7 48.9 33.61 49.05 33.53 49.18L32.9 49.82L27.89 54.88C26.95 55.62 26.01 56 25.08 56C24.04 56 23.1 55.62 22.44 54.88C22.11 54.55 21.86 54.17 21.69 53.76C21.48 53.32 21.37 52.82 21.36 52.34C21.35 52.31 21.35 52.3 21.35 52.27C21.34 51.91 21.38 51.56 21.47 51.23C21.47 51.23 21.47 51.22 21.48 51.21C21.54 50.93 21.65 50.66 21.78 50.4C21.87 50.28 21.94 50.18 22.03 50.1C22.06 50.06 22.1 50.02 22.15 49.99C22.23 49.93 22.33 49.87 22.44 49.84C22.44 49.84 22.54 49.84 22.54 49.74C22.63 49.74 22.63 49.65 22.72 49.65C22.83 49.55 22.95 49.47 23.07 49.42C23.4 49.28 23.78 49.33 24.11 49.52C24.14 49.53 24.16 49.54 24.18 49.56C24.27 49.61 24.34 49.67 24.42 49.74C24.78 50.1 24.81 50.61 24.59 51.05C24.58 51.05 24.58 51.06 24.58 51.06C24.53 51.19 24.43 51.31 24.32 51.42C24.23 51.52 24.14 51.61 23.95 51.7C23.86 51.7 23.86 51.8 23.76 51.8C23.57 52.26 23.76 52.82 24.14 53.2C24.42 53.48 24.8 53.57 25.17 53.57C25.54 53.57 25.92 53.38 26.2 53.2L27.97 51.44L29.95 49.47L29.97 49.45L31.08 48.34C31.01 48.02 31.05 47.64 31.26 47.31C31.26 47.29 31.28 47.27 31.3 47.25C31.32 47.21 31.34 47.17 31.37 47.13C31.66 46.84 32.07 46.73 32.44 46.79C32.66 46.84 32.88 46.95 33.05 47.13C33.16 47.22 33.25 47.32 33.25 47.32C33.37 47.4 33.49 47.49 33.58 47.61C33.71 47.76 33.81 47.94 33.81 48.16C33.85 48.35 33.83 48.55 33.76 48.73Z" fill="#D10505" fill-opacity="1.000000" fill-rule="evenodd"/>
		<path id="Vector" d="M43.76 45.11C43.76 46.06 43.38 46.99 42.64 47.69C41.13 49.18 38.78 49.18 37.38 47.69C37.19 48.16 36.9 48.53 36.53 48.9C35.57 49.85 34.17 50.16 32.9 49.82C32.45 49.7 32.02 49.51 31.63 49.23C31.6 49.22 31.58 49.2 31.56 49.18C31.52 49.27 31.47 49.35 31.43 49.43C31.43 49.43 31.42 49.43 31.42 49.45C31.27 49.73 31.08 50.02 30.8 50.3C30.8 50.3 30.8 50.4 30.71 50.4C30.49 50.6 30.25 50.78 30 50.92L29.99 50.92C29.36 51.28 28.66 51.46 27.97 51.44C27.05 51.42 26.14 51.08 25.45 50.4L25.17 50.12C25.03 50.47 24.83 50.76 24.59 51.05C24.58 51.05 24.58 51.06 24.58 51.06C24.5 51.15 24.42 51.24 24.32 51.33L24.23 51.42C24.08 51.57 23.91 51.68 23.73 51.8C23.56 51.9 23.37 51.98 23.2 52.08C23.1 52.08 23.01 52.17 23.01 52.17C22.85 52.21 22.68 52.24 22.5 52.28C22.24 52.33 21.97 52.36 21.69 52.36C21.58 52.36 21.47 52.36 21.36 52.34C21.33 52.34 21.3 52.34 21.28 52.33C20.87 52.29 20.46 52.17 20.08 51.98C19.69 51.8 19.35 51.55 19.07 51.24L17.99 50.12L16.44 48.53L16.37 48.46L10.75 42.87L9.95 42.08L9.06 41.19L7.42 39.57C7.24 39.38 7.14 39.29 7.14 39.1L6.53 36.9L6.2 35.74C6.16 35.57 6.15 35.4 6.17 35.24C6.23 34.78 6.56 34.41 7.05 34.34C7.43 34.24 7.8 34.31 8.07 34.53C8.09 34.54 8.11 34.55 8.13 34.57C8.29 34.72 8.41 34.93 8.45 35.18L8.58 35.6L9.39 38.26L11.17 40.03L11.94 40.79L18.22 47.04L20.41 49.28L20.85 49.74C21.15 50.04 21.57 50.16 22.03 50.1C22.13 50.09 22.24 50.06 22.35 50.02L22.44 50.02C22.51 49.96 22.61 49.94 22.71 49.87C22.75 49.84 22.8 49.8 22.83 49.74C22.92 49.65 23 49.54 23.07 49.42C23.19 49.22 23.25 48.99 23.25 48.75C23.25 48.39 23.1 48.02 22.83 47.69C22.44 47.22 22.44 46.48 22.92 46.1C23.38 45.64 24.14 45.73 24.51 46.1L27.14 48.72C27.71 49.28 28.55 49.28 29.11 48.72C29.58 48.25 29.68 47.41 29.11 46.85C28.92 46.66 28.74 46.29 28.74 46.01C28.74 45.73 28.83 45.45 29.11 45.17C29.58 44.7 30.34 44.7 30.8 45.17L32.44 46.79L32.87 47.22C33.08 47.43 33.33 47.56 33.58 47.61C34.02 47.71 34.49 47.58 34.84 47.22C35.41 46.66 35.41 45.82 34.84 45.36C34.37 44.89 34.37 44.14 34.84 43.68C35.31 43.21 36.07 43.21 36.53 43.68L38.98 46.1C39.25 46.38 39.61 46.52 39.96 46.52C40.32 46.52 40.67 46.38 40.95 46.1C41.5 45.54 41.5 44.7 40.95 44.14L38.88 42.18C38.78 42.08 38.71 41.98 38.65 41.86C38.43 41.42 38.51 40.87 38.88 40.5C39.32 40.06 40.01 40.04 40.47 40.43C40.51 40.45 40.54 40.47 40.57 40.5L41.39 41.29L42.64 42.46C43.38 43.21 43.76 44.16 43.76 45.11Z" fill="#D10505" fill-opacity="1.000000" fill-rule="evenodd"/>
		<path id="Vector" d="M16.06 28.74C15.96 28.74 15.78 28.74 15.68 28.65C15.31 28.55 14.84 28.28 14.56 28C14.08 27.53 14.08 26.78 14.56 26.31C15.02 25.85 15.78 25.85 16.25 26.31C16.34 26.41 16.44 26.41 16.44 26.41C17.1 26.6 17.38 27.25 17.19 27.9C17.1 28.46 16.62 28.74 16.07 28.74L16.06 28.74Z" fill="#D10505" fill-opacity="1.000000" fill-rule="evenodd"/>
		<path id="Vector" d="M8.45 29.58C8.45 29.96 8.27 30.33 7.99 30.61C7.71 30.89 7.33 31.08 6.96 31.08C6.58 31.08 6.2 30.89 5.92 30.61C5.64 30.33 5.45 29.96 5.45 29.58C5.45 29.21 5.64 28.84 5.92 28.55C6.2 28.27 6.58 28.09 6.96 28.09C7.34 28.09 7.71 28.27 7.99 28.55C8.27 28.84 8.45 29.21 8.45 29.58Z" fill="#D10505" fill-opacity="1.000000" fill-rule="evenodd"/>
		<path id="Vector" d="M46.39 33.32L46.39 33.59L46.13 34.56L45.82 35.72L45.45 37.05C45.35 37.24 45.26 37.42 45.17 37.61L41.39 41.29L40.66 42C40.66 42 40.57 42.07 40.52 42.1C40.21 42.32 39.97 42.46 39.72 42.46C39.44 42.46 39.16 42.37 38.88 42.09L38.65 41.86L24.89 28.18C24.7 28.18 24.6 28.28 24.41 28.28C21.41 29.12 18.13 29.96 15.59 28.65C15.57 28.64 15.55 28.63 15.54 28.62C15.51 28.6 15.49 28.59 15.46 28.57C15.46 28.57 15.45 28.57 15.45 28.56C15.15 28.41 14.89 28.21 14.65 28L14.61 27.96C14.51 27.87 14.43 27.78 14.35 27.7C14.34 27.69 14.33 27.68 14.33 27.67L14.32 27.67C13.91 27.18 13.65 26.65 13.57 26.08C13.56 26.07 13.56 26.06 13.56 26.05C13.53 25.9 13.52 25.75 13.52 25.6C13.52 25.56 13.52 25.51 13.53 25.48L13.53 25.38C13.55 25.27 13.58 25.17 13.62 25.06C13.83 24.58 14.3 24.28 14.84 24.36C14.97 24.37 15.1 24.41 15.21 24.47C15.24 24.47 15.27 24.49 15.28 24.5C15.66 24.71 15.89 25.08 15.88 25.51C15.88 25.56 15.88 25.62 15.87 25.66C15.87 25.69 15.87 25.71 15.88 25.74C15.88 25.76 15.89 25.8 15.91 25.83C15.94 25.9 15.98 25.97 16.05 26.04L16.1 26.1C16.1 26.1 16.16 26.16 16.2 26.18C16.21 26.2 16.23 26.22 16.25 26.23C16.27 26.23 16.29 26.25 16.31 26.28L16.32 26.28C16.42 26.36 16.56 26.44 16.72 26.5C17.28 26.81 17.96 26.94 18.72 26.94C20.22 26.94 22.04 26.44 23.86 25.94C24.23 25.85 24.6 25.76 24.98 25.66C25.35 25.57 25.83 25.66 26.11 25.94L39.72 39.48L43.1 36.12L43.73 33.74L43.76 33.59L41.88 31.73C41.5 31.35 41.43 30.78 41.69 30.33C41.7 30.29 41.73 30.24 41.76 30.21C41.79 30.15 41.84 30.1 41.88 30.05C42.17 29.76 42.58 29.65 42.95 29.71C43.18 29.76 43.4 29.87 43.58 30.05L46.01 32.48C46.13 32.6 46.25 32.79 46.33 33C46.37 33.11 46.39 33.22 46.39 33.32Z" fill="#D10505" fill-opacity="1.000000" fill-rule="evenodd"/>
		<path id="Vector" d="M36.09 24.57C36.09 24.57 36.05 24.64 36.01 24.67C36.01 24.69 35.98 24.71 35.96 24.73C35.7 24.99 35.35 25.11 35 25.07C34.75 25.05 34.49 24.93 34.28 24.73L31.46 21.93L31.17 22.12C30.8 22.3 30.43 22.3 30.05 22.12C27.14 20.62 26.01 21.56 24.6 22.58C23.66 23.33 22.63 24.08 21.13 24.08C20.66 24.08 20.19 24.17 19.81 24.17C17.57 24.42 16.47 24.98 15.99 25.41C15.97 25.42 15.96 25.43 15.96 25.44C15.93 25.46 15.9 25.48 15.88 25.51C15.74 25.65 15.68 25.77 15.68 25.85C15.69 25.9 15.69 25.95 15.69 26C15.68 26.32 15.38 26.59 14.94 26.66L14.93 26.66C14.85 26.68 14.75 26.69 14.65 26.69L14.47 26.69C14.47 26.69 14.36 26.67 14.32 26.66C13.98 26.58 13.71 26.36 13.57 26.08C13.56 26.07 13.56 26.06 13.56 26.05C13.54 26.04 13.53 26.02 13.52 26C13.43 25.81 13.41 25.61 13.43 25.38C13.53 24.47 14.34 22.4 19.28 21.78C19.4 21.77 19.51 21.75 19.63 21.74C20.06 21.66 20.56 21.65 20.99 21.65L21.13 21.65C21.65 21.65 22.1 21.42 22.69 21C22.84 20.89 23.01 20.76 23.2 20.62C24.7 19.5 26.67 17.92 30.52 19.69L31.08 19.41C31.49 19.17 31.97 19.2 32.34 19.47C32.39 19.5 32.45 19.55 32.5 19.6L32.77 19.87L35.96 23.05C36.39 23.47 36.43 24.1 36.09 24.57Z" fill="#D10505" fill-opacity="1.000000" fill-rule="evenodd"/>
		<path id="Vector" d="M50.71 24.63L41.6 15.58C41.17 15.16 40.67 14.82 40.13 14.56C39.68 14.36 39.22 14.21 38.73 14.14C38.5 14.11 38.27 14.09 38.04 14.09C36.98 14.09 35.93 14.44 35.07 15.08C34.86 15.23 34.65 15.39 34.47 15.58L33.95 16.09L30.8 19.22C30.66 19.36 30.57 19.52 30.52 19.69C30.39 20.07 30.46 20.5 30.75 20.83C30.76 20.86 30.77 20.88 30.8 20.9L35 25.07L43.73 33.74L44.71 34.72L45.46 35.46C45.58 35.58 45.7 35.67 45.82 35.72C45.98 35.81 46.13 35.84 46.29 35.84C46.58 35.84 46.95 35.74 47.14 35.46L50.71 31.73C51.65 30.79 52.22 29.49 52.22 28.18C52.22 26.87 51.65 25.57 50.71 24.63ZM49.11 30.24L46.33 33L46.29 33.03L42.95 29.71L33.34 20.15L36.25 17.45C36.72 16.98 37.38 16.7 38.13 16.7C38.78 16.7 39.53 16.98 40.01 17.45L49.11 26.5C49.58 26.97 49.86 27.62 49.86 28.37C49.86 29.02 49.58 29.77 49.11 30.24Z" fill="#D10505" fill-opacity="1.000000" fill-rule="evenodd"/>
		<path id="Vector" d="M47.23 29.3C46.95 29.58 46.58 29.77 46.2 29.77C45.82 29.77 45.46 29.67 45.17 29.39C44.61 28.83 44.61 27.9 45.17 27.34C45.17 27.25 45.26 27.25 45.26 27.25C45.55 26.97 45.83 26.87 46.2 26.87C46.57 26.87 46.95 26.97 47.23 27.25C47.8 27.81 47.8 28.65 47.23 29.3Z" fill="#D10505" fill-opacity="1.000000" fill-rule="evenodd"/>
		<path id="Vector" d="M22.69 21C22.66 20.76 22.55 20.53 22.35 20.34L18.69 16.7C17.75 15.77 16.44 15.21 15.12 15.21C13.8 15.21 12.5 15.77 11.56 16.7L2.35 25.85C0.38 27.81 0.38 30.98 2.35 32.94L6.01 36.58C6.18 36.75 6.36 36.85 6.53 36.9C6.64 36.94 6.75 36.96 6.86 36.96C7.12 36.96 7.39 36.87 7.56 36.63C7.59 36.61 7.6 36.6 7.6 36.58L16.25 27.9C16.3 27.86 16.34 27.83 16.38 27.77C16.56 27.58 16.62 27.3 16.62 27.06C16.62 26.86 16.58 26.6 16.44 26.41C16.4 26.36 16.36 26.32 16.32 26.29L16.31 26.29C16.31 26.29 16.27 26.23 16.25 26.23C16.25 26.23 16.21 26.19 16.2 26.18C16.16 26.16 16.13 26.13 16.1 26.1L16.05 26.04C15.96 25.97 15.93 25.9 15.91 25.83C15.89 25.8 15.88 25.76 15.88 25.74C15.87 25.71 15.87 25.69 15.87 25.66C15.88 25.59 15.91 25.51 15.96 25.44C15.96 25.43 15.97 25.42 15.99 25.41C16.34 24.88 17.59 24.22 20.01 23.98C20.29 23.98 20.57 23.89 20.75 23.61L21.13 23.14C21.23 23.14 21.32 23.05 21.41 22.96L21.63 22.72L22.35 21.93C22.63 21.7 22.75 21.35 22.69 21ZM4.04 27.62L13.24 18.48C13.71 17.92 14.37 17.64 15.12 17.64C15.86 17.64 16.53 17.92 17.1 18.29L19.91 21.09L19.72 21.28L19.44 21.56C19.35 21.56 19.35 21.65 19.35 21.65L19.28 21.78L19.25 21.84C16.96 22.12 15.56 22.72 14.74 23.41C14.08 23.94 13.77 24.53 13.62 25.06C13.57 25.2 13.55 25.33 13.53 25.45L13.53 25.48C13.53 25.48 13.52 25.56 13.52 25.6C13.5 25.73 13.5 25.87 13.52 26C13.56 26.38 13.7 26.77 13.9 27.16L6.86 34.25L4.04 31.45C3.01 30.42 3.01 28.65 4.04 27.62Z" fill="#D10505" fill-opacity="1.000000" fill-rule="evenodd"/>
		<path id="Vector" d="M53.9 50.21L45.63 50.21C44.97 50.21 44.41 49.65 44.41 49C44.41 48.34 44.98 47.78 45.63 47.78L53.9 47.78C54.56 47.78 55.12 48.34 55.12 49C55.02 49.65 54.46 50.21 53.9 50.21Z" fill="#D10505" fill-opacity="1.000000" fill-rule="evenodd"/>
		<path id="Vector" d="M53.9 53.66L45.63 53.66C44.97 53.66 44.41 53.1 44.41 52.45C44.41 51.8 44.98 51.24 45.63 51.24L53.9 51.24C54.56 51.24 55.12 51.8 55.12 52.45C55.02 53.1 54.46 53.66 53.9 53.66Z" fill="#D10505" fill-opacity="1.000000" fill-rule="evenodd"/>
		<path id="Vector" d="M16.9 0C13.34 0 10.42 2.89 10.42 6.43C10.42 9.98 13.34 12.88 16.9 12.88C20.46 12.88 23.38 9.98 23.38 6.43C23.38 2.89 20.47 0 16.9 0ZM16.9 10.54C14.65 10.54 12.77 8.68 12.77 6.43C12.77 4.19 14.65 2.33 16.9 2.33C19.15 2.33 21.04 4.19 21.04 6.43C21.04 8.68 19.16 10.54 16.9 10.54Z" fill="#D10505" fill-opacity="1.000000" fill-rule="evenodd"/>
		<path id="Vector" d="M35.68 3.45C32.11 3.45 29.2 6.34 29.2 9.89C29.2 12.84 31.22 15.34 33.95 16.09C34.46 16.24 35 16.32 35.54 16.32C35.59 16.33 35.64 16.33 35.68 16.33C36.85 16.33 37.93 16.02 38.88 15.48C39.34 15.23 39.76 14.92 40.13 14.56C41.38 13.39 42.16 11.73 42.16 9.89C42.16 6.34 39.25 3.45 35.68 3.45ZM35.68 14.09C33.43 14.09 31.56 12.22 31.56 9.98C31.56 7.74 33.43 5.88 35.68 5.88C37.93 5.88 39.82 7.74 39.82 9.98C39.82 12.22 37.94 14.09 35.68 14.09Z" fill="#D10505" fill-opacity="1.000000" fill-rule="evenodd"/>
	</g>
</svg>
