<svg width="56.000000" height="56.000000" viewBox="0 0 56 56" fill="none" xmlns="http://www.w3.org/2000/svg" xmlns:xlink="http://www.w3.org/1999/xlink">
	<desc>
			Created with Pixso.
	</desc>
	<defs>
		<clipPath id="clip492_2415">
			<rect id="Audits" rx="-0.500000" width="55.000000" height="54.999969" transform="translate(0.500000 0.500000)" fill="white" fill-opacity="0"/>
		</clipPath>
	</defs>
	<rect id="Audits" rx="-0.500000" width="55.000000" height="54.999969" transform="translate(0.500000 0.500000)" fill="#FFFFFF" fill-opacity="0"/>
	<g clip-path="url(#clip492_2415)">
		<path id="Vector" d="M22.67 11.35C22.48 11.21 22.24 11.14 22 11.14C21.75 11.14 21.52 11.21 21.32 11.36C18.57 11.53 16.08 12.83 14.32 15.01C13 16.8 12.24 18.88 12.24 21.05C12.24 23.23 13 25.49 14.42 27.19C15.84 28.89 17.74 30.12 19.92 30.59C20.58 30.69 21.34 30.78 22 30.78C22.66 30.78 23.33 30.69 24.08 30.5C26.08 30.12 27.87 29.08 29.3 27.48C30.72 25.96 31.57 23.98 31.76 21.9L31.76 21.05C31.76 15.9 27.76 11.7 22.67 11.35ZM20.29 28.14C16.98 27.48 14.51 24.36 14.51 20.96C14.51 19.71 14.86 18.48 15.5 17.36L21.15 22.66C21.28 22.74 21.4 22.81 21.53 22.85C21.55 22.85 21.56 22.87 21.58 22.87C21.63 22.89 21.69 22.9 21.74 22.91L21.75 22.91C21.84 22.93 21.91 22.94 22 22.94L28.94 22.94C28.22 25.48 26.1 27.57 23.42 28.14C22.38 28.33 21.34 28.33 20.29 28.14ZM23.24 20.49L23.24 13.7C26.58 14.26 29.15 17.06 29.21 20.49L23.24 20.49ZM20.77 19L17.02 15.48C18.08 14.55 19.38 13.92 20.77 13.7L20.77 19Z" fill="#D10505" fill-opacity="1.000000" fill-rule="nonzero"/>
		<path id="Vector" d="M37.54 19.54C37.92 23.04 37.07 26.63 35.08 29.55C34.5 30.5 33.75 31.35 33 32.1C32.23 32.86 31.29 33.61 30.34 34.18C30.25 34.28 29.96 34.37 29.77 34.37C29.39 34.37 29.02 34.18 28.73 33.8C28.35 33.24 28.54 32.48 29.11 32.2C29.96 31.73 30.71 31.06 31.38 30.4C32.05 29.74 32.61 28.99 33.18 28.23C36.6 23.04 35.84 16.05 31.38 11.71C26.17 6.51 17.83 6.51 12.62 11.71C7.41 16.9 7.41 25.21 12.62 30.4C13.09 30.88 13.09 31.63 12.62 32.1C12.15 32.58 11.39 32.58 10.92 32.1C4.85 26.06 4.85 16.14 10.92 10.1C16.98 4.06 26.92 4.06 33 10.1C35.55 12.65 37.16 15.95 37.54 19.54Z" fill="#D10505" fill-opacity="1.000000" fill-rule="nonzero"/>
		<path id="Vector" d="M36.12 6.89C28.35 -0.85 15.66 -0.85 7.88 6.89C0.11 14.63 0.11 27.29 7.88 35.03C14.31 41.44 24.11 42.59 31.76 38.39C32.07 38.21 32.38 38.03 32.69 37.84C32.72 37.82 32.77 37.8 32.81 37.77C33.16 37.56 33.49 37.33 33.82 37.08C34.66 36.48 35.46 35.78 36.21 35.03C36.93 34.32 37.55 33.61 38.1 32.85C38.34 32.53 38.58 32.19 38.79 31.84C38.82 31.8 38.84 31.76 38.87 31.73C39.07 31.42 39.25 31.12 39.42 30.81C43.72 23.26 42.67 13.42 36.12 6.89ZM37.73 31.16C37.07 32.29 36.21 33.33 35.27 34.27C34.43 35.11 33.52 35.87 32.54 36.48C32.29 36.51 32.05 36.64 31.86 36.82C31.81 36.87 31.78 36.92 31.75 36.97C30.35 37.8 28.84 38.45 27.28 38.9C25.58 39.39 23.8 39.66 22 39.66C16.98 39.66 12.24 37.67 8.73 34.18C5.23 30.69 3.24 25.96 3.24 20.96C3.24 15.95 5.23 11.23 8.73 7.74C12.24 4.24 16.98 2.26 22 2.26C27.02 2.26 31.76 4.24 35.27 7.74C41.43 13.97 42.47 23.79 37.73 31.16Z" fill="#D10505" fill-opacity="1.000000" fill-rule="nonzero"/>
		<path id="Vector" d="M34.6 50.14L20.39 50.14C19.73 50.14 19.16 50.33 18.69 50.8C18.57 50.95 18.45 51.11 18.37 51.27C18.15 51.64 18.02 52.05 18.02 52.5C18.02 53.82 19.06 54.86 20.39 54.86L34.6 54.86C35.27 54.86 35.84 54.67 36.31 54.2C36.69 53.73 36.97 53.16 36.97 52.5C36.97 51.18 35.93 50.14 34.6 50.14ZM35.45 53.35C35.17 53.63 34.89 53.73 34.6 53.73L20.39 53.73C19.73 53.73 19.16 53.16 19.16 52.5C19.16 52.22 19.34 51.84 19.54 51.65C19.82 51.37 20.1 51.27 20.39 51.27L34.6 51.27C35.27 51.27 35.84 51.84 35.84 52.5C35.84 52.88 35.65 53.16 35.45 53.35Z" fill="#D10505" fill-opacity="1.000000" fill-rule="nonzero"/>
		<path id="Vector" d="M22.76 45.42L4.94 45.42C4.28 45.42 3.71 45.61 3.24 46.08C2.86 46.55 2.58 47.12 2.58 47.78C2.58 49.1 3.62 50.14 4.94 50.14L22.76 50.14C23.42 50.14 24.08 49.95 24.46 49.48C24.62 49.27 24.77 49.05 24.89 48.82C25.03 48.5 25.12 48.16 25.12 47.78C25.12 46.46 24.08 45.42 22.76 45.42ZM4.94 48.82C4.28 48.82 3.71 48.25 3.71 47.59C3.71 47.31 3.9 46.93 4.08 46.74C4.38 46.46 4.66 46.36 4.94 46.36L22.76 46.36C23.42 46.36 23.99 46.93 23.99 47.59C23.99 47.97 23.8 48.25 23.61 48.44C23.33 48.72 23.04 48.82 22.76 48.82L4.94 48.82Z" fill="#D10505" fill-opacity="1.000000" fill-rule="nonzero"/>
		<path id="Vector" d="M21.9 21.81L20.77 20.74L16.14 16.41L15.55 15.86L15.17 15.67C14.97 15.93 14.78 16.2 14.61 16.48C13.83 17.78 13.37 19.34 13.37 20.96C13.37 25.11 16.22 28.51 20.1 29.36C20.77 29.46 21.34 29.55 22 29.55C22.57 29.55 23.24 29.46 23.89 29.46C27.19 28.67 29.78 26.07 30.47 22.73C30.53 22.42 30.58 22.12 30.61 21.81L21.89 21.81L21.9 21.81ZM23.42 28.14C22.38 28.33 21.34 28.33 20.29 28.14C16.98 27.48 14.51 24.36 14.51 20.96C14.51 19.71 14.86 18.48 15.5 17.36L21.14 22.66C21.27 22.74 21.4 22.81 21.53 22.85C21.55 22.85 21.56 22.87 21.58 22.87C21.63 22.89 21.69 22.91 21.73 22.91L21.75 22.91C21.84 22.93 21.91 22.94 22 22.94L28.94 22.94C28.22 25.48 26.1 27.57 23.42 28.14Z" fill="#D10505" fill-opacity="1.000000" fill-rule="nonzero"/>
		<path id="Vector" d="M23.24 12.48C22.83 12.41 22.42 12.38 22 12.37L22 21.72L30.62 21.72L30.62 20.76C30.52 16.55 27.34 13.13 23.24 12.48ZM23.24 20.49L23.24 13.7C26.58 14.26 29.15 17.06 29.21 20.49L23.24 20.49Z" fill="#D10505" fill-opacity="1.000000" fill-rule="nonzero"/>
		<path id="Vector" d="M20.77 12.44C18.96 12.69 17.34 13.52 16.07 14.73C15.75 15.01 15.45 15.33 15.18 15.67L15.55 15.77L16.18 16.36L20.77 20.65L21.9 21.72L21.9 12.37C21.52 12.37 21.14 12.39 20.77 12.44ZM20.77 19L17.02 15.48C18.08 14.55 19.38 13.92 20.77 13.7L20.77 19Z" fill="#D10505" fill-opacity="1.000000" fill-rule="nonzero"/>
		<path id="Vector" d="M45.22 35.69L44.72 36.14L43.89 36.92L43.04 37.78L38.81 42.07L37.12 43.77L36.6 44.28L40.28 47.87L40.7 47.43L41.52 46.55L42.39 45.71L46.77 41.4L47.58 40.6L47.63 40.55L48.49 39.7L48.91 39.28L45.22 35.69ZM40.67 45.7C40.53 45.84 40.42 46 40.38 46.17L40.28 46.27L38.3 44.28L44.74 37.86L45.22 37.39L47.2 39.37C47.03 39.42 46.87 39.53 46.73 39.66C46.59 39.8 46.5 39.97 46.44 40.14L41.15 45.41C40.98 45.47 40.81 45.56 40.67 45.7Z" fill="#D10505" fill-opacity="1.000000" fill-rule="nonzero"/>
		<path id="Vector" d="M52.7 45.7L48.48 41.41L47.63 40.55L47.58 40.51L46.73 41.36L42.38 45.7L41.52 46.55L42.41 47.46L46.64 51.75C47.49 52.6 48.58 53.02 49.67 53.02C50.76 53.02 51.85 52.6 52.7 51.75C54.41 50.05 54.41 47.4 52.7 45.7ZM51.85 50.8C50.62 52.03 48.72 52.03 47.49 50.8L43.28 46.6L47.63 42.25L51.85 46.46C52.42 47.07 52.71 47.85 52.71 48.63C52.71 49.4 52.42 50.19 51.85 50.8Z" fill="#D10505" fill-opacity="1.000000" fill-rule="nonzero"/>
		<path id="Vector" d="M43.13 36.16L39.65 32.69L38.79 31.84L38.77 31.82C38.55 32.15 38.32 32.49 38.07 32.82C37.49 33.6 36.82 34.37 36.03 35.03C35.31 35.75 34.54 36.42 33.74 37C33.37 37.28 33 37.53 32.61 37.77L32.68 37.84L33.57 38.72L37.07 42.21L37.83 42.96L38.77 42.02L43.03 37.77L43.89 36.92L43.13 36.16ZM38.01 41.26L34.7 37.97C35.49 37.38 36.22 36.72 36.88 36.07C37.61 35.34 38.29 34.52 38.92 33.67L42.27 37.01L38.01 41.26Z" fill="#D10505" fill-opacity="1.000000" fill-rule="nonzero"/>
		<path id="Vector" d="M49.96 10.01L52.32 10.01L52.32 20.68L49.96 20.68L49.96 10.01Z" fill="#D10505" fill-opacity="1.000000" fill-rule="evenodd"/>
		<path id="Vector" d="M49.96 4.06L52.32 4.06L52.32 6.42L49.96 6.42L49.96 4.06Z" fill="#D10505" fill-opacity="1.000000" fill-rule="evenodd"/>
		<path id="Vector" d="M52.32 1.69L52.32 4.06L49.96 4.06L45.22 4.06L45.22 1.69L52.32 1.69Z" fill="#D10505" fill-opacity="1.000000" fill-rule="evenodd"/>
		<path id="Vector" d="M48.81 5.28L48.81 11.14L46.45 11.14L46.45 8.78L46.45 6.42L46.45 5.28L48.81 5.28Z" fill="#D10505" fill-opacity="1.000000" fill-rule="evenodd"/>
		<path id="Vector" d="M44.08 6.42L46.44 6.42L46.44 8.78L44.08 8.78L44.08 6.42Z" fill="#D10505" fill-opacity="1.000000" fill-rule="evenodd"/>
		<path id="Vector" d="M44.74 37.86C44.55 38.05 44.27 38.15 43.89 38.15C43.61 38.15 43.33 38.05 43.04 37.78L43.03 37.78L42.27 37.01L38.92 33.67L38.1 32.85L37.92 32.67C37.44 32.2 37.44 31.44 37.92 30.97C38.32 30.56 38.95 30.51 39.42 30.81C39.5 30.85 39.56 30.9 39.63 30.97L40.29 31.65L43.94 35.35L44.72 36.14L44.74 36.16C45.22 36.64 45.22 37.39 44.74 37.86Z" fill="#D10505" fill-opacity="1.000000" fill-rule="evenodd"/>
		<path id="Vector" d="M38.78 43.72C38.49 44 38.2 44.1 37.92 44.1C37.66 44.1 37.39 44.01 37.12 43.77C37.11 43.76 37.09 43.74 37.07 43.72L36.31 42.96L32.63 39.29L31.86 38.52C31.86 38.52 31.79 38.44 31.76 38.39C31.42 37.97 31.42 37.39 31.75 36.97C31.78 36.92 31.81 36.87 31.86 36.82C32.05 36.64 32.29 36.51 32.54 36.48C32.9 36.43 33.28 36.54 33.56 36.82L33.74 37L33.82 37.08L34.7 37.97L38.01 41.26L38.78 42.02C38.78 42.02 38.8 42.05 38.81 42.07C39.25 42.54 39.23 43.27 38.78 43.72Z" fill="#D10505" fill-opacity="1.000000" fill-rule="evenodd"/>
		<path id="Vector" d="M53.55 52.41C52.42 53.63 51.09 54.11 49.67 54.11C48.24 54.11 46.92 53.54 45.78 52.5L41.57 48.3L40.7 47.43L40.67 47.4C40.33 47.07 40.23 46.59 40.38 46.17C40.42 46 40.53 45.84 40.67 45.7C40.81 45.56 40.98 45.47 41.15 45.41C41.56 45.27 42.04 45.37 42.38 45.7L42.39 45.7L43.28 46.6L47.49 50.8C48.72 52.03 50.61 52.03 51.85 50.8C52.42 50.19 52.71 49.4 52.71 48.63C52.71 47.85 52.42 47.07 51.85 46.46L47.63 42.25L46.77 41.4L46.73 41.36C46.4 41.03 46.3 40.55 46.44 40.14C46.5 39.97 46.59 39.8 46.73 39.66C46.87 39.53 47.03 39.42 47.2 39.37C47.61 39.22 48.1 39.32 48.44 39.66L48.49 39.71L49.34 40.55L53.55 44.76C55.64 46.84 55.64 50.33 53.55 52.41Z" fill="#D10505" fill-opacity="1.000000" fill-rule="evenodd"/>
		<path id="Vector" d="M49.76 38.43L46.17 34.84C45.69 34.37 44.93 34.37 44.46 34.84L43.95 35.35L43.13 36.16L42.27 37.01L38.01 41.26L37.07 42.21L36.31 42.96L35.84 43.44C35.55 43.72 35.45 44 35.45 44.29C35.45 44.57 35.65 44.95 35.84 45.14L39.43 48.72C39.72 49.01 40 49.1 40.29 49.1C40.57 49.1 40.86 48.91 41.14 48.72L41.57 48.3L42.41 47.46L43.28 46.6L47.63 42.25L48.48 41.41L49.34 40.55L49.76 40.13C50.24 39.66 50.24 38.9 49.76 38.43ZM40.38 46.17L40.29 46.27L38.3 44.29L44.74 37.86L45.22 37.39L47.2 39.37L46.44 40.14L41.15 45.41L40.38 46.17Z" fill="#D10505" fill-opacity="1.000000" fill-rule="evenodd"/>
		<path id="Vector" d="M43.03 18.98C42.56 14.16 40.39 9.53 36.97 6.13C32.99 2.17 27.68 0 22 0C16.31 0 11.01 2.17 7.03 6.13C3.04 10.1 0.87 15.39 0.87 21.05C0.87 26.72 3.04 32.01 7.03 35.97C11.01 39.94 16.31 42.11 22 42.11C25.82 42.11 29.47 41.12 32.63 39.29C32.84 39.17 33.06 39.03 33.28 38.9C33.38 38.85 33.47 38.79 33.57 38.72C33.96 38.5 34.33 38.23 34.7 37.97C35.49 37.38 36.22 36.72 36.88 36.07C37.61 35.34 38.29 34.52 38.92 33.67C39.17 33.35 39.41 33.02 39.65 32.69C39.66 32.65 39.69 32.61 39.72 32.58C39.92 32.27 40.12 31.96 40.29 31.65C42.54 27.8 43.47 23.35 43.03 18.98ZM37.73 31.16C37.07 32.29 36.21 33.33 35.26 34.27C34.43 35.11 33.52 35.87 32.53 36.48C32.4 36.57 32.27 36.65 32.14 36.73C32.01 36.82 31.88 36.89 31.75 36.97C30.35 37.8 28.84 38.45 27.28 38.9C25.58 39.39 23.8 39.66 22 39.66C16.98 39.66 12.24 37.67 8.73 34.18C5.23 30.69 3.24 25.96 3.24 20.96C3.24 15.95 5.23 11.23 8.73 7.74C12.24 4.24 16.98 2.26 22 2.26C27.02 2.26 31.75 4.24 35.26 7.74C41.43 13.97 42.47 23.79 37.73 31.16Z" fill="#D10505" fill-opacity="1.000000" fill-rule="evenodd"/>
		<path id="Vector" d="M35.08 29.55C34.5 30.5 33.75 31.35 33 32.1C32.23 32.86 31.29 33.61 30.34 34.18C30.25 34.28 29.96 34.37 29.77 34.37C29.39 34.37 29.02 34.18 28.73 33.8C28.35 33.24 28.54 32.48 29.11 32.2C29.96 31.73 30.71 31.06 31.38 30.4C32.05 29.74 32.61 28.99 33.18 28.23C36.6 23.04 35.84 16.05 31.38 11.71C26.17 6.51 17.83 6.51 12.62 11.71C7.41 16.9 7.41 25.21 12.62 30.4C13.09 30.88 13.09 31.63 12.62 32.1C12.15 32.58 11.39 32.58 10.92 32.1C4.85 26.06 4.85 16.14 10.92 10.1C16.98 4.06 26.92 4.06 33 10.1C35.55 12.65 37.16 15.95 37.54 19.54C37.92 23.04 37.07 26.63 35.08 29.55Z" fill="#D10505" fill-opacity="1.000000" fill-rule="evenodd"/>
		<path id="Vector" d="M22.67 11.35C22.45 11.34 22.22 11.33 22 11.33C21.77 11.33 21.55 11.34 21.32 11.36C18.57 11.53 16.08 12.83 14.32 15.01C13 16.8 12.24 18.88 12.24 21.05C12.24 23.23 13 25.49 14.42 27.19C15.84 28.89 17.74 30.12 19.92 30.59C20.58 30.69 21.34 30.78 22 30.78C22.66 30.78 23.33 30.69 24.08 30.5C26.08 30.12 27.87 29.08 29.3 27.48C30.72 25.96 31.57 23.98 31.76 21.9L31.76 21.05C31.76 15.9 27.76 11.7 22.67 11.35ZM23.24 13.7C26.58 14.26 29.15 17.06 29.21 20.49C29.21 20.65 29.21 20.8 29.2 20.96L29.2 21.62C29.2 21.62 29.2 21.69 29.2 21.71C29.2 21.75 29.19 21.78 29.18 21.81C29.14 22.2 29.06 22.57 28.94 22.94C28.22 25.48 26.1 27.57 23.42 28.14C22.38 28.33 21.34 28.33 20.29 28.14C16.98 27.48 14.51 24.36 14.51 20.96C14.51 19.71 14.86 18.48 15.5 17.36C15.67 17.04 15.89 16.73 16.13 16.43C16.13 16.43 16.13 16.42 16.14 16.41C16.14 16.41 16.16 16.38 16.18 16.36C16.43 16.04 16.72 15.75 17.02 15.48C18.08 14.55 19.38 13.92 20.77 13.7C21.15 13.63 21.52 13.6 21.91 13.59L22 13.59C22.42 13.59 22.83 13.63 23.24 13.7Z" fill="#D10505" fill-opacity="1.000000" fill-rule="evenodd"/>
		<path id="Vector" d="M31.1 21.72C31.04 22.13 30.8 22.51 30.48 22.73C30.29 22.87 30.08 22.94 29.87 22.94L22.01 22.94C21.92 22.94 21.85 22.93 21.76 22.91L21.75 22.91C21.75 22.91 21.64 22.89 21.58 22.87C21.57 22.87 21.56 22.86 21.54 22.85C21.1 22.65 20.78 22.21 20.78 21.72L20.78 12.37C20.78 11.95 21 11.57 21.33 11.36C21.53 11.21 21.76 11.14 22.01 11.14C22.25 11.14 22.49 11.21 22.68 11.35C23.02 11.57 23.25 11.95 23.25 12.37L23.25 20.49L29.87 20.49C30.15 20.49 30.42 20.59 30.63 20.76C30.92 20.99 31.11 21.34 31.11 21.72L31.1 21.72Z" fill="#D10505" fill-opacity="1.000000" fill-rule="evenodd"/>
		<path id="Vector" d="M23.13 21.72L23.13 21.81C23.12 22.08 23.02 22.35 22.85 22.57C22.66 22.85 22.29 22.94 22 22.94C21.91 22.94 21.84 22.93 21.75 22.91L21.74 22.91C21.74 22.91 21.63 22.89 21.58 22.87C21.56 22.87 21.55 22.86 21.53 22.85C21.4 22.81 21.27 22.74 21.14 22.66L15.5 17.36L14.8 16.71C14.73 16.64 14.67 16.57 14.61 16.48C14.33 16.02 14.38 15.42 14.71 15.01C15.07 14.64 15.63 14.56 16.07 14.73C16.19 14.77 16.3 14.83 16.41 14.92L17.01 15.48L20.77 19L21.9 20.06L22 20.16L22.76 20.87C23 21.1 23.12 21.41 23.13 21.72Z" fill="#D10505" fill-opacity="1.000000" fill-rule="evenodd"/>
		<path id="Vector" d="M22.76 44.1L4.94 44.1C3.99 44.1 3.05 44.47 2.39 45.13C1.72 45.89 1.35 46.74 1.35 47.68C1.35 49.67 2.95 51.27 4.94 51.27L20.39 51.27C20.95 51.27 21.44 50.87 21.58 50.35C21.71 50.87 22.19 51.27 22.76 51.27C23.71 51.27 24.56 50.9 25.32 50.23C25.35 50.21 25.38 50.17 25.39 50.14C25.74 49.72 26 49.29 26.16 48.82C26.3 48.46 26.36 48.08 26.36 47.68C26.36 45.7 24.75 44.1 22.76 44.1ZM21.58 49.74C21.44 49.22 20.95 48.82 20.39 48.82L4.94 48.82C4.28 48.82 3.71 48.25 3.71 47.59C3.71 47.31 3.9 46.93 4.09 46.74C4.38 46.46 4.66 46.36 4.94 46.36L22.76 46.36C23.42 46.36 23.99 46.93 23.99 47.59C23.99 47.97 23.8 48.25 23.61 48.44C23.33 48.72 23.04 48.82 22.76 48.82C22.19 48.82 21.71 49.22 21.58 49.74Z" fill="#D10505" fill-opacity="1.000000" fill-rule="evenodd"/>
		<path id="Vector" d="M34.6 48.82L20.4 48.82C19.45 48.82 18.5 49.2 17.83 49.86C17.75 49.95 17.67 50.05 17.6 50.14C17.33 50.5 17.12 50.88 16.99 51.27C16.86 51.63 16.79 52.01 16.79 52.41C16.79 54.39 18.4 55.99 20.4 55.99L34.6 55.99C35.55 55.99 36.4 55.62 37.16 54.96C37.83 54.2 38.2 53.35 38.2 52.41C38.2 50.42 36.6 48.82 34.6 48.82ZM19.16 52.5C19.16 52.22 19.34 51.84 19.54 51.65C19.82 51.37 20.1 51.27 20.4 51.27L34.6 51.27C35.27 51.27 35.84 51.84 35.84 52.5C35.84 52.88 35.65 53.16 35.45 53.35C35.17 53.63 34.89 53.73 34.6 53.73L20.4 53.73C19.73 53.73 19.16 53.16 19.16 52.5Z" fill="#D10505" fill-opacity="1.000000" fill-rule="evenodd"/>
	</g>
</svg>
