<svg width="262.222168" height="60.000000" viewBox="0 0 262.222 60" fill="none" xmlns="http://www.w3.org/2000/svg" xmlns:xlink="http://www.w3.org/1999/xlink">
	<desc>
			Created with Pixso.
	</desc>
	<defs>
		<clipPath id="clip6_582">
			<rect id="logo-a69df2c8ccf6258476f4cf35a36dde9992f5f04c6ec5aac401d2ff7baff6ccbb" rx="-0.500000" width="261.222229" height="59.000000" transform="translate(0.500000 0.500000)" fill="white" fill-opacity="0"/>
		</clipPath>
	</defs>
	<rect id="logo-a69df2c8ccf6258476f4cf35a36dde9992f5f04c6ec5aac401d2ff7baff6ccbb" rx="-0.500000" width="261.222229" height="59.000000" transform="translate(0.500000 0.500000)" fill="#FFFFFF" fill-opacity="0"/>
	<g clip-path="url(#clip6_582)">
		<path id="Vector" d="M170.05 23.51L173.57 2.22C176.71 5.92 185.6 15.92 191.53 22.59C204.86 22.22 219.12 21.85 234.12 22.03C244.12 13.51 259.31 0.74 259.31 0.74L231.16 0.74C231.16 0.74 214.12 15.18 213.38 15.92C212.64 15.18 200.42 0.74 200.42 0.74L155.6 0.74C155.6 0.74 131.9 19.62 131.16 20.18C130.42 19.44 113.2 0.74 113.2 0.74L95.23 0.74L89.86 32.4C112.27 28.33 138.75 25.18 170.05 23.51Z" fill="#FFFFFF" fill-opacity="1.000000" fill-rule="nonzero"/>
		<path id="Vector" d="M49.49 20.74C50.23 22.59 53.93 33.51 54.68 35.37L40.23 35.37C40.42 34.81 48.38 22.4 49.49 20.74ZM76.9 34.62L63.56 0.74L40.97 0.74L1.16 59.62C17.08 51.11 41.16 41.85 76.9 34.62Z" fill="#FFFFFF" fill-opacity="1.000000" fill-rule="nonzero"/>
		<path id="Vector" d="M88.56 39.81L85.6 57.22L79.31 41.29C71.71 42.59 64.68 43.88 58.01 45.37C59.12 48.33 63.19 59.62 63.19 59.62L106.9 59.62C106.9 59.62 109.12 46.29 110.79 36.85C103.01 37.77 95.6 38.7 88.56 39.81Z" fill="#FFFFFF" fill-opacity="1.000000" fill-rule="nonzero"/>
		<path id="Vector" d="M194.31 31.66C187.64 37.22 171.9 50.37 164.68 56.48L168.75 32.4C161.16 32.77 153.94 33.14 146.9 33.7C145.42 42.77 142.64 59.62 142.64 59.62L188.94 59.62C188.94 59.62 208.38 43.14 209.31 42.4C210.05 43.14 224.12 59.62 224.12 59.62L252.27 59.62C252.27 59.62 233.38 38.33 227.27 31.48C215.79 31.29 204.86 31.48 194.31 31.66Z" fill="#FFFFFF" fill-opacity="1.000000" fill-rule="nonzero"/>
		<path id="Vector" d="M257.64 55.92L258.01 55.92C258.56 55.92 258.93 55.74 258.93 55.18C258.93 54.81 258.75 54.44 258.01 54.44C257.82 54.44 257.64 54.44 257.64 54.44L257.64 55.92ZM257.64 58.14L257.08 58.14L257.08 54.25C257.45 54.25 257.64 54.07 258.19 54.07C258.75 54.07 259.12 54.25 259.49 54.44C259.68 54.62 259.86 54.81 259.86 55.18C259.86 55.74 259.49 55.92 259.12 56.11C259.49 56.11 259.68 56.48 259.86 57.03C260.04 57.59 260.04 57.96 260.04 57.96L259.3 57.96C259.3 57.77 259.12 57.4 259.12 57.03C258.93 56.48 258.75 56.29 258.19 56.29L257.82 56.29L257.82 58.14L257.64 58.14ZM258.19 53.14C256.71 53.14 255.42 54.44 255.42 56.11C255.42 57.77 256.71 59.07 258.19 59.07C259.68 59.07 260.97 57.77 260.97 56.11C261.16 54.44 259.86 53.14 258.19 53.14ZM258.19 52.59C260.04 52.59 261.71 54.07 261.71 56.11C261.71 58.14 260.23 59.62 258.19 59.62C256.34 59.62 254.68 58.14 254.68 56.11C254.68 54.07 256.34 52.59 258.19 52.59Z" fill="#FFFFFF" fill-opacity="1.000000" fill-rule="nonzero"/>
	</g>
</svg>
