<svg width="113.684326" height="60.000000" viewBox="0 0 113.684 60" fill="none" xmlns="http://www.w3.org/2000/svg" xmlns:xlink="http://www.w3.org/1999/xlink">
	<desc>
			Created with Pixso.
	</desc>
	<defs>
		<clipPath id="clip6_523">
			<rect id="Cisco_logo 1" rx="-0.500000" width="112.684212" height="59.000000" transform="translate(0.500000 0.500000)" fill="white" fill-opacity="0"/>
		</clipPath>
	</defs>
	<rect id="Cisco_logo 1" rx="-0.500000" width="112.684212" height="59.000000" transform="translate(0.500000 0.500000)" fill="#FFFFFF" fill-opacity="0"/>
	<g clip-path="url(#clip6_523)">
		<path id="path268" d="M37.13 39.86L32.15 39.86L32.15 59.61L37.13 59.61L37.13 39.86Z" fill="#FFFFFF" fill-opacity="1.000000" fill-rule="nonzero"/>
		<path id="use360" d="M77.33 45.52C77.13 45.41 75.52 44.46 73.14 44.46C69.91 44.46 67.68 46.7 67.68 49.73C67.68 52.67 69.82 55 73.14 55C75.48 55 77.11 54.07 77.33 53.96L77.33 59.26C76.71 59.43 75.01 59.96 72.78 59.96C67.18 59.96 62.26 56.09 62.26 49.73C62.26 43.83 66.71 39.5 72.78 39.5C75.13 39.5 76.86 40.07 77.33 40.21L77.33 45.52Z" fill="#FFFFFF" fill-opacity="1.000000" fill-rule="nonzero"/>
		<path id="path284" d="M25.3 45.52C25.09 45.41 23.49 44.46 21.11 44.46C17.88 44.46 15.64 46.7 15.64 49.73C15.64 52.67 17.79 55 21.11 55C23.45 55 25.08 54.07 25.3 53.96L25.3 59.26C24.68 59.43 22.98 59.96 20.75 59.96C15.15 59.96 10.23 56.09 10.23 49.73C10.23 43.83 14.68 39.5 20.75 39.5C23.1 39.5 24.83 40.07 25.3 40.21L25.3 45.52Z" fill="#FFFFFF" fill-opacity="1.000000" fill-rule="nonzero"/>
		<path id="path288" d="M93.01 44.54C90.05 44.54 87.85 46.86 87.85 49.73C87.85 52.6 90.05 54.93 93.01 54.93C95.96 54.93 98.16 52.6 98.16 49.73C98.16 46.86 95.96 44.54 93.01 44.54ZM103.45 49.73C103.45 55.38 99.08 59.96 93.01 59.96C86.93 59.96 82.58 55.38 82.58 49.73C82.58 44.09 86.93 39.5 93.01 39.5C99.08 39.5 103.45 44.09 103.45 49.73Z" fill="#FFFFFF" fill-opacity="1.000000" fill-rule="nonzero"/>
		<path id="path292" d="M56.04 44.35C55.96 44.32 53.86 43.74 52.14 43.74C50.14 43.74 49.06 44.41 49.06 45.36C49.06 46.56 50.52 46.98 51.34 47.24L52.72 47.68C55.95 48.71 57.43 50.93 57.43 53.33C57.43 58.29 53.06 59.96 49.25 59.96C46.6 59.96 44.11 59.47 43.87 59.42L43.87 54.88C44.31 54.99 46.4 55.61 48.57 55.61C51.06 55.61 52.2 54.89 52.2 53.77C52.2 52.76 51.21 52.19 49.97 51.8C49.67 51.7 49.22 51.56 48.91 51.45C46.13 50.58 43.82 48.95 43.82 45.68C43.82 41.98 46.58 39.5 51.18 39.5C53.61 39.5 55.89 40.09 56.04 40.13L56.04 44.35Z" fill="#FFFFFF" fill-opacity="1.000000" fill-rule="nonzero"/>
		<path id="path296" d="M4.94 18.63C4.94 17.27 3.83 16.16 2.47 16.16C1.11 16.16 0 17.27 0 18.63L0 23.81C0 25.18 1.11 26.29 2.47 26.29C3.83 26.29 4.94 25.18 4.94 23.81L4.94 18.63Z" fill="#FFFFFF" fill-opacity="1.000000" fill-rule="nonzero"/>
		<path id="path300" d="M18.54 11.82C18.54 10.46 17.43 9.35 16.06 9.35C14.7 9.35 13.59 10.46 13.59 11.82L13.59 23.81C13.59 25.18 14.7 26.28 16.06 26.28C17.43 26.28 18.54 25.18 18.54 23.81L18.54 11.82Z" fill="#FFFFFF" fill-opacity="1.000000" fill-rule="nonzero"/>
		<path id="path304" d="M32.13 2.51C32.13 1.15 31.02 0.04 29.66 0.04C28.29 0.04 27.18 1.15 27.18 2.51L27.18 28.74C27.18 30.11 28.29 31.21 29.66 31.21C31.02 31.21 32.13 30.11 32.13 28.74L32.13 2.51Z" fill="#FFFFFF" fill-opacity="1.000000" fill-rule="nonzero"/>
		<path id="path308" d="M45.73 11.82C45.73 10.46 44.61 9.35 43.25 9.35C41.89 9.35 40.78 10.46 40.78 11.82L40.78 23.81C40.78 25.18 41.89 26.28 43.25 26.28C44.61 26.28 45.73 25.18 45.73 23.81L45.73 11.82Z" fill="#FFFFFF" fill-opacity="1.000000" fill-rule="nonzero"/>
		<path id="path312" d="M59.3 18.63C59.3 17.27 58.2 16.16 56.84 16.16C55.48 16.16 54.37 17.27 54.37 18.63L54.37 23.81C54.37 25.18 55.48 26.29 56.84 26.29C58.2 26.29 59.3 25.18 59.3 23.81L59.3 18.63Z" fill="#FFFFFF" fill-opacity="1.000000" fill-rule="nonzero"/>
		<path id="path296" d="M59.31 18.63C59.31 17.27 58.2 16.16 56.84 16.16C55.47 16.16 54.36 17.27 54.36 18.63L54.36 23.81C54.36 25.18 55.47 26.29 56.84 26.29C58.2 26.29 59.31 25.18 59.31 23.81L59.31 18.63Z" fill="#FFFFFF" fill-opacity="1.000000" fill-rule="nonzero"/>
		<path id="path300" d="M72.9 11.82C72.9 10.46 71.79 9.35 70.43 9.35C69.07 9.35 67.96 10.46 67.96 11.82L67.96 23.81C67.96 25.18 69.07 26.28 70.43 26.28C71.79 26.28 72.9 25.18 72.9 23.81L72.9 11.82Z" fill="#FFFFFF" fill-opacity="1.000000" fill-rule="nonzero"/>
		<path id="path304" d="M86.5 2.51C86.5 1.15 85.39 0.04 84.02 0.04C82.66 0.04 81.55 1.15 81.55 2.51L81.55 28.74C81.55 30.11 82.66 31.21 84.02 31.21C85.39 31.21 86.5 30.11 86.5 28.74L86.5 2.51Z" fill="#FFFFFF" fill-opacity="1.000000" fill-rule="nonzero"/>
		<path id="path308" d="M100.09 11.82C100.09 10.46 98.98 9.35 97.62 9.35C96.25 9.35 95.14 10.46 95.14 11.82L95.14 23.81C95.14 25.18 96.25 26.28 97.62 26.28C98.98 26.28 100.09 25.18 100.09 23.81L100.09 11.82Z" fill="#FFFFFF" fill-opacity="1.000000" fill-rule="nonzero"/>
		<path id="path312" d="M113.67 18.63C113.67 17.27 112.57 16.16 111.21 16.16C109.85 16.16 108.74 17.27 108.74 18.63L108.74 23.81C108.74 25.18 109.85 26.29 111.21 26.29C112.57 26.29 113.67 25.18 113.67 23.81L113.67 18.63Z" fill="#FFFFFF" fill-opacity="1.000000" fill-rule="nonzero"/>
		<path id="path332" d="M110.83 57.01L110.83 57.32L109.95 57.32L109.95 59.61L109.58 59.61L109.58 57.32L108.7 57.32L108.7 57.01L110.83 57.01Z" fill="#FFFFFF" fill-opacity="1.000000" fill-rule="nonzero"/>
		<path id="path336" d="M111.01 57.01L111.58 57.01L112.36 59.14L112.37 59.14L113.12 57.01L113.68 57.01L113.68 59.61L113.31 59.61L113.31 57.48L113.3 57.48L112.51 59.61L112.16 59.61L111.39 57.48L111.38 57.48L111.38 59.61L111.01 59.61L111.01 57.01Z" fill="#FFFFFF" fill-opacity="1.000000" fill-rule="nonzero"/>
	</g>
</svg>
