<svg width="191.749756" height="60.000000" viewBox="0 0 191.75 60" fill="none" xmlns="http://www.w3.org/2000/svg" xmlns:xlink="http://www.w3.org/1999/xlink">
	<desc>
			Created with Pixso.
	</desc>
	<defs>
		<clipPath id="clip6_503">
			<rect id="citrix-registered-tm-logo" rx="-0.500000" width="190.749847" height="59.000000" transform="translate(0.500000 0.500000)" fill="white" fill-opacity="0"/>
		</clipPath>
	</defs>
	<rect id="citrix-registered-tm-logo" rx="-0.500000" width="190.749847" height="59.000000" transform="translate(0.500000 0.500000)" fill="#FFFFFF" fill-opacity="0"/>
	<g clip-path="url(#clip6_503)">
		<path id="Vector" d="M0 37.03C0 23.5 9.08 14.07 22.02 14.07C30.76 14.07 37.87 18.44 40.69 25.21C41 25.82 41.15 26.5 41.12 27.18C41.12 27.53 41.05 27.88 40.91 28.2C40.77 28.53 40.57 28.82 40.31 29.06C40.05 29.3 39.75 29.49 39.42 29.61C39.09 29.72 38.73 29.77 38.38 29.75C37.76 29.75 37.16 29.55 36.67 29.17C36.18 28.8 35.82 28.28 35.64 27.69C33.41 22.21 28.36 19.04 22.02 19.04C12.33 19.04 5.57 26.41 5.57 37.03C5.57 47.57 12.25 54.94 22.02 54.94C28.36 54.94 33.16 51.86 35.73 45.43C35.89 44.85 36.23 44.33 36.71 43.96C37.19 43.59 37.78 43.38 38.38 43.37C38.74 43.37 39.1 43.44 39.44 43.57C39.77 43.71 40.08 43.91 40.33 44.17C40.59 44.42 40.79 44.72 40.92 45.06C41.06 45.39 41.13 45.75 41.12 46.11C41.12 46.73 41 47.34 40.78 47.91C38.04 55.28 31.01 59.99 22.02 59.99C8.99 59.99 0 50.57 0 37.03Z" fill="#FFFFFF" fill-opacity="1.000000" fill-rule="nonzero"/>
		<path id="Vector" d="M73.49 56.23C73.49 58.11 72.46 59.31 70.66 59.31C68.86 59.31 67.92 58.11 67.92 56.23L67.92 3.08C67.92 1.11 68.95 0 70.75 0C72.55 0 73.49 1.11 73.49 3.08L73.49 15.18L83.08 15.18C84.79 15.18 85.82 16.12 85.82 17.67C85.82 19.21 84.79 20.15 83.08 20.15L73.49 20.15L73.49 56.23Z" fill="#FFFFFF" fill-opacity="1.000000" fill-rule="nonzero"/>
		<path id="Vector" d="M116.41 18.18C116.42 18.54 116.35 18.9 116.22 19.23C116.08 19.56 115.88 19.86 115.62 20.11C115.36 20.36 115.06 20.56 114.72 20.68C114.38 20.81 114.03 20.86 113.67 20.84C112.94 20.81 112.24 20.6 111.61 20.24C110.22 19.59 108.69 19.26 107.15 19.3C101.24 19.3 97.39 24.44 97.39 30.95L97.39 56.23C97.39 58.19 96.44 59.31 94.64 59.31C92.84 59.31 91.82 58.19 91.82 56.23L91.82 17.84C91.82 15.87 92.84 14.75 94.64 14.75C96.44 14.75 97.39 15.87 97.39 17.84L97.39 18.95C98.61 17.38 100.19 16.13 101.99 15.28C103.79 14.43 105.76 14.02 107.75 14.07C110.27 13.95 112.76 14.54 114.95 15.78C115.39 16.01 115.75 16.36 116.01 16.78C116.27 17.2 116.4 17.69 116.41 18.18Z" fill="#FFFFFF" fill-opacity="1.000000" fill-rule="nonzero"/>
		<path id="Vector" d="M122.06 17.84C122.06 15.87 123.09 14.75 124.89 14.75C126.69 14.75 127.63 15.87 127.63 17.84L127.63 56.23C127.63 58.11 126.6 59.31 124.8 59.31C123 59.31 122.06 58.11 122.06 56.23L122.06 17.84Z" fill="#FFFFFF" fill-opacity="1.000000" fill-rule="nonzero"/>
		<path id="Vector" d="M50.91 17.84C50.91 15.87 51.93 14.75 53.73 14.75C55.53 14.75 56.48 15.87 56.48 17.84L56.48 56.23C56.48 58.11 55.45 59.31 53.65 59.31C51.85 59.31 50.91 58.11 50.91 56.23L50.91 17.84Z" fill="#FFFFFF" fill-opacity="1.000000" fill-rule="nonzero"/>
		<path id="Vector" d="M58.07 4.37C58.07 6.79 56.11 8.75 53.69 8.75C51.27 8.75 49.32 6.79 49.32 4.37C49.32 1.95 51.27 0 53.69 0C56.11 0 58.07 1.95 58.07 4.37Z" fill="#FFFFFF" fill-opacity="1.000000" fill-rule="evenodd"/>
		<path id="Vector" d="M156.58 40.46L141.42 58.19C141.16 58.55 140.83 58.83 140.44 59.02C140.05 59.22 139.62 59.32 139.19 59.31C138.85 59.32 138.5 59.26 138.18 59.13C137.86 59.01 137.57 58.82 137.32 58.58C137.08 58.34 136.88 58.06 136.74 57.74C136.61 57.42 136.54 57.08 136.53 56.74C136.53 56.01 136.81 55.31 137.31 54.77L153.16 36.86L137.91 19.38C137.34 18.84 137 18.11 136.96 17.32C136.97 16.97 137.05 16.63 137.19 16.31C137.33 15.99 137.53 15.7 137.79 15.46C138.05 15.22 138.35 15.03 138.68 14.91C139 14.79 139.36 14.74 139.71 14.75C140.12 14.76 140.54 14.86 140.91 15.06C141.28 15.25 141.6 15.53 141.85 15.87L156.58 33.18L171.32 15.87C171.57 15.53 171.89 15.25 172.26 15.06C172.63 14.86 173.04 14.76 173.46 14.75C173.81 14.74 174.16 14.79 174.49 14.91C174.82 15.03 175.12 15.22 175.38 15.46C175.63 15.7 175.84 15.99 175.98 16.31C176.12 16.63 176.2 16.97 176.2 17.32C176.17 18.11 175.83 18.84 175.26 19.38L160.01 36.86L175.86 54.77C176.36 55.31 176.63 56.01 176.63 56.74C176.63 57.08 176.56 57.42 176.42 57.74C176.29 58.06 176.09 58.34 175.84 58.58C175.6 58.82 175.3 59.01 174.98 59.13C174.66 59.26 174.32 59.32 173.98 59.31C173.55 59.32 173.12 59.22 172.73 59.02C172.34 58.83 172.01 58.55 171.75 58.19L156.58 40.46Z" fill="#FFFFFF" fill-opacity="1.000000" fill-rule="nonzero"/>
		<path id="Vector" d="M160.96 4.37C160.96 6.79 159 8.75 156.58 8.75C154.17 8.75 152.21 6.79 152.21 4.37C152.21 1.95 154.17 0 156.58 0C159 0 160.96 1.95 160.96 4.37Z" fill="#FFFFFF" fill-opacity="1.000000" fill-rule="evenodd"/>
		<path id="Vector" d="M187.38 59.31C186.79 59.32 186.21 59.2 185.67 58.96C184.62 58.52 183.79 57.68 183.34 56.63C183.11 56.09 182.99 55.51 182.99 54.93C182.99 54.34 183.11 53.77 183.34 53.23C183.56 52.71 183.88 52.24 184.28 51.84C184.68 51.45 185.15 51.13 185.67 50.91C186.21 50.68 186.79 50.56 187.38 50.56C187.96 50.56 188.54 50.68 189.08 50.91C189.6 51.13 190.07 51.45 190.47 51.84C191.08 52.46 191.5 53.24 191.66 54.1C191.83 54.95 191.74 55.83 191.4 56.63C191.18 57.15 190.87 57.62 190.47 58.02C190.07 58.42 189.6 58.74 189.08 58.96C188.54 59.2 187.96 59.31 187.38 59.31ZM187.38 58.73C187.89 58.74 188.39 58.64 188.85 58.44C189.29 58.25 189.69 57.98 190.01 57.63C190.34 57.28 190.6 56.87 190.78 56.42C191.14 55.46 191.14 54.4 190.78 53.43C190.6 52.99 190.34 52.58 190.01 52.23C189.68 51.89 189.29 51.62 188.85 51.43C188.39 51.23 187.89 51.13 187.38 51.14C186.87 51.13 186.37 51.23 185.9 51.43C185.46 51.62 185.06 51.89 184.73 52.23C184.4 52.58 184.14 52.99 183.96 53.43C183.59 54.4 183.59 55.46 183.96 56.42C184.14 56.87 184.4 57.28 184.73 57.63C185.06 57.98 185.46 58.25 185.9 58.44C186.37 58.64 186.87 58.74 187.38 58.73ZM189.56 57.37L188.85 57.37L187.45 55.12L186.35 55.12L186.35 57.37L185.75 57.37L185.75 52.49L187.89 52.49C188.37 52.44 188.84 52.56 189.24 52.83C189.37 52.96 189.47 53.1 189.53 53.27C189.6 53.43 189.63 53.6 189.62 53.78C189.63 53.99 189.59 54.2 189.51 54.39C189.43 54.55 189.32 54.7 189.18 54.8C189.04 54.91 188.87 54.99 188.69 55.03C188.49 55.09 188.29 55.11 188.09 55.12L189.56 57.37ZM187.27 54.65L187.82 54.65C188.01 54.65 188.2 54.63 188.38 54.58C188.54 54.54 188.69 54.45 188.81 54.32C188.93 54.17 188.99 53.97 188.97 53.77C188.98 53.61 188.94 53.45 188.86 53.31C188.79 53.2 188.7 53.12 188.58 53.06C188.46 53 188.33 52.96 188.19 52.94C188.04 52.93 187.9 52.92 187.75 52.92L186.35 52.92L186.35 54.65L187.27 54.65Z" fill="#FFFFFF" fill-opacity="1.000000" fill-rule="nonzero"/>
	</g>
</svg>
