<svg width="260.869629" height="60.000000" viewBox="0 0 260.87 60" fill="none" xmlns="http://www.w3.org/2000/svg" xmlns:xlink="http://www.w3.org/1999/xlink">
	<desc>
			Created with Pixso.
	</desc>
	<defs>
		<clipPath id="clip6_573">
			<rect id="footer-logo" rx="-0.500000" width="259.869568" height="59.000000" transform="translate(0.500000 0.500000)" fill="white" fill-opacity="0"/>
		</clipPath>
	</defs>
	<rect id="footer-logo" rx="-0.500000" width="259.869568" height="59.000000" transform="translate(0.500000 0.500000)" fill="#FFFFFF" fill-opacity="0"/>
	<g clip-path="url(#clip6_573)">
		<path id="Vector" d="M88.84 0L103.16 0C101.77 1.51 100.43 3.06 99.06 4.59C100.32 6.18 101.57 7.78 102.82 9.37C98.74 9.38 94.66 9.37 90.57 9.37L90.57 14.38C89.99 14.38 89.42 14.38 88.84 14.38C88.84 9.59 88.84 4.79 88.84 -0.01L88.84 0Z" fill="#FFFFFF" fill-opacity="1.000000" fill-rule="nonzero"/>
		<path id="Vector" d="M95.96 5.34L96.46 7.64L94.43 6.46L92.41 7.64L92.91 5.34L91.15 3.77L93.49 3.54L94.43 1.38L95.38 3.54L97.72 3.77L95.96 5.34Z" fill="#FFFFFF" fill-opacity="1.000000" fill-rule="nonzero"/>
		<path id="Vector" d="M6.1 30.92C8.96 28.15 12.89 26.58 16.85 26.39C21.03 26.18 25.42 27.16 28.7 29.84C29.28 30.34 30 30.84 30.13 31.65C30.32 32.67 29.34 33.69 28.31 33.55C27.71 33.49 27.27 33.06 26.87 32.66C25.78 31.55 24.35 30.82 22.87 30.36C20.51 29.65 17.99 29.43 15.56 29.82C12.35 30.32 9.33 32.01 7.3 34.54C4.07 38.53 3.46 44.35 5.56 48.99C6.87 51.87 9.35 54.18 12.29 55.36C15.26 56.59 18.61 56.69 21.73 56.04C24.18 55.52 26.56 54.37 28.28 52.53C29.79 50.92 30.7 48.81 31.04 46.65C26.5 46.65 21.96 46.64 17.42 46.65C16.86 46.65 16.22 46.63 15.81 46.2C15.13 45.42 15.29 43.86 16.39 43.54C17.1 43.34 17.84 43.43 18.57 43.42C23.05 43.42 27.54 43.42 32.02 43.41C32.62 43.42 33.28 43.47 33.76 43.87C34.2 44.2 34.42 44.75 34.41 45.29C34.47 49.1 32.63 52.79 29.78 55.3C26.19 58.51 21.21 59.98 16.43 59.61C12.33 59.34 8.27 57.64 5.43 54.65C2.77 51.88 1.33 48.1 1.11 44.31L1.11 42.14C1.34 37.97 3.04 33.83 6.1 30.92Z" fill="#FFFFFF" fill-opacity="1.000000" fill-rule="nonzero"/>
		<path id="Vector" d="M52.59 26.48C56.41 26.02 60.39 26.87 63.65 28.91C66.94 30.94 69.47 34.15 70.65 37.83C72.38 43.02 71.38 49.05 67.97 53.34C66.52 55.19 64.67 56.72 62.59 57.79C59.26 59.52 55.35 60.06 51.67 59.37C47.85 58.66 44.3 56.58 41.84 53.56C39.49 50.7 38.14 47.02 38.16 43.31C38.11 39.26 39.58 35.23 42.2 32.15C44.79 29.05 48.57 26.96 52.59 26.48ZM52.61 29.76C50.6 30.1 48.68 30.91 47.04 32.12C44.57 33.95 42.77 36.65 41.98 39.62C41.27 42.26 41.36 45.12 42.28 47.71C43.45 51.11 46.07 53.98 49.36 55.43C54.03 57.55 59.9 56.67 63.71 53.21C67.5 49.88 69.05 44.32 67.69 39.48C66.77 36.15 64.51 33.21 61.53 31.45C58.88 29.86 55.66 29.25 52.61 29.76L52.61 29.76Z" fill="#FFFFFF" fill-opacity="1.000000" fill-rule="nonzero"/>
		<path id="Vector" d="M108.32 57.24C102.69 44.11 97.05 30.99 91.42 17.86C91.23 17.46 91 17.02 90.58 16.83C90.34 16.73 90.08 16.68 89.82 16.68C89.55 16.68 89.29 16.73 89.06 16.83C88.63 17.02 88.4 17.46 88.21 17.86C82.58 30.99 76.95 44.11 71.31 57.24C71.08 57.79 71.01 58.46 71.34 58.99C71.76 59.73 72.88 59.87 73.53 59.34C73.88 59.09 74.09 58.72 74.26 58.34C76.2 53.66 78.16 49 80.1 44.33C80.33 43.83 80.45 43.23 80.93 42.89C82.85 41.36 84.76 39.81 86.68 38.28C87.38 39.51 88.08 40.74 88.77 41.98C89 42.35 89.29 42.83 89.8 42.82C89.8 42.82 89.81 42.82 89.82 42.82C89.82 42.82 89.83 42.82 89.84 42.82C90.34 42.83 90.63 42.35 90.86 41.98C91.55 40.74 92.25 39.51 92.95 38.28C94.87 39.81 96.78 41.36 98.7 42.89C99.18 43.23 99.3 43.83 99.53 44.33C101.47 49 103.43 53.66 105.38 58.34C105.54 58.72 105.76 59.09 106.1 59.34C106.75 59.87 107.87 59.73 108.3 58.99C108.63 58.46 108.56 57.79 108.32 57.24ZM93.23 35.31C92.74 34.87 91.89 35.03 91.6 35.62C91.02 36.64 90.4 37.75 89.81 38.76C89.23 37.75 88.61 36.64 88.03 35.62C87.74 35.03 86.89 34.87 86.4 35.31C85.13 36.35 83.85 37.38 82.57 38.4C85.01 32.88 87.39 27.34 89.81 21.82C92.23 27.34 94.62 32.88 97.06 38.4C95.77 37.38 94.5 36.35 93.23 35.31Z" fill="#FFFFFF" fill-opacity="1.000000" fill-rule="nonzero"/>
		<path id="Vector" d="M112.92 26.62C113.5 26.27 114.28 26.28 114.88 26.59C115.5 26.95 115.63 27.75 115.63 28.41C115.63 37.7 115.63 46.99 115.63 56.29C120.52 56.28 125.41 56.29 130.31 56.29C130.97 56.3 131.75 56.39 132.15 57C132.52 57.6 132.51 58.44 132.11 59.03C131.74 59.56 131.05 59.67 130.45 59.66C124.9 59.65 119.35 59.66 113.81 59.66C112.91 59.69 112.2 58.83 112.26 57.96C112.25 48.07 112.26 38.16 112.26 28.26C112.27 27.67 112.37 26.96 112.92 26.62L112.92 26.62Z" fill="#FFFFFF" fill-opacity="1.000000" fill-rule="nonzero"/>
		<path id="Vector" d="M136.68 26.79C137.1 26.38 137.71 26.37 138.25 26.36C141.39 26.38 144.53 26.35 147.66 26.37C149.53 26.39 151.39 26.96 152.89 28.08C155.18 29.73 156.53 32.55 156.4 35.37C156.35 37.56 155.29 39.67 153.62 41.07C157.36 42.3 160.02 46.11 160 50.03C160.01 52.48 158.99 54.89 157.29 56.65C155.51 58.52 152.96 59.68 150.36 59.66C146.12 59.65 141.89 59.67 137.65 59.65C136.77 59.66 136.09 58.8 136.16 57.95C136.16 48.04 136.16 38.12 136.16 28.2C136.13 27.68 136.28 27.14 136.68 26.79L136.68 26.79ZM139.55 29.76C139.55 33.3 139.55 36.84 139.55 40.38C142.31 40.39 145.06 40.38 147.82 40.39C149.61 40.4 151.34 39.37 152.22 37.83C153.34 35.95 153.2 33.4 151.81 31.7C150.82 30.46 149.25 29.77 147.68 29.76C144.97 29.75 142.26 29.76 139.55 29.76L139.55 29.76ZM139.55 43.75C139.55 47.92 139.55 52.09 139.55 56.27C143.15 56.27 146.75 56.26 150.36 56.27C151.86 56.29 153.35 55.72 154.47 54.73C155.82 53.57 156.64 51.8 156.61 50.02C156.62 48.35 155.92 46.68 154.71 45.52C153.56 44.39 151.97 43.73 150.35 43.74C146.75 43.74 143.15 43.74 139.55 43.74L139.55 43.75Z" fill="#FFFFFF" fill-opacity="1.000000" fill-rule="nonzero"/>
		<path id="Vector" d="M178.21 26.49C183.47 25.83 189.01 27.78 192.61 31.7C194.43 33.65 195.77 36.04 196.47 38.61C197.91 43.8 196.69 49.68 193.18 53.78C189.84 57.81 184.5 60.01 179.29 59.62C174.66 59.35 170.21 57.05 167.33 53.42C165.34 50.96 164.09 47.9 163.81 44.75C163.3 39.52 165.39 34.13 169.28 30.6C171.73 28.35 174.9 26.87 178.21 26.49ZM178.35 29.75C175.15 30.22 172.19 31.97 170.17 34.48C168.17 36.96 167.07 40.13 167.1 43.31C167.11 46.63 168.4 49.93 170.67 52.36C172.33 54.16 174.51 55.49 176.88 56.11C179.24 56.75 181.76 56.72 184.1 56.05C186.87 55.28 189.36 53.56 191.07 51.25C194.1 47.22 194.62 41.46 192.29 36.98C190.99 34.43 188.87 32.3 186.32 31.02C183.88 29.78 181.05 29.32 178.35 29.75Z" fill="#FFFFFF" fill-opacity="1.000000" fill-rule="nonzero"/>
		<path id="Vector" d="M215.96 26.42C220.78 26.02 225.77 27.77 229.19 31.21C231.22 33.19 232.71 35.71 233.49 38.43C234.92 43.37 233.95 48.96 230.83 53.07C229.41 54.97 227.56 56.55 225.47 57.67C220.54 60.35 214.26 60.33 209.36 57.6C205.08 55.28 201.91 50.99 201.07 46.18C200.08 40.83 201.86 35.06 205.71 31.22C208.39 28.44 212.11 26.69 215.96 26.42L215.96 26.42ZM215.44 29.74C212.85 30.12 210.39 31.34 208.48 33.14C204.85 36.51 203.32 41.92 204.61 46.7C205.24 49.1 206.56 51.32 208.38 53.03C210.19 54.72 212.49 55.9 214.93 56.35C217.79 56.88 220.82 56.49 223.42 55.19C225.56 54.15 227.38 52.49 228.67 50.49C230.16 48.16 230.9 45.37 230.81 42.6C230.69 37.99 227.97 33.58 223.95 31.32C221.4 29.86 218.35 29.28 215.44 29.74L215.44 29.74Z" fill="#FFFFFF" fill-opacity="1.000000" fill-rule="nonzero"/>
		<path id="Vector" d="M238.12 27.13C238.53 26.35 239.6 26.2 240.35 26.52C241.04 26.84 241.17 27.7 241.18 28.4C241.18 32.09 241.17 35.78 241.18 39.48C244.61 35.82 248.04 32.18 251.47 28.53C252.05 27.95 252.57 27.29 253.2 26.75C253.86 26.18 254.98 26.25 255.48 26.98C255.95 27.63 255.8 28.57 255.24 29.11C251.28 33.13 247.34 37.17 243.37 41.18C247.51 45.97 251.64 50.77 255.78 55.57C256.34 56.26 257.1 56.88 257.29 57.8L257.29 58.54C257.14 58.91 256.92 59.3 256.54 59.49C255.83 59.86 254.93 59.58 254.45 58.97C250.03 53.71 245.61 48.45 241.18 43.19C241.17 48.03 241.18 52.87 241.18 57.71C241.16 58.27 241.12 58.93 240.66 59.32C240.09 59.76 239.28 59.75 238.65 59.46C238.06 59.17 237.86 58.47 237.87 57.86C237.87 48.33 237.88 38.8 237.87 29.27C237.88 28.56 237.78 27.79 238.12 27.13L238.12 27.13Z" fill="#FFFFFF" fill-opacity="1.000000" fill-rule="nonzero"/>
	</g>
</svg>
