<svg width="281.439453" height="60.000000" viewBox="0 0 281.439 60" fill="none" xmlns="http://www.w3.org/2000/svg" xmlns:xlink="http://www.w3.org/1999/xlink">
	<desc>
			Created with Pixso.
	</desc>
	<defs>
		<clipPath id="clip6_562">
			<rect id="logo-white" rx="-0.500000" width="280.439423" height="59.000000" transform="translate(0.500000 0.500000)" fill="white" fill-opacity="0"/>
		</clipPath>
	</defs>
	<rect id="logo-white" rx="-0.500000" width="280.439423" height="59.000000" transform="translate(0.500000 0.500000)" fill="#FFFFFF" fill-opacity="0"/>
	<g clip-path="url(#clip6_562)">
		<mask id="mask6_525" mask-type="alpha" maskUnits="userSpaceOnUse" x="0.000000" y="0.000000" width="281.439453" height="60.000000">
			<path id="Rectangle 51" d="M0 0L281.43 0L281.43 60L0 60L0 0Z" fill="#000000" fill-opacity="1.000000" fill-rule="evenodd"/>
		</mask>
		<g mask="url(#mask6_525)">
			<path id="Path 4" d="M28.51 17.05L28.81 17.13C30.87 7.99 35.54 5.17 39.13 4.43C38.53 3.11 37.55 1.99 36.33 1.2C35.11 0.41 33.68 0 32.23 0L7.6 0C5.58 0 3.65 0.8 2.22 2.22C0.8 3.65 0 5.58 0 7.59L0 32.23C0 34.25 0.8 36.18 2.22 37.6C3.65 39.03 5.58 39.83 7.6 39.83L11.06 39.83C11.98 38 12.55 36.02 12.76 33.98C15.1 13.27 28.51 17.05 28.51 17.05L28.51 17.05ZM21.35 28.72C21.27 29.41 21.18 30.07 21.08 30.71C27.35 30.84 28.1 21.4 28.1 21.4C28.18 20.71 28.27 20.05 28.37 19.41C22.1 19.28 21.35 28.73 21.35 28.73L21.35 28.72ZM36.69 16.12C34.34 36.83 20.93 33.05 20.93 33.05L20.63 32.98C20.13 35.38 19.26 37.69 18.04 39.82L32.23 39.82C33.23 39.82 34.21 39.63 35.14 39.24C36.06 38.86 36.9 38.3 37.6 37.6C38.31 36.89 38.87 36.05 39.25 35.13C39.63 34.21 39.83 33.22 39.83 32.22L39.83 8.33C37.09 10.98 36.69 16.12 36.69 16.12L36.69 16.12Z" fill="#FFFFFF" fill-opacity="1.000000" fill-rule="nonzero"/>
			<path id="Path 5" d="M71.21 18.8C71.29 20.33 71 21.85 70.38 23.24C69.75 24.63 68.8 25.85 67.61 26.81C65.01 28.78 61.81 29.78 58.54 29.66L52.26 29.66L52.26 39.83L46.69 39.83L46.69 8.17L59.18 8.17C62.86 8.17 65.78 9.13 67.95 11.06C69.03 12.03 69.89 13.23 70.45 14.57C71.01 15.91 71.27 17.35 71.21 18.8ZM65.56 18.94C65.6 18.14 65.46 17.34 65.14 16.6C64.82 15.87 64.34 15.22 63.72 14.71C62.28 13.66 60.51 13.14 58.73 13.24L52.26 13.24L52.26 24.64L58.73 24.64C60.52 24.74 62.28 24.18 63.7 23.08C64.31 22.58 64.79 21.95 65.11 21.23C65.43 20.51 65.58 19.73 65.55 18.94L65.56 18.94Z" fill="#FFFFFF" fill-opacity="1.000000" fill-rule="nonzero"/>
			<path id="Path 6" d="M92.92 39.84L87.5 39.84L87.5 36.9C86.56 38.02 85.37 38.92 84.03 39.51C82.69 40.11 81.23 40.39 79.76 40.33C77.58 40.4 75.45 39.71 73.72 38.37C72.91 37.72 72.27 36.9 71.84 35.96C71.41 35.02 71.21 33.99 71.26 32.96L71.26 32.87C71.19 31.77 71.41 30.67 71.87 29.67C72.34 28.67 73.04 27.81 73.93 27.15C75.99 25.75 78.45 25.06 80.94 25.18C83.18 25.17 85.41 25.5 87.55 26.17L87.55 25.59C87.59 24.88 87.48 24.17 87.22 23.52C86.96 22.86 86.55 22.27 86.03 21.79C84.78 20.83 83.23 20.37 81.67 20.47C79.31 20.51 76.99 21.02 74.83 21.97L73.34 17.58C76.19 16.27 79.29 15.6 82.43 15.59C85.9 15.59 88.52 16.46 90.28 18.21C92.05 19.96 92.93 22.45 92.93 25.68L92.92 39.84ZM87.63 31.19L87.63 29.7C85.88 29.05 84.03 28.73 82.16 28.75C80.74 28.67 79.34 29.03 78.13 29.77C77.67 30.08 77.29 30.5 77.04 31C76.79 31.49 76.66 32.04 76.68 32.6L76.68 32.69C76.67 33.19 76.78 33.69 77.01 34.14C77.24 34.59 77.58 34.98 78 35.26C78.97 35.93 80.12 36.26 81.3 36.21C82.93 36.28 84.53 35.78 85.84 34.81C86.41 34.39 86.86 33.85 87.17 33.22C87.49 32.59 87.64 31.89 87.63 31.19L87.63 31.19Z" fill="#FFFFFF" fill-opacity="1.000000" fill-rule="nonzero"/>
			<path id="Path 7" d="M116.31 18.82C118.51 21.07 119.61 24.09 119.61 27.89C119.61 31.69 118.51 34.72 116.31 36.96C115.31 38.04 114.1 38.89 112.75 39.47C111.41 40.05 109.95 40.34 108.48 40.33C106.89 40.35 105.32 39.97 103.91 39.24C102.5 38.51 101.29 37.44 100.38 36.13L100.38 47.07L94.91 47.07L94.91 15.95L100.38 15.95L100.38 19.93C102.5 16.95 105.2 15.45 108.48 15.45C109.95 15.44 111.4 15.74 112.75 16.32C114.1 16.9 115.31 17.75 116.31 18.82L116.31 18.82ZM114.05 27.89C114.14 25.85 113.42 23.85 112.06 22.33C111.45 21.65 110.7 21.11 109.87 20.74C109.03 20.37 108.13 20.19 107.22 20.2C106.29 20.19 105.37 20.38 104.52 20.75C103.67 21.12 102.91 21.66 102.29 22.35C100.9 23.86 100.17 25.85 100.25 27.89C100.17 29.94 100.9 31.93 102.29 33.43C102.91 34.12 103.67 34.67 104.52 35.04C105.37 35.41 106.29 35.6 107.22 35.58C108.13 35.6 109.04 35.42 109.88 35.06C110.71 34.7 111.47 34.16 112.08 33.48C113.44 31.95 114.15 29.94 114.05 27.89L114.05 27.89Z" fill="#FFFFFF" fill-opacity="1.000000" fill-rule="nonzero"/>
			<path id="Path 8" d="M126.44 29.84C126.65 31.55 127.47 33.14 128.75 34.29C130.02 35.37 131.65 35.95 133.32 35.9C134.53 35.87 135.73 35.61 136.84 35.12C137.95 34.63 138.95 33.93 139.79 33.04L143 35.9C141.83 37.35 140.34 38.51 138.64 39.28C136.95 40.06 135.1 40.44 133.23 40.38C131.61 40.42 130 40.14 128.5 39.54C126.99 38.94 125.63 38.04 124.48 36.89C123.31 35.72 122.4 34.32 121.8 32.78C121.19 31.24 120.91 29.59 120.97 27.94C120.89 24.67 122.07 21.49 124.28 19.07C125.32 17.89 126.62 16.96 128.06 16.34C129.51 15.71 131.07 15.41 132.64 15.45C136.29 15.45 139.11 16.68 141.11 19.14C143.15 21.76 144.21 25.02 144.09 28.35C144.09 28.62 144.06 29.12 144 29.84L126.44 29.84ZM126.4 26.22L138.66 26.22C138.55 24.55 137.9 22.96 136.8 21.69C136.28 21.11 135.62 20.65 134.9 20.34C134.17 20.04 133.38 19.9 132.6 19.93C131.82 19.91 131.05 20.06 130.33 20.36C129.61 20.66 128.97 21.11 128.43 21.67C127.28 22.92 126.56 24.52 126.4 26.22L126.4 26.22Z" fill="#FFFFFF" fill-opacity="1.000000" fill-rule="nonzero"/>
			<path id="Path 9" d="M151.33 30.74L151.33 39.84L145.86 39.84L145.86 15.95L151.33 15.95L151.33 21.33C153.02 17.26 155.84 15.32 159.79 15.5L159.79 21.29L159.47 21.29C158.37 21.24 157.27 21.43 156.24 21.85C155.22 22.27 154.3 22.9 153.55 23.71C152.07 25.32 151.33 27.67 151.33 30.75L151.33 30.74Z" fill="#FFFFFF" fill-opacity="1.000000" fill-rule="nonzero"/>
			<path id="Path 10" d="M167.16 16.45C167.14 17.02 167.26 17.6 167.53 18.11C167.79 18.62 168.19 19.05 168.67 19.36C170.55 20.36 172.57 21.07 174.67 21.47C178.16 22.31 180.74 23.44 182.38 24.86C183.21 25.6 183.86 26.52 184.29 27.54C184.72 28.57 184.91 29.68 184.85 30.79C184.9 32.11 184.65 33.42 184.11 34.63C183.57 35.84 182.75 36.9 181.72 37.74C179.38 39.53 176.48 40.43 173.54 40.29C168.65 40.35 163.92 38.54 160.33 35.22L163.67 31.24C166.84 33.99 170.17 35.36 173.67 35.36C175.12 35.44 176.55 35.06 177.77 34.28C178.25 33.95 178.64 33.51 178.91 33C179.17 32.49 179.3 31.91 179.29 31.34C179.3 30.78 179.18 30.22 178.93 29.72C178.67 29.23 178.3 28.8 177.84 28.48C176.87 27.79 174.97 27.11 172.14 26.45C168.46 25.54 165.78 24.42 164.1 23.1C162.43 21.77 161.6 19.72 161.6 16.95C161.56 15.68 161.81 14.41 162.33 13.26C162.86 12.1 163.64 11.08 164.62 10.27C166.82 8.51 169.59 7.6 172.41 7.72C176.58 7.66 180.65 9.07 183.9 11.7L180.91 15.91C177.98 13.73 175.12 12.65 172.31 12.65C170.97 12.57 169.64 12.96 168.54 13.73C168.11 14.04 167.76 14.45 167.52 14.92C167.28 15.4 167.16 15.92 167.16 16.45Z" fill="#FFFFFF" fill-opacity="1.000000" fill-rule="nonzero"/>
			<path id="Path 11" d="M192.63 20.65L192.63 32.37C192.63 34.36 193.61 35.36 195.57 35.36C196.75 35.35 197.91 35.08 198.96 34.54L198.96 39.02C197.45 39.85 195.75 40.27 194.03 40.24C189.45 40.24 187.15 37.91 187.15 33.23L187.15 20.65L184.12 20.65L184.12 15.95L187.15 15.95L187.15 9.39L192.63 9.39L192.63 15.95L199.05 15.95L199.05 20.65L192.63 20.65Z" fill="#FFFFFF" fill-opacity="1.000000" fill-rule="nonzero"/>
			<path id="Path 12" d="M206.2 30.74L206.2 39.84L200.72 39.84L200.72 15.95L206.2 15.95L206.2 21.33C207.89 17.26 210.71 15.32 214.66 15.5L214.66 21.29L214.35 21.29C213.24 21.24 212.14 21.43 211.12 21.85C210.09 22.27 209.17 22.9 208.42 23.71C206.94 25.32 206.2 27.67 206.2 30.75L206.2 30.74Z" fill="#FFFFFF" fill-opacity="1.000000" fill-rule="nonzero"/>
			<path id="Path 13" d="M221.08 29.84C221.29 31.55 222.11 33.14 223.39 34.29C224.66 35.37 226.29 35.95 227.96 35.9C229.17 35.87 230.37 35.61 231.48 35.12C232.59 34.63 233.59 33.93 234.43 33.04L237.63 35.9C236.46 37.35 234.97 38.51 233.27 39.28C231.58 40.06 229.73 40.43 227.86 40.37C226.24 40.42 224.63 40.13 223.13 39.53C221.62 38.93 220.25 38.03 219.11 36.89C217.94 35.72 217.03 34.32 216.43 32.77C215.82 31.23 215.54 29.59 215.6 27.93C215.52 24.66 216.7 21.48 218.91 19.07C219.95 17.89 221.25 16.96 222.69 16.33C224.14 15.71 225.7 15.41 227.27 15.45C230.92 15.45 233.75 16.68 235.74 19.13C237.79 21.76 238.84 25.02 238.72 28.35C238.72 28.62 238.69 29.12 238.64 29.84L221.08 29.84ZM221.04 26.22L233.3 26.22C233.19 24.55 232.54 22.96 231.44 21.69C230.91 21.11 230.26 20.65 229.53 20.34C228.81 20.04 228.02 19.9 227.23 19.93C226.46 19.91 225.68 20.06 224.97 20.36C224.25 20.66 223.61 21.11 223.07 21.67C221.92 22.92 221.2 24.52 221.04 26.22L221.04 26.22Z" fill="#FFFFFF" fill-opacity="1.000000" fill-rule="nonzero"/>
			<path id="Path 14" d="M245.69 29.84C245.89 31.55 246.71 33.14 248 34.29C249.27 35.38 250.9 35.95 252.57 35.9C253.78 35.87 254.98 35.61 256.09 35.12C257.2 34.63 258.2 33.93 259.03 33.04L262.25 35.9C261.07 37.35 259.58 38.51 257.89 39.28C256.19 40.06 254.34 40.43 252.48 40.37C250.86 40.42 249.24 40.13 247.74 39.53C246.23 38.93 244.87 38.03 243.72 36.89C242.56 35.72 241.64 34.32 241.04 32.77C240.44 31.23 240.16 29.59 240.22 27.93C240.13 24.66 241.31 21.48 243.52 19.07C244.57 17.89 245.86 16.96 247.3 16.33C248.75 15.71 250.31 15.41 251.89 15.45C255.54 15.45 258.36 16.68 260.35 19.13C262.4 21.76 263.45 25.02 263.33 28.35C263.33 28.62 263.3 29.12 263.24 29.84L245.69 29.84ZM245.64 26.22L257.9 26.22C257.79 24.55 257.14 22.96 256.05 21.69C255.52 21.11 254.87 20.65 254.14 20.34C253.41 20.04 252.63 19.9 251.84 19.93C251.06 19.91 250.29 20.06 249.58 20.36C248.86 20.66 248.21 21.11 247.68 21.67C246.52 22.92 245.81 24.52 245.64 26.22L245.64 26.22Z" fill="#FFFFFF" fill-opacity="1.000000" fill-rule="nonzero"/>
			<path id="Path 15" d="M271.84 20.65L271.84 32.37C271.84 34.36 272.82 35.36 274.78 35.36C275.96 35.35 277.12 35.08 278.17 34.54L278.17 39.02C276.66 39.85 274.96 40.27 273.24 40.24C268.66 40.24 266.36 37.91 266.37 33.23L266.37 20.65L263.34 20.65L263.34 15.95L266.37 15.95L266.37 9.39L271.84 9.39L271.84 15.95L278.26 15.95L278.26 20.65L271.84 20.65Z" fill="#FFFFFF" fill-opacity="1.000000" fill-rule="nonzero"/>
			<path id="Path 16" d="M104.09 49.36L104.96 49.36L107.4 56.45L109.84 49.33L110.45 49.33L112.89 56.45L115.33 49.36L116.17 49.36L113.21 57.49L112.54 57.49L110.14 50.58L107.72 57.49L107.05 57.49L104.09 49.36Z" fill="#FFFFFF" fill-opacity="1.000000" fill-rule="nonzero"/>
			<path id="Path 17" d="M116.93 53.41L116.93 53.38C116.9 52.85 116.97 52.32 117.15 51.82C117.33 51.32 117.6 50.86 117.96 50.47C118.32 50.08 118.75 49.76 119.23 49.54C119.71 49.31 120.23 49.19 120.76 49.17C123.03 49.17 124.46 51.01 124.46 53.4C124.47 53.5 124.46 53.61 124.45 53.71L117.75 53.71C117.76 54.55 118.09 55.36 118.68 55.95C119.28 56.55 120.08 56.88 120.92 56.89C121.44 56.9 121.96 56.78 122.44 56.57C122.92 56.35 123.35 56.03 123.69 55.63L124.22 56.1C123.81 56.59 123.3 56.98 122.72 57.24C122.15 57.5 121.52 57.63 120.88 57.62C120.34 57.61 119.81 57.49 119.32 57.28C118.82 57.06 118.38 56.75 118.01 56.35C117.64 55.96 117.35 55.5 117.17 54.99C116.98 54.48 116.9 53.95 116.93 53.41L116.93 53.41ZM123.62 53.01C123.51 51.38 122.58 49.88 120.72 49.88C119.92 49.92 119.17 50.27 118.61 50.85C118.06 51.44 117.75 52.21 117.75 53.01L123.62 53.01Z" fill="#FFFFFF" fill-opacity="1.000000" fill-rule="nonzero"/>
			<path id="Path 18" d="M126.97 55.69L126.97 57.43L126.19 57.43L126.19 45.88L126.97 45.88L126.97 51.16C127.3 50.57 127.78 50.07 128.37 49.73C128.95 49.38 129.61 49.19 130.29 49.17C130.83 49.18 131.35 49.3 131.84 49.52C132.33 49.74 132.77 50.05 133.13 50.44C133.5 50.83 133.78 51.29 133.97 51.8C134.15 52.3 134.24 52.83 134.21 53.37L134.21 53.4C134.24 53.94 134.15 54.47 133.97 54.98C133.78 55.48 133.5 55.94 133.14 56.33C132.77 56.73 132.33 57.04 131.84 57.27C131.36 57.49 130.83 57.61 130.29 57.62C129.62 57.62 128.96 57.44 128.37 57.1C127.79 56.76 127.31 56.28 126.97 55.69L126.97 55.69ZM133.38 53.43L133.38 53.4C133.41 52.96 133.35 52.52 133.21 52.1C133.06 51.69 132.84 51.3 132.54 50.98C132.25 50.65 131.89 50.39 131.49 50.21C131.09 50.03 130.65 49.93 130.21 49.92C129.32 49.94 128.47 50.32 127.85 50.97C127.23 51.62 126.9 52.49 126.92 53.38L126.92 53.41C126.91 53.86 126.98 54.3 127.14 54.71C127.3 55.13 127.54 55.51 127.85 55.83C128.15 56.15 128.52 56.41 128.92 56.59C129.33 56.77 129.77 56.87 130.21 56.88C130.65 56.88 131.09 56.79 131.49 56.62C131.9 56.44 132.26 56.18 132.56 55.86C132.86 55.53 133.09 55.15 133.23 54.73C133.37 54.31 133.42 53.87 133.38 53.43Z" fill="#FFFFFF" fill-opacity="1.000000" fill-rule="nonzero"/>
			<path id="Rectangle 48" d="M135.77 56.09L136.81 56.09L136.81 57.43L135.77 57.43L135.77 56.09Z" fill="#FFFFFF" fill-opacity="1.000000" fill-rule="evenodd"/>
			<path id="Path 19" d="M143.25 49.36L144.03 49.36L144.03 50.8C144.28 50.3 144.66 49.89 145.14 49.6C145.62 49.31 146.16 49.16 146.72 49.17C147.29 49.16 147.86 49.32 148.35 49.63C148.83 49.94 149.21 50.38 149.44 50.91C149.72 50.38 150.13 49.93 150.65 49.62C151.16 49.32 151.75 49.16 152.35 49.17C154.27 49.17 155.46 50.52 155.46 52.54L155.46 57.43L154.68 57.43L154.68 52.64C154.68 50.89 153.78 49.88 152.29 49.88C151.93 49.89 151.58 49.97 151.25 50.12C150.92 50.27 150.63 50.48 150.39 50.75C150.15 51.02 149.97 51.33 149.86 51.67C149.75 52.01 149.71 52.38 149.74 52.73L149.74 57.43L148.97 57.43L148.97 52.59C148.97 50.91 148.05 49.88 146.61 49.88C146.25 49.9 145.89 49.99 145.57 50.14C145.24 50.3 144.95 50.52 144.71 50.79C144.47 51.06 144.29 51.37 144.17 51.71C144.06 52.06 144.01 52.42 144.03 52.78L144.03 57.43L143.25 57.43L143.25 49.36Z" fill="#FFFFFF" fill-opacity="1.000000" fill-rule="nonzero"/>
			<path id="Path 20" d="M157.1 55.09L157.1 55.06C157.1 53.38 158.54 52.43 160.63 52.43C161.53 52.42 162.43 52.54 163.31 52.78L163.31 52.43C163.31 50.8 162.31 49.96 160.65 49.96C159.76 49.97 158.89 50.19 158.12 50.61L157.83 49.93C158.72 49.48 159.7 49.24 160.7 49.23C161.16 49.2 161.62 49.27 162.06 49.42C162.5 49.57 162.9 49.81 163.24 50.12C163.53 50.42 163.75 50.78 163.89 51.17C164.03 51.56 164.09 51.98 164.06 52.4L164.06 57.43L163.31 57.43L163.31 56.08C162.96 56.57 162.49 56.97 161.95 57.24C161.42 57.5 160.82 57.64 160.22 57.62C158.72 57.62 157.1 56.76 157.1 55.09L157.1 55.09ZM163.32 54.41L163.32 53.49C162.43 53.25 161.51 53.13 160.58 53.13C158.88 53.13 157.93 53.89 157.93 55.01L157.93 55.04C157.93 56.21 159.03 56.89 160.27 56.89C161.91 56.89 163.32 55.88 163.32 54.41L163.32 54.41Z" fill="#FFFFFF" fill-opacity="1.000000" fill-rule="nonzero"/>
			<path id="Path 21" d="M166.31 49.36L167.09 49.36L167.09 51.66C167.37 50.94 167.87 50.32 168.5 49.89C169.14 49.46 169.9 49.23 170.67 49.23L170.67 50.09L170.59 50.09C168.72 50.09 167.09 51.5 167.09 54.12L167.09 57.43L166.31 57.43L166.31 49.36Z" fill="#FFFFFF" fill-opacity="1.000000" fill-rule="nonzero"/>
			<path id="Path 22" d="M172.11 45.88L172.88 45.88L172.88 54.53L177.88 49.36L178.91 49.36L175.38 52.93L179.02 57.43L178.04 57.43L174.85 53.49L172.89 55.47L172.89 57.43L172.11 57.43L172.11 45.88Z" fill="#FFFFFF" fill-opacity="1.000000" fill-rule="nonzero"/>
			<path id="Path 23" d="M179.48 53.41L179.48 53.38C179.45 52.85 179.53 52.32 179.7 51.82C179.88 51.32 180.16 50.86 180.51 50.47C180.87 50.08 181.3 49.76 181.78 49.54C182.26 49.31 182.79 49.19 183.32 49.17C185.58 49.17 187.02 51.01 187.02 53.4C187.02 53.5 187.02 53.61 187 53.71L180.31 53.71C180.31 54.55 180.65 55.36 181.24 55.95C181.83 56.55 182.63 56.88 183.47 56.89C184 56.9 184.52 56.78 185 56.57C185.47 56.35 185.9 56.03 186.24 55.63L186.78 56.1C186.37 56.59 185.86 56.98 185.28 57.24C184.7 57.5 184.07 57.63 183.44 57.62C182.9 57.61 182.37 57.49 181.87 57.28C181.38 57.06 180.93 56.75 180.56 56.35C180.19 55.96 179.91 55.5 179.72 54.99C179.54 54.48 179.45 53.95 179.48 53.41L179.48 53.41ZM186.17 53.01C186.06 51.38 185.13 49.88 183.28 49.88C182.48 49.92 181.72 50.27 181.17 50.85C180.61 51.44 180.31 52.21 180.3 53.01L186.17 53.01Z" fill="#FFFFFF" fill-opacity="1.000000" fill-rule="nonzero"/>
			<path id="Path 24" d="M189.17 55.36L189.17 50.07L188 50.07L188 49.36L189.17 49.36L189.17 46.78L189.95 46.78L189.95 49.36L192.78 49.36L192.78 50.07L189.95 50.07L189.95 55.28C189.92 55.49 189.95 55.71 190.02 55.92C190.09 56.12 190.21 56.31 190.37 56.46C190.52 56.61 190.71 56.72 190.92 56.79C191.13 56.86 191.35 56.88 191.56 56.84C191.97 56.84 192.38 56.74 192.75 56.56L192.75 57.29C192.34 57.48 191.89 57.58 191.43 57.57C191.13 57.6 190.83 57.57 190.55 57.47C190.26 57.37 190 57.21 189.79 56.99C189.57 56.78 189.4 56.53 189.3 56.24C189.19 55.96 189.15 55.66 189.17 55.36Z" fill="#FFFFFF" fill-opacity="1.000000" fill-rule="nonzero"/>
			<path id="Path 25" d="M194.55 46.2L195.52 46.2L195.52 47.25L194.55 47.25L194.55 46.2ZM194.65 49.36L195.43 49.36L195.43 57.43L194.65 57.43L194.65 49.36Z" fill="#FFFFFF" fill-opacity="1.000000" fill-rule="nonzero"/>
			<path id="Path 26" d="M197.94 49.36L198.71 49.36L198.71 50.86C198.99 50.34 199.41 49.9 199.93 49.6C200.44 49.3 201.03 49.15 201.63 49.17C202.06 49.15 202.5 49.22 202.91 49.38C203.32 49.54 203.69 49.78 204 50.1C204.3 50.42 204.54 50.79 204.69 51.21C204.83 51.62 204.89 52.06 204.85 52.5L204.85 57.44L204.08 57.44L204.08 52.64C204.12 52.28 204.09 51.92 203.97 51.58C203.86 51.24 203.68 50.93 203.44 50.66C203.19 50.4 202.89 50.2 202.56 50.06C202.23 49.93 201.87 49.87 201.52 49.88C201.14 49.88 200.77 49.95 200.42 50.09C200.07 50.24 199.76 50.45 199.5 50.72C199.23 50.99 199.03 51.31 198.9 51.66C198.76 52.02 198.7 52.39 198.72 52.77L198.72 57.43L197.94 57.43L197.94 49.36Z" fill="#FFFFFF" fill-opacity="1.000000" fill-rule="nonzero"/>
			<path id="Path 27" d="M206.95 58.76L207.41 58.13C208.33 58.86 209.48 59.26 210.66 59.27C211.09 59.31 211.51 59.25 211.91 59.11C212.31 58.97 212.68 58.74 212.98 58.44C213.28 58.14 213.51 57.78 213.66 57.38C213.81 56.98 213.87 56.56 213.83 56.13L213.83 54.96C213.47 55.53 212.97 56 212.38 56.33C211.79 56.66 211.13 56.83 210.46 56.83C209.95 56.84 209.45 56.75 208.98 56.56C208.52 56.37 208.09 56.1 207.73 55.74C207.37 55.39 207.08 54.97 206.88 54.5C206.69 54.04 206.58 53.54 206.58 53.04L206.58 53C206.58 52.5 206.68 51.99 206.88 51.53C207.08 51.06 207.36 50.64 207.72 50.28C208.08 49.92 208.51 49.64 208.98 49.45C209.45 49.26 209.95 49.17 210.46 49.17C211.13 49.17 211.78 49.33 212.37 49.65C212.96 49.96 213.46 50.42 213.83 50.98L213.83 49.36L214.6 49.36L214.6 56.18C214.63 56.68 214.55 57.18 214.37 57.66C214.19 58.13 213.92 58.56 213.58 58.92C212.78 59.65 211.73 60.04 210.65 60C209.31 60 208.01 59.57 206.95 58.76ZM213.88 53.02L213.88 52.99C213.86 52.56 213.76 52.15 213.58 51.77C213.41 51.39 213.16 51.04 212.85 50.76C212.54 50.47 212.17 50.25 211.78 50.11C211.38 49.96 210.96 49.9 210.54 49.92C210.13 49.9 209.72 49.96 209.34 50.11C208.96 50.25 208.61 50.48 208.32 50.76C208.02 51.05 207.79 51.39 207.64 51.77C207.49 52.15 207.41 52.56 207.42 52.97L207.42 53C207.42 53.41 207.5 53.81 207.65 54.19C207.81 54.57 208.04 54.91 208.33 55.2C208.62 55.49 208.97 55.71 209.35 55.87C209.72 56.02 210.13 56.09 210.54 56.09C211.39 56.12 212.22 55.81 212.84 55.24C213.47 54.66 213.84 53.86 213.88 53.02Z" fill="#FFFFFF" fill-opacity="1.000000" fill-rule="nonzero"/>
			<path id="Rectangle 49" d="M216.84 56.09L217.88 56.09L217.88 57.43L216.84 57.43L216.84 56.09Z" fill="#FFFFFF" fill-opacity="1.000000" fill-rule="evenodd"/>
			<path id="Path 28" d="M223.77 53.43L223.77 53.4C223.76 52.29 224.19 51.23 224.96 50.44C225.73 49.64 226.78 49.19 227.89 49.17C228.5 49.17 229.11 49.3 229.66 49.56C230.22 49.82 230.72 50.19 231.11 50.66L230.56 51.23C230.23 50.83 229.82 50.5 229.36 50.27C228.89 50.04 228.39 49.91 227.87 49.9C227.43 49.91 226.99 50 226.59 50.18C226.18 50.36 225.82 50.62 225.51 50.95C225.21 51.27 224.97 51.65 224.82 52.06C224.66 52.48 224.59 52.92 224.61 53.36L224.61 53.4C224.6 53.84 224.67 54.29 224.83 54.71C224.99 55.13 225.23 55.51 225.54 55.84C225.85 56.16 226.22 56.42 226.63 56.6C227.04 56.78 227.48 56.88 227.93 56.89C228.45 56.88 228.97 56.75 229.43 56.52C229.9 56.28 230.31 55.95 230.64 55.55L231.17 56.02C230.64 56.71 229.91 57.21 229.08 57.45C228.24 57.7 227.36 57.67 226.54 57.39C225.72 57.1 225.01 56.56 224.51 55.85C224.02 55.14 223.76 54.29 223.77 53.43L223.77 53.43Z" fill="#FFFFFF" fill-opacity="1.000000" fill-rule="nonzero"/>
			<path id="Path 29" d="M232.03 53.43L232.03 53.4C232.03 52.84 232.13 52.3 232.33 51.78C232.54 51.27 232.85 50.81 233.23 50.41C233.62 50.02 234.08 49.71 234.59 49.49C235.1 49.28 235.64 49.17 236.2 49.17C236.74 49.17 237.29 49.28 237.79 49.49C238.3 49.7 238.76 50.01 239.14 50.4C239.52 50.79 239.83 51.25 240.03 51.76C240.23 52.27 240.33 52.82 240.33 53.36L240.33 53.4C240.33 53.95 240.23 54.5 240.03 55.01C239.82 55.52 239.51 55.98 239.13 56.38C238.74 56.77 238.28 57.08 237.77 57.3C237.26 57.51 236.72 57.62 236.16 57.62C235.62 57.62 235.07 57.51 234.57 57.3C234.06 57.09 233.6 56.78 233.22 56.39C232.84 56 232.53 55.54 232.33 55.03C232.13 54.52 232.03 53.98 232.03 53.43ZM239.49 53.43L239.49 53.4C239.5 52.95 239.43 52.5 239.27 52.08C239.11 51.66 238.87 51.28 238.56 50.95C238.25 50.63 237.88 50.37 237.47 50.18C237.06 50 236.61 49.91 236.16 49.9C235.72 49.9 235.28 50 234.87 50.17C234.46 50.35 234.09 50.61 233.78 50.93C233.48 51.26 233.24 51.64 233.08 52.06C232.92 52.47 232.85 52.92 232.87 53.36L232.87 53.4C232.85 53.85 232.93 54.29 233.09 54.71C233.25 55.13 233.49 55.51 233.8 55.84C234.11 56.17 234.48 56.43 234.89 56.61C235.3 56.79 235.74 56.88 236.19 56.89C236.64 56.89 237.08 56.79 237.49 56.62C237.9 56.44 238.27 56.18 238.57 55.86C238.88 55.53 239.12 55.15 239.28 54.74C239.43 54.32 239.51 53.87 239.49 53.43Z" fill="#FFFFFF" fill-opacity="1.000000" fill-rule="nonzero"/>
			<path id="Path 30" d="M242.18 49.36L242.96 49.36L242.96 50.86C243.23 50.34 243.65 49.9 244.17 49.6C244.68 49.3 245.27 49.15 245.87 49.17C246.31 49.15 246.75 49.22 247.15 49.38C247.56 49.54 247.93 49.78 248.24 50.1C248.55 50.42 248.78 50.79 248.93 51.21C249.08 51.62 249.13 52.06 249.1 52.5L249.1 57.44L248.32 57.44L248.32 52.64C248.36 52.28 248.33 51.92 248.22 51.58C248.11 51.24 247.92 50.93 247.68 50.67C247.43 50.4 247.14 50.2 246.8 50.06C246.47 49.93 246.12 49.87 245.76 49.88C245.38 49.88 245.01 49.95 244.66 50.09C244.31 50.24 244 50.45 243.74 50.72C243.48 50.99 243.27 51.31 243.14 51.66C243 52.01 242.94 52.39 242.96 52.76L242.96 57.43L242.18 57.43L242.18 49.36Z" fill="#FFFFFF" fill-opacity="1.000000" fill-rule="nonzero"/>
			<path id="Path 31" d="M251.77 55.36L251.77 50.07L250.6 50.07L250.6 49.36L251.77 49.36L251.77 46.78L252.55 46.78L252.55 49.36L255.38 49.36L255.38 50.07L252.55 50.07L252.55 55.28C252.52 55.49 252.55 55.71 252.62 55.92C252.69 56.12 252.81 56.31 252.97 56.46C253.12 56.61 253.31 56.72 253.52 56.79C253.73 56.86 253.95 56.88 254.16 56.84C254.57 56.84 254.98 56.74 255.35 56.56L255.35 57.29C254.94 57.48 254.49 57.58 254.03 57.57C253.73 57.6 253.43 57.57 253.15 57.47C252.86 57.37 252.6 57.21 252.39 56.99C252.17 56.78 252 56.53 251.9 56.24C251.79 55.96 251.75 55.66 251.77 55.36L251.77 55.36Z" fill="#FFFFFF" fill-opacity="1.000000" fill-rule="nonzero"/>
			<path id="Path 32" d="M256.35 53.41L256.35 53.38C256.31 52.85 256.39 52.32 256.57 51.82C256.74 51.32 257.02 50.86 257.38 50.47C257.73 50.08 258.16 49.76 258.65 49.54C259.13 49.31 259.65 49.19 260.18 49.17C262.44 49.17 263.88 51.01 263.88 53.4C263.88 53.5 263.88 53.61 263.87 53.71L257.17 53.71C257.17 54.55 257.51 55.36 258.1 55.95C258.69 56.55 259.5 56.88 260.33 56.89C260.86 56.9 261.38 56.78 261.86 56.57C262.34 56.35 262.76 56.03 263.1 55.63L263.64 56.1C263.23 56.59 262.72 56.98 262.14 57.24C261.57 57.5 260.94 57.63 260.3 57.62C259.76 57.61 259.23 57.49 258.74 57.28C258.24 57.06 257.8 56.75 257.43 56.35C257.06 55.96 256.77 55.5 256.59 54.99C256.4 54.48 256.32 53.95 256.35 53.41L256.35 53.41ZM263.04 53.01C262.93 51.38 262 49.88 260.14 49.88C259.34 49.92 258.59 50.27 258.03 50.85C257.48 51.44 257.17 52.21 257.17 53.01L263.04 53.01Z" fill="#FFFFFF" fill-opacity="1.000000" fill-rule="nonzero"/>
			<path id="Path 33" d="M265.61 49.36L266.38 49.36L266.38 50.86C266.66 50.34 267.08 49.9 267.59 49.6C268.11 49.3 268.7 49.15 269.29 49.17C269.73 49.15 270.17 49.22 270.58 49.38C270.99 49.54 271.36 49.78 271.67 50.1C271.97 50.42 272.21 50.79 272.35 51.21C272.5 51.62 272.56 52.06 272.52 52.5L272.52 57.44L271.75 57.44L271.75 52.64C271.79 52.28 271.75 51.92 271.64 51.58C271.53 51.24 271.35 50.93 271.1 50.66C270.86 50.4 270.56 50.2 270.23 50.06C269.9 49.93 269.54 49.87 269.18 49.88C268.81 49.88 268.43 49.95 268.09 50.09C267.74 50.24 267.43 50.45 267.16 50.72C266.9 50.99 266.7 51.31 266.56 51.66C266.43 52.01 266.37 52.39 266.38 52.76L266.38 57.43L265.61 57.43L265.61 49.36Z" fill="#FFFFFF" fill-opacity="1.000000" fill-rule="nonzero"/>
			<path id="Path 34" d="M275.2 55.36L275.2 50.07L274.03 50.07L274.03 49.36L275.2 49.36L275.2 46.78L275.97 46.78L275.97 49.36L278.81 49.36L278.81 50.07L275.98 50.07L275.98 55.28C275.95 55.49 275.97 55.71 276.05 55.92C276.12 56.12 276.24 56.31 276.4 56.46C276.55 56.61 276.74 56.72 276.95 56.79C277.15 56.86 277.37 56.88 277.59 56.84C278 56.84 278.41 56.74 278.78 56.56L278.78 57.29C278.37 57.48 277.92 57.58 277.46 57.57C277.16 57.6 276.86 57.57 276.57 57.47C276.29 57.37 276.03 57.21 275.81 56.99C275.6 56.78 275.43 56.53 275.32 56.24C275.22 55.96 275.18 55.66 275.2 55.36L275.2 55.36Z" fill="#FFFFFF" fill-opacity="1.000000" fill-rule="nonzero"/>
			<path id="Rectangle 50" d="M280.39 56.09L281.43 56.09L281.43 57.43L280.39 57.43L280.39 56.09Z" fill="#FFFFFF" fill-opacity="1.000000" fill-rule="evenodd"/>
		</g>
	</g>
</svg>
