<svg width="40.000000" height="40.000000" viewBox="0 0 40 40" fill="none" xmlns="http://www.w3.org/2000/svg" xmlns:xlink="http://www.w3.org/1999/xlink">
	<desc>
			Created with Pixso.
	</desc>
	<defs/>
	<path id="Union" d="M13.03 18.96C12.46 18.96 12 19.42 12 19.99C12 20.57 12.46 21.03 13.03 21.03L18.96 21.03L18.96 26.96C18.96 27.53 19.42 28 20 28C20.57 28 21.03 27.53 21.03 26.96L21.03 21.03L26.96 21.03C27.53 21.03 28 20.57 28 19.99C28 19.42 27.53 18.96 26.96 18.96L21.03 18.96L21.03 13.03C21.03 12.46 20.57 12 20 12C19.42 12 18.96 12.46 18.96 13.03L18.96 18.96L13.03 18.96Z" fill="#1D1D1D" fill-opacity="1.000000" fill-rule="nonzero"/>
	<rect id="Frame 110" rx="7.000000" width="38.000000" height="38.000000" transform="translate(1.000000 1.000000)" stroke="#1D1D1D" stroke-opacity="1.000000" stroke-width="2.000000"/>
</svg>
