<svg width="1104.896240" height="305.038696" viewBox="0 0 1104.9 305.039" fill="none" xmlns="http://www.w3.org/2000/svg" xmlns:xlink="http://www.w3.org/1999/xlink">
	<desc>
			Created with Pixso.
	</desc>
	<defs>
		<clipPath id="clip473_833">
			<rect id="ph:arrow-up" rx="-0.500000" width="214.694916" height="214.694916" transform="translate(952.876953 0.500000) rotate(45.000000)" fill="white" fill-opacity="0"/>
		</clipPath>
	</defs>
	<rect id="ph:arrow-up" rx="-0.500000" width="214.694916" height="214.694916" transform="translate(952.876953 0.500000) rotate(45.000000)" fill="#FFFFFF" fill-opacity="0"/>
	<g clip-path="url(#clip473_833)">
		<path id="Vector" d="M1004.81 192.62C1003.92 192.62 1003.04 192.45 1002.22 192.11C1001.41 191.77 1000.66 191.27 1000.04 190.65C999.4 190.02 998.91 189.28 998.57 188.46C998.23 187.64 998.06 186.76 998.06 185.88L998.06 116.36L904.71 209.71C903.45 210.97 901.73 211.68 899.94 211.68C898.16 211.68 896.44 210.97 895.18 209.71C893.91 208.45 893.2 206.73 893.2 204.94C893.2 203.16 893.91 201.44 895.18 200.18L988.53 106.82L919.01 106.83C917.22 106.83 915.5 106.12 914.24 104.86C912.98 103.59 912.26 101.87 912.26 100.09C912.26 98.3 912.98 96.58 914.24 95.32C915.5 94.05 917.22 93.34 919.01 93.34L1004.81 93.34C1005.69 93.34 1006.57 93.52 1007.39 93.85C1008.21 94.19 1008.95 94.69 1009.58 95.32C1010.2 95.94 1010.7 96.69 1011.04 97.5C1011.38 98.32 1011.55 99.2 1011.55 100.09L1011.55 185.88C1011.55 186.76 1011.38 187.64 1011.04 188.46C1010.7 189.28 1010.2 190.02 1009.58 190.65C1008.95 191.27 1008.21 191.77 1007.39 192.11C1006.57 192.45 1005.69 192.62 1004.81 192.62Z" fill="#FFFFFF" fill-opacity="1.000000" fill-rule="nonzero"/>
	</g>
	<path id="Line 2" d="M900 205L0 205" stroke="#FFFFFF" stroke-opacity="1.000000" stroke-width="13.400000"/>
</svg>
